<svg width="53" height="53" viewBox="0 0 53 53" fill="none" xmlns="http://www.w3.org/2000/svg">
<path d="M15.6 31.12C15.064 31.12 14.596 31.016 14.196 30.808C13.804 30.592 13.5 30.292 13.284 29.908C13.068 29.516 12.96 29.06 12.96 28.54V24.7C12.96 24.172 13.068 23.716 13.284 23.332C13.5 22.948 13.804 22.652 14.196 22.444C14.596 22.228 15.064 22.12 15.6 22.12C16.144 22.12 16.612 22.228 17.004 22.444C17.396 22.652 17.7 22.948 17.916 23.332C18.132 23.716 18.24 24.172 18.24 24.7V28.54C18.24 29.06 18.132 29.516 17.916 29.908C17.7 30.292 17.392 30.592 16.992 30.808C16.6 31.016 16.136 31.12 15.6 31.12ZM15.6 30.196C16.08 30.196 16.464 30.044 16.752 29.74C17.048 29.428 17.196 29.028 17.196 28.54V24.7C17.196 24.212 17.048 23.816 16.752 23.512C16.464 23.2 16.08 23.044 15.6 23.044C15.12 23.044 14.732 23.2 14.436 23.512C14.148 23.816 14.004 24.212 14.004 24.7V28.54C14.004 29.028 14.148 29.428 14.436 29.74C14.732 30.044 15.12 30.196 15.6 30.196ZM15.6 27.328C15.384 27.328 15.208 27.26 15.072 27.124C14.944 26.988 14.88 26.808 14.88 26.584C14.88 26.368 14.944 26.196 15.072 26.068C15.208 25.932 15.384 25.864 15.6 25.864C15.816 25.864 15.988 25.932 16.116 26.068C16.252 26.196 16.32 26.368 16.32 26.584C16.32 26.808 16.252 26.988 16.116 27.124C15.988 27.26 15.816 27.328 15.6 27.328ZM22.7953 31.12C22.4913 31.12 22.2473 31.032 22.0633 30.856C21.8873 30.68 21.7993 30.444 21.7993 30.148C21.7993 29.836 21.8873 29.588 22.0633 29.404C22.2473 29.22 22.4913 29.128 22.7953 29.128C23.0993 29.128 23.3393 29.22 23.5153 29.404C23.6993 29.588 23.7913 29.836 23.7913 30.148C23.7913 30.444 23.6993 30.68 23.5153 30.856C23.3393 31.032 23.0993 31.12 22.7953 31.12ZM29.9906 31.12C29.4546 31.12 28.9866 31.016 28.5866 30.808C28.1946 30.592 27.8906 30.292 27.6746 29.908C27.4586 29.516 27.3506 29.06 27.3506 28.54V24.7C27.3506 24.172 27.4586 23.716 27.6746 23.332C27.8906 22.948 28.1946 22.652 28.5866 22.444C28.9866 22.228 29.4546 22.12 29.9906 22.12C30.5346 22.12 31.0026 22.228 31.3946 22.444C31.7866 22.652 32.0906 22.948 32.3066 23.332C32.5226 23.716 32.6306 24.172 32.6306 24.7V28.54C32.6306 29.06 32.5226 29.516 32.3066 29.908C32.0906 30.292 31.7826 30.592 31.3826 30.808C30.9906 31.016 30.5266 31.12 29.9906 31.12ZM29.9906 30.196C30.4706 30.196 30.8546 30.044 31.1426 29.74C31.4386 29.428 31.5866 29.028 31.5866 28.54V24.7C31.5866 24.212 31.4386 23.816 31.1426 23.512C30.8546 23.2 30.4706 23.044 29.9906 23.044C29.5106 23.044 29.1226 23.2 28.8266 23.512C28.5386 23.816 28.3946 24.212 28.3946 24.7V28.54C28.3946 29.028 28.5386 29.428 28.8266 29.74C29.1226 30.044 29.5106 30.196 29.9906 30.196ZM29.9906 27.328C29.7746 27.328 29.5986 27.26 29.4626 27.124C29.3346 26.988 29.2706 26.808 29.2706 26.584C29.2706 26.368 29.3346 26.196 29.4626 26.068C29.5986 25.932 29.7746 25.864 29.9906 25.864C30.2066 25.864 30.3786 25.932 30.5066 26.068C30.6426 26.196 30.7106 26.368 30.7106 26.584C30.7106 26.808 30.6426 26.988 30.5066 27.124C30.3786 27.26 30.2066 27.328 29.9906 27.328ZM34.6899 31V29.896L37.3659 27.052C37.8219 26.564 38.1539 26.132 38.3619 25.756C38.5699 25.372 38.6739 25.004 38.6739 24.652C38.6739 24.164 38.5379 23.78 38.2659 23.5C38.0019 23.22 37.6379 23.08 37.1739 23.08C36.6619 23.08 36.2579 23.224 35.9619 23.512C35.6739 23.8 35.5299 24.196 35.5299 24.7H34.4499C34.4659 24.172 34.5859 23.716 34.8099 23.332C35.0419 22.94 35.3579 22.64 35.7579 22.432C36.1659 22.224 36.6379 22.12 37.1739 22.12C37.7019 22.12 38.1579 22.224 38.5419 22.432C38.9339 22.632 39.2339 22.92 39.4419 23.296C39.6499 23.672 39.7539 24.12 39.7539 24.64C39.7539 25.136 39.6219 25.628 39.3579 26.116C39.0939 26.604 38.6619 27.16 38.0619 27.784L35.9019 30.016H39.8979V31H34.6899Z" fill="#F0F0F0"/>
<circle cx="26.5" cy="26.5" r="26" stroke="#F0F0F0"/>
</svg>
