<svg width="1777" height="106" viewBox="0 0 1777 106" fill="none" xmlns="http://www.w3.org/2000/svg">
<path d="M0 0.61C37.08 0.61 67.8 105.49 104.88 105.49C141.96 105.49 172.75 0.5 209.88 0.5C247.01 0.5 277.28 100.56 313.82 104.44C350.36 108.32 381.01 0.5 417.75 0.5C454.49 0.5 485.43 105.19 522.44 105.19C559.45 105.19 589.93 0.8 626.84 0.8C663.75 0.8 694.23 105.04 731.08 105.04C767.93 105.04 798.66 0.5 835.62 0.5C872.58 0.5 903.3 105.19 940.31 105.19" stroke="white" stroke-miterlimit="10"/>
<path d="M836 0.61C873.08 0.61 903.8 105.49 940.88 105.49C977.96 105.49 1008.75 0.5 1045.88 0.5C1083.01 0.5 1113.28 100.56 1149.82 104.44C1186.36 108.32 1217.01 0.5 1253.75 0.5C1290.49 0.5 1321.43 105.19 1358.44 105.19C1395.45 105.19 1425.93 0.8 1462.84 0.8C1499.75 0.8 1530.23 105.04 1567.08 105.04C1603.93 105.04 1634.66 0.5 1671.62 0.5C1708.58 0.5 1739.3 105.19 1776.31 105.19" stroke="white" stroke-miterlimit="10"/>
</svg>
