<svg width="141" height="124" viewBox="0 0 141 124" fill="none" xmlns="http://www.w3.org/2000/svg">
<mask id="path-1-inside-1_629_52" fill="white">
<path d="M15.2689 0H20.1148L23.0521 2.64393V6.46117L35.0904 23.1967H38.763L45.8108 33.0371V36.119L49.0414 37.883V41.5516L52.4166 42.8735L54.1806 45.8108L56.6758 47.7194H59.9064L78.9925 56.3825L90.5929 60.6377L99.9873 66.9542L109.679 77.3773L115.26 80.6079L119.077 87.3623L124.655 92.5015L127.741 97.0541L137.577 99.694L140.072 100.871L139.044 103.367L133.318 104.395H125.977L120.544 101.309L120.106 105.569L111.881 115.26L105.42 119.078L86.4824 122.308H68.5695L48.0127 119.957H32.8885L19.9701 121.424L15.2689 123.039L12.7737 120.837L17.1775 117.02L20.8501 113.645L25.254 112.91L32.4505 108.799H38.321L40.2296 106.011L43.7535 107.184L47.864 104.689L52.5653 106.449L55.2052 103.66L69.7428 97.7854L68.7142 89.4196L61.5217 86.9204L58.8778 85.1604L60.7864 83.9831L54.0319 78.5506L50.3633 77.9639L44.4888 84.8671L35.9744 94.2615L30.8352 93.5302L22.4654 93.0882L20.7014 91.1796L24.812 89.271L32.4505 87.069L34.9457 85.0117L35.8257 80.6079L39.2009 77.9639L40.0849 67.9829L32.4505 61.5217L27.3113 58.2911L24.5187 50.508H22.1721L4.99053 25.8406L0 16.7396L2.05729 15.1243L3.52391 13.509L4.99053 15.2689L7.19648 15.4176L8.07646 18.0615L10.7164 16.8842L9.69175 18.4995L12.629 22.3167L15.5622 24.374L16.6913 23.5905V25.1093L18.8933 25.5473L19.4317 24.2254L20.163 26.134L21.7301 25.2058L22.5136 23.1003L20.8501 22.6101L21.8788 20.8019L20.163 19.3795L17.9611 19.6246L19.4317 18.0615L18.6 16.2976L17.0811 16.1007L18.5477 14.7787L17.2258 14.1438L18.6482 12.629L18.3026 11.3553H16.836L18.2544 9.59129L16.4945 6.26428L14.5858 7.48981L15.7109 5.33609L14.2403 4.6972L15.3171 3.91367L14.8792 1.51886L15.2689 0Z"/>
</mask>
<path d="M15.2689 0H20.1148L23.0521 2.64393V6.46117L35.0904 23.1967H38.763L45.8108 33.0371V36.119L49.0414 37.883V41.5516L52.4166 42.8735L54.1806 45.8108L56.6758 47.7194H59.9064L78.9925 56.3825L90.5929 60.6377L99.9873 66.9542L109.679 77.3773L115.26 80.6079L119.077 87.3623L124.655 92.5015L127.741 97.0541L137.577 99.694L140.072 100.871L139.044 103.367L133.318 104.395H125.977L120.544 101.309L120.106 105.569L111.881 115.26L105.42 119.078L86.4824 122.308H68.5695L48.0127 119.957H32.8885L19.9701 121.424L15.2689 123.039L12.7737 120.837L17.1775 117.02L20.8501 113.645L25.254 112.91L32.4505 108.799H38.321L40.2296 106.011L43.7535 107.184L47.864 104.689L52.5653 106.449L55.2052 103.66L69.7428 97.7854L68.7142 89.4196L61.5217 86.9204L58.8778 85.1604L60.7864 83.9831L54.0319 78.5506L50.3633 77.9639L44.4888 84.8671L35.9744 94.2615L30.8352 93.5302L22.4654 93.0882L20.7014 91.1796L24.812 89.271L32.4505 87.069L34.9457 85.0117L35.8257 80.6079L39.2009 77.9639L40.0849 67.9829L32.4505 61.5217L27.3113 58.2911L24.5187 50.508H22.1721L4.99053 25.8406L0 16.7396L2.05729 15.1243L3.52391 13.509L4.99053 15.2689L7.19648 15.4176L8.07646 18.0615L10.7164 16.8842L9.69175 18.4995L12.629 22.3167L15.5622 24.374L16.6913 23.5905V25.1093L18.8933 25.5473L19.4317 24.2254L20.163 26.134L21.7301 25.2058L22.5136 23.1003L20.8501 22.6101L21.8788 20.8019L20.163 19.3795L17.9611 19.6246L19.4317 18.0615L18.6 16.2976L17.0811 16.1007L18.5477 14.7787L17.2258 14.1438L18.6482 12.629L18.3026 11.3553H16.836L18.2544 9.59129L16.4945 6.26428L14.5858 7.48981L15.7109 5.33609L14.2403 4.6972L15.3171 3.91367L14.8792 1.51886L15.2689 0Z" stroke="#2DFEBB" stroke-width="4" stroke-dasharray="3.33 3.33" mask="url(#path-1-inside-1_629_52)"/>
</svg>
