<svg width="96" height="71" viewBox="0 0 96 71" fill="none" xmlns="http://www.w3.org/2000/svg">
<path d="M73.1596 68.9792L71.2003 67.7417L73.7443 64.2891L74.1299 61.0406L73.1036 58.1695L72.5936 55.0634L69.8443 49.6863L66.2554 45.1013L59.6871 44.2227L53.9149 42.2798L53.2618 47.3289L54.3317 56.5051L57.3608 66.4176L59.1335 67.3457L59.8301 70.4766H48.0495L48.7461 68.41L50.5623 66.9745L50.1891 65.3966L46.3265 57.0124L42.8993 48.8201L42.5696 48.5416L39.9448 54.228L37.6496 64.9697L38.0228 67.7479L39.3912 69.2886C39.3912 69.2886 39.4659 70.6808 39.1424 70.9531H27.7225L27.8469 69.5918L30.0177 68.1068L31.2617 66.6218L30.7019 64.2148L31.9459 54.5188L32.0081 42.2922L32.7545 38.4621L32.3813 31.4825L30.3971 29.6324L29.2153 29.5086L28.7799 28.4567L26.491 30.3439L23.6235 27.2006L23.0264 30.115L21.7949 30.6595L21.0671 38.7219L18.0566 45.782L15.9729 48.3931L14.7414 58.8316L13.8146 64.4314L14.6605 66.5785L17.5901 66.9621L18.6724 69.8764L17.5901 70.4148L13.8084 69.4928L11.1835 67.7294L9.25535 59.902V53.071L4.47218 55.9111L0 56.2204L1.7727 54.3023L9.41085 49.3151L8.79507 33.8152L10.5678 18.9278L12.6515 10.1786L14.7352 5.81633L19.8729 2.90817H25.9187L31.4607 0.804387L38.1099 0L45.3624 3.60736L50.8049 4.51075L57.9579 6.41653H62.3928L70.8582 4.21375L77.9117 4.81394L85.0646 8.9225L91.7138 17.0406L94.9358 25.3567L94.1272 37.8866L92.3109 51.8149L95.6324 69.1525L95.1286 70.4581H82.7384L83.2422 68.4533L85.8608 66.1453L86.1656 62.538L85.357 55.02L83.8455 50.6083L79.5164 47.7001L79.7155 53.6155L81.5566 58.9739L83.6278 65.7988L82.0417 69.004" fill="#061E2A"/>
</svg>
