<svg width="200" height="335" viewBox="0 0 200 335" fill="none" xmlns="http://www.w3.org/2000/svg">
<path d="M3.54002 237.841L2.1991 233.596L2.7508 227.006L6.09159 223.259L3.48638 191.882L2.1991 180.396L5.30237 165.715L16.3209 151.286L29.9906 137.992L48.9857 134.192L62.6554 130.016L77.8499 119.38L85.0679 103.044L98.8449 93.9257L116.974 80.6314L158.382 27.8375L155.983 26.3587L151.562 24.7036L146.214 16.9569L146.949 13.4552H153.033L156.719 15.3018L157.087 19.9069L160.037 20.4586L163.722 17.7001L162.619 13.4552L161.516 6.81955L159.117 4.24497L161.14 1.11106H163.722L165.385 2.95003V6.08395L168.151 10.8806L171.469 13.823L174.228 13.2713L176.258 9.40178V6.63564L174.603 3.31783L177.178 0H180.863L181.974 4.79667L183.078 9.95347L184.181 16.773L185.169 17.7385L187.897 14.1831L191.928 12.4054H199.628V13.9456L197.851 18.4511L192.87 24.1366L190.855 25.4392L190.978 26.6192L187.66 31.1247L189.912 36.5726L194.295 41.6681L197.138 48.6562L195.836 51.2615L191.33 52.8016L186.832 51.1465L184.342 50.0814L182.687 46.8786L175.691 45.9361L173.208 45.1009L161.477 72.1185L147.616 105.641L133.165 127.679L131.74 130.636L128.897 134.789L128.422 140.712L130.199 149.478L132.805 154.574L127.357 183.361L125.939 187.146L125.464 194.02L123.334 201.368L118.476 213.329L115.511 247.925L116.338 249.817L114.683 257.878L118.591 303.485L121.434 309.17L121.909 314.266L129.219 325.851L131.379 329.767L131.226 331.927L114.683 332.157L113.495 329.552L115.863 326.472L115.158 321.491L110.178 313.2L109.473 304.91L104.73 259.771L103.665 255.388L102.362 223.635L100.822 250.53L98.8066 256.1L96.7914 303.722L98.5691 310.71V319.123L105.795 333.46L101.174 335H90.2784L88.3781 331.567L91.4584 327.537L90.8683 322.204L88.3781 318.058L88.1482 307.867L88.0256 258.23L86.608 252.782L88.3781 210.609L88.9758 195.085L81.2751 194.142L76.532 196.035L66.4636 196.15L56.7477 192.602L54.0275 202.08L46.6793 215.467L39.3311 237.734L36.6109 254.798L46.0893 306.212L48.1045 311.185V315.101L56.6328 330.732L52.9625 332.395H42.5339L40.6413 329.552L42.5339 323.154L37.2009 314.863L25.5924 257.878L19.6694 245.794L15.4014 258.468L10.3059 308.343L11.4936 313.086L11.6162 316.043L18.3667 330.855L17.1791 333.222L4.15301 333.697L2.13779 330.617L4.62042 325.997L0.597666 316.043L0 311.308L1.66273 305.975L6.39808 256.928L3.09559 238.584L3.43274 237.91L3.55534 237.657" fill="#2DFEBB"/>
</svg>
