<svg width="200" height="335" viewBox="0 0 200 335" fill="none" xmlns="http://www.w3.org/2000/svg">
<mask id="path-1-inside-1_483_845" fill="white">
<path d="M3.54002 237.841L2.1991 233.596L2.7508 227.006L6.09159 223.259L3.48638 191.882L2.1991 180.396L5.30237 165.715L16.3209 151.286L29.9906 137.992L48.9857 134.192L62.6554 130.016L77.8499 119.38L85.0679 103.044L98.8449 93.9257L116.974 80.6314L158.382 27.8375L155.983 26.3587L151.562 24.7036L146.214 16.9569L146.949 13.4552H153.033L156.719 15.3018L157.087 19.9069L160.037 20.4586L163.722 17.7001L162.619 13.4552L161.516 6.81955L159.117 4.24497L161.14 1.11106H163.722L165.385 2.95003V6.08395L168.151 10.8806L171.469 13.823L174.228 13.2713L176.258 9.40178V6.63564L174.603 3.31783L177.178 0H180.863L181.974 4.79667L183.078 9.95347L184.181 16.773L185.169 17.7385L187.897 14.1831L191.928 12.4054H199.628V13.9456L197.851 18.4511L192.87 24.1366L190.855 25.4392L190.978 26.6192L187.66 31.1247L189.912 36.5726L194.295 41.6681L197.138 48.6562L195.836 51.2615L191.33 52.8016L186.832 51.1465L184.342 50.0814L182.687 46.8786L175.691 45.9361L173.208 45.1009L161.477 72.1185L147.616 105.641L133.165 127.679L131.74 130.636L128.897 134.789L128.422 140.712L130.199 149.478L132.805 154.574L127.357 183.361L125.939 187.146L125.464 194.02L123.334 201.368L118.476 213.329L115.511 247.925L116.338 249.817L114.683 257.878L118.591 303.485L121.434 309.17L121.909 314.266L129.219 325.851L131.379 329.767L131.226 331.927L114.683 332.157L113.495 329.552L115.863 326.472L115.158 321.491L110.178 313.2L109.473 304.91L104.73 259.771L103.665 255.388L102.362 223.635L100.822 250.53L98.8066 256.1L96.7914 303.722L98.5691 310.71V319.124L105.795 333.46L101.174 335H90.2784L88.3781 331.567L91.4584 327.537L90.8683 322.204L88.3781 318.058L88.1482 307.867L88.0256 258.23L86.608 252.783L88.3781 210.609L88.9758 195.085L81.275 194.142L76.532 196.035L66.4636 196.15L56.7477 192.602L54.0275 202.08L46.6793 215.467L39.3311 237.734L36.6109 254.798L46.0893 306.212L48.1045 311.185V315.101L56.6328 330.732L52.9625 332.395H42.534L40.6413 329.552L42.534 323.154L37.2009 314.863L25.5924 257.878L19.6694 245.794L15.4014 258.468L10.3059 308.343L11.4936 313.086L11.6162 316.043L18.3667 330.855L17.1791 333.222L4.15301 333.697L2.13779 330.617L4.62042 325.997L0.597666 316.043L0 311.308L1.66273 305.975L6.39808 256.928L3.09559 238.584L3.43274 237.91L3.55534 237.657"/>
</mask>
<path d="M2.1991 233.596L1.20259 233.512L1.18613 233.709L1.24555 233.897L2.1991 233.596ZM2.7508 227.006L2.0044 226.341L1.78215 226.59L1.75428 226.923L2.7508 227.006ZM6.09159 223.259L6.83799 223.925L7.12368 223.604L7.08816 223.177L6.09159 223.259ZM3.48638 191.882L4.48295 191.799L4.48176 191.785L4.48016 191.77L3.48638 191.882ZM2.1991 180.396L1.22072 180.189L1.18736 180.347L1.20533 180.507L2.1991 180.396ZM5.30237 165.715L4.50761 165.108L4.37065 165.287L4.32398 165.508L5.30237 165.715ZM16.3209 151.286L15.6237 150.569L15.5709 150.621L15.5261 150.679L16.3209 151.286ZM29.9906 137.992L29.7944 137.012L29.505 137.069L29.2934 137.275L29.9906 137.992ZM48.9857 134.192L49.1819 135.172L49.2305 135.162L49.2779 135.148L48.9857 134.192ZM62.6554 130.016L62.9476 130.972L63.0991 130.926L63.2288 130.835L62.6554 130.016ZM77.8499 119.38L78.4234 120.199L78.6519 120.039L78.7646 119.784L77.8499 119.38ZM85.0679 103.044L84.516 102.21L84.2716 102.372L84.1532 102.64L85.0679 103.044ZM98.8449 93.9257L99.3968 94.7596L99.4169 94.7463L99.4363 94.7321L98.8449 93.9257ZM116.974 80.6314L117.565 81.4378L117.676 81.3566L117.761 81.2486L116.974 80.6314ZM158.382 27.8375L159.169 28.4546L159.859 27.5738L158.907 26.9863L158.382 27.8375ZM155.983 26.3587L156.508 25.5075L156.425 25.4563L156.334 25.4221L155.983 26.3587ZM151.562 24.7036L150.739 25.2717L150.918 25.5301L151.212 25.6401L151.562 24.7036ZM146.214 16.9569L145.235 16.7513L145.147 17.1716L145.391 17.525L146.214 16.9569ZM146.949 13.4552V12.4552H146.138L145.971 13.2496L146.949 13.4552ZM153.033 13.4552L153.481 12.5611L153.27 12.4552H153.033V13.4552ZM156.719 15.3018L157.716 15.2222L157.671 14.6603L157.167 14.4078L156.719 15.3018ZM157.087 19.9069L156.09 19.9865L156.151 20.7492L156.903 20.8899L157.087 19.9069ZM160.037 20.4586L159.853 21.4416L160.285 21.5223L160.636 21.2592L160.037 20.4586ZM163.722 17.7001L164.322 18.5007L164.859 18.0984L164.69 17.4486L163.722 17.7001ZM162.619 13.4552L161.633 13.6192L161.64 13.6634L161.651 13.7067L162.619 13.4552ZM161.516 6.81955L162.502 6.65552L162.453 6.35836L162.247 6.13793L161.516 6.81955ZM159.117 4.24497L158.277 3.70266L157.855 4.35685L158.386 4.92659L159.117 4.24497ZM161.14 1.11106V0.111057H160.595L160.3 0.56874L161.14 1.11106ZM163.722 1.11106L164.464 0.440388L164.166 0.111057H163.722V1.11106ZM165.385 2.95003H166.385V2.56497L166.127 2.27936L165.385 2.95003ZM165.385 6.08395H164.385V6.35163L164.519 6.58351L165.385 6.08395ZM168.151 10.8806L167.285 11.3802L167.366 11.521L167.488 11.6288L168.151 10.8806ZM171.469 13.823L170.806 14.5711L171.178 14.9011L171.665 14.8036L171.469 13.823ZM174.228 13.2713L174.424 14.2519L174.891 14.1583L175.113 13.7359L174.228 13.2713ZM176.258 9.40178L177.144 9.86643L177.258 9.64822V9.40178H176.258ZM176.258 6.63564H177.258V6.40006L177.153 6.18926L176.258 6.63564ZM174.603 3.31783L173.813 2.70478L173.428 3.20155L173.708 3.76421L174.603 3.31783ZM177.178 0V-1H176.688L176.388 -0.613053L177.178 0ZM180.863 0L181.837 -0.225657L181.658 -1H180.863V0ZM181.974 4.79667L182.952 4.58744L182.95 4.57921L182.948 4.57101L181.974 4.79667ZM183.078 9.95347L184.065 9.79375L184.061 9.76888L184.056 9.74424L183.078 9.95347ZM184.181 16.773L183.194 16.9327L183.247 17.2581L183.482 17.4884L184.181 16.773ZM185.169 17.7385L184.471 18.4538L185.277 19.2413L185.963 18.3472L185.169 17.7385ZM187.897 14.1831L187.494 13.2681L187.26 13.3714L187.104 13.5744L187.897 14.1831ZM191.928 12.4054V11.4054H191.717L191.524 11.4905L191.928 12.4054ZM199.628 12.4054H200.628V11.4054H199.628V12.4054ZM199.628 13.9456L200.559 14.3126L200.628 14.1357V13.9456H199.628ZM197.851 18.4511L198.603 19.11L198.717 18.9795L198.781 18.8181L197.851 18.4511ZM192.87 24.1366L193.413 24.9764L193.53 24.9006L193.622 24.7955L192.87 24.1366ZM190.855 25.4392L190.312 24.5993L189.797 24.9324L189.86 25.5425L190.855 25.4392ZM190.978 26.6192L191.783 27.2122L192.012 26.9006L191.972 26.5158L190.978 26.6192ZM187.66 31.1247L186.855 30.5317L186.52 30.9857L186.736 31.5068L187.66 31.1247ZM189.912 36.5726L188.988 36.9548L189.05 37.1031L189.154 37.2247L189.912 36.5726ZM194.295 41.6681L195.222 41.2913L195.16 41.1399L195.054 41.016L194.295 41.6681ZM197.138 48.6562L198.033 49.1034L198.235 48.6986L198.064 48.2794L197.138 48.6562ZM195.836 51.2615L196.159 52.2077L196.547 52.0752L196.73 51.7087L195.836 51.2615ZM191.33 52.8016L190.985 53.7401L191.318 53.8626L191.654 53.7478L191.33 52.8016ZM186.832 51.1465L186.439 52.0659L186.463 52.0761L186.487 52.085L186.832 51.1465ZM184.342 50.0814L183.454 50.5405L183.618 50.8596L183.949 51.0009L184.342 50.0814ZM182.687 46.8786L183.575 46.4195L183.336 45.957L182.82 45.8875L182.687 46.8786ZM175.691 45.9361L175.372 46.8839L175.463 46.9144L175.558 46.9271L175.691 45.9361ZM173.208 45.1009L173.527 44.1531L172.657 43.8603L172.291 44.7026L173.208 45.1009ZM161.477 72.1185L160.56 71.7202L160.557 71.7283L160.553 71.7364L161.477 72.1185ZM147.616 105.641L148.452 106.19L148.504 106.111L148.54 106.024L147.616 105.641ZM133.165 127.679L132.329 127.13L132.292 127.185L132.264 127.244L133.165 127.679ZM131.74 130.636L132.565 131.201L132.608 131.139L132.64 131.07L131.74 130.636ZM128.897 134.789L128.072 134.224L127.921 134.444L127.9 134.709L128.897 134.789ZM128.422 140.712L127.425 140.632L127.414 140.773L127.442 140.911L128.422 140.712ZM130.199 149.478L129.219 149.677L129.247 149.811L129.309 149.933L130.199 149.478ZM132.805 154.574L133.787 154.759L133.851 154.423L133.695 154.118L132.805 154.574ZM127.357 183.361L128.293 183.712L128.323 183.631L128.339 183.547L127.357 183.361ZM125.939 187.146L125.003 186.796L124.952 186.932L124.942 187.077L125.939 187.146ZM125.464 194.02L126.425 194.298L126.454 194.195L126.462 194.089L125.464 194.02ZM123.334 201.368L124.26 201.744L124.28 201.696L124.294 201.646L123.334 201.368ZM118.476 213.329L117.549 212.953L117.493 213.093L117.48 213.243L118.476 213.329ZM115.511 247.925L114.514 247.839L114.493 248.092L114.594 248.325L115.511 247.925ZM116.338 249.817L117.318 250.018L117.382 249.707L117.254 249.417L116.338 249.817ZM114.683 257.878L113.704 257.677L113.674 257.819L113.687 257.963L114.683 257.878ZM118.591 303.485L117.595 303.57L117.611 303.761L117.696 303.932L118.591 303.485ZM121.434 309.17L122.429 309.077L122.412 308.891L122.328 308.723L121.434 309.17ZM121.909 314.266L120.913 314.358L120.935 314.597L121.063 314.799L121.909 314.266ZM129.219 325.851L130.094 325.368L130.08 325.342L130.064 325.317L129.219 325.851ZM131.379 329.767L132.377 329.837L132.398 329.542L132.255 329.283L131.379 329.767ZM131.226 331.927L131.24 332.927L132.159 332.915L132.224 331.998L131.226 331.927ZM114.683 332.157L113.773 332.572L114.044 333.166L114.697 333.157L114.683 332.157ZM113.495 329.552L112.703 328.943L112.336 329.42L112.586 329.967L113.495 329.552ZM115.863 326.472L116.656 327.081L116.912 326.748L116.853 326.332L115.863 326.472ZM115.158 321.491L116.148 321.351L116.12 321.15L116.015 320.976L115.158 321.491ZM110.178 313.2L109.181 313.285L109.201 313.516L109.32 313.715L110.178 313.2ZM109.473 304.91L110.469 304.825L110.468 304.815L110.467 304.805L109.473 304.91ZM104.73 259.771L105.724 259.666L105.717 259.6L105.701 259.534L104.73 259.771ZM103.665 255.388L102.665 255.429L102.669 255.528L102.693 255.624L103.665 255.388ZM102.362 223.635L103.361 223.594L101.364 223.578L102.362 223.635ZM100.822 250.53L101.762 250.87L101.812 250.733L101.82 250.587L100.822 250.53ZM98.8066 256.1L97.8663 255.76L97.814 255.905L97.8075 256.058L98.8066 256.1ZM96.7914 303.722L95.7923 303.68L95.7861 303.826L95.8223 303.969L96.7914 303.722ZM98.5691 310.71H99.5691V310.585L99.5382 310.464L98.5691 310.71ZM98.5691 319.124H97.5691V319.361L97.6761 319.574L98.5691 319.124ZM105.795 333.46L106.111 334.409L107.208 334.043L106.688 333.01L105.795 333.46ZM101.174 335V336H101.337L101.491 335.949L101.174 335ZM90.2784 335L89.4035 335.484L89.6889 336H90.2784V335ZM88.3781 331.567L87.5835 330.96L87.1865 331.48L87.5032 332.052L88.3781 331.567ZM91.4584 327.537L92.2529 328.144L92.4964 327.825L92.4523 327.427L91.4584 327.537ZM90.8683 322.204L91.8623 322.094L91.8382 321.876L91.7256 321.689L90.8683 322.204ZM88.3781 318.058L87.3783 318.081L87.3843 318.346L87.5209 318.573L88.3781 318.058ZM88.1482 307.867L87.1482 307.87L87.1482 307.88L87.1485 307.89L88.1482 307.867ZM88.0256 258.23L89.0256 258.228L89.0253 258.101L88.9934 257.979L88.0256 258.23ZM86.608 252.783L85.6089 252.741L85.6027 252.89L85.6403 253.034L86.608 252.783ZM88.3781 210.609L89.3772 210.651L89.3773 210.647L88.3781 210.609ZM88.9758 195.085L89.975 195.123L90.0104 194.204L89.0972 194.092L88.9758 195.085ZM81.275 194.142L81.3965 193.15L81.1423 193.118L80.9044 193.213L81.275 194.142ZM76.532 196.035L76.5434 197.035L76.7297 197.033L76.9026 196.964L76.532 196.035ZM66.4636 196.15L66.1206 197.089L66.2923 197.152L66.475 197.15L66.4636 196.15ZM56.7477 192.602L57.0907 191.663L56.0826 191.295L55.7865 192.326L56.7477 192.602ZM54.0275 202.08L54.9042 202.562L54.9579 202.464L54.9887 202.356L54.0275 202.08ZM46.6793 215.467L45.8027 214.985L45.7585 215.066L45.7297 215.153L46.6793 215.467ZM39.3311 237.734L38.3814 237.42L38.3562 237.497L38.3435 237.576L39.3311 237.734ZM36.6109 254.798L35.6234 254.64L35.5963 254.81L35.6275 254.979L36.6109 254.798ZM46.0893 306.212L45.1059 306.394L45.1243 306.494L45.1625 306.588L46.0893 306.212ZM48.1045 311.185H49.1045V310.99L49.0313 310.81L48.1045 311.185ZM48.1045 315.101H47.1045V315.356L47.2267 315.58L48.1045 315.101ZM56.6328 330.732L57.0454 331.643L58.0264 331.199L57.5106 330.253L56.6328 330.732ZM52.9625 332.395V333.395H53.1784L53.3751 333.306L52.9625 332.395ZM42.534 332.395L41.7016 332.949L41.9984 333.395H42.534V332.395ZM40.6413 329.552L39.6824 329.268L39.5497 329.717L39.8089 330.106L40.6413 329.552ZM42.534 323.154L43.4929 323.438L43.6228 322.998L43.375 322.613L42.534 323.154ZM37.2009 314.863L36.2211 315.063L36.2585 315.247L36.3599 315.404L37.2009 314.863ZM25.5924 257.878L26.5723 257.678L26.5467 257.553L26.4903 257.438L25.5924 257.878ZM19.6694 245.794L20.5673 245.354L19.4974 243.172L18.7217 245.475L19.6694 245.794ZM15.4014 258.468L14.4537 258.149L14.418 258.255L14.4066 258.366L15.4014 258.468ZM10.3059 308.343L9.31109 308.241L9.29327 308.415L9.33586 308.585L10.3059 308.343ZM11.4936 313.086L12.4927 313.044L12.4885 312.942L12.4636 312.843L11.4936 313.086ZM11.6162 316.043L10.617 316.085L10.6251 316.28L10.7062 316.458L11.6162 316.043ZM18.3667 330.855L19.2606 331.303L19.4751 330.875L19.2767 330.44L18.3667 330.855ZM17.1791 333.222L17.2155 334.222L17.8074 334.2L18.0729 333.671L17.1791 333.222ZM4.15301 333.697L3.31618 334.245L3.62526 334.717L4.18945 334.697L4.15301 333.697ZM2.13779 330.617L1.2569 330.144L0.97562 330.667L1.30097 331.165L2.13779 330.617ZM4.62042 325.997L5.50132 326.47L5.72332 326.057L5.54757 325.622L4.62042 325.997ZM0.597666 316.043L-0.394463 316.168L-0.378185 316.297L-0.329476 316.418L0.597666 316.043ZM0 311.308L-0.954676 311.01L-1.01933 311.218L-0.992129 311.433L0 311.308ZM1.66273 305.975L2.6174 306.272L2.64817 306.174L2.6581 306.071L1.66273 305.975ZM6.39808 256.928L7.39345 257.024L7.40672 256.887L7.38226 256.751L6.39808 256.928ZM3.09559 238.584L2.20116 238.137L2.05252 238.434L2.11141 238.761L3.09559 238.584ZM3.43274 237.91L4.32723 238.357L4.33253 238.346L3.43274 237.91ZM3.54002 237.841L4.49358 237.54L4.15835 236.478L3.20479 236.78L2.25124 237.081L2.58647 238.142L3.54002 237.841ZM2.53433 234.657L3.48789 234.356L3.15266 233.295L2.1991 233.596L1.24555 233.897L1.58078 234.958L2.53433 234.657ZM2.1991 233.596L3.19562 233.679L3.33354 232.032L2.33703 231.948L1.34051 231.865L1.20259 233.512L2.1991 233.596ZM2.61287 228.654L3.60939 228.737L3.74731 227.09L2.7508 227.006L1.75428 226.923L1.61636 228.57L2.61287 228.654ZM2.7508 227.006L3.4972 227.672L4.3324 226.735L3.586 226.069L2.8396 225.404L2.0044 226.341L2.7508 227.006ZM5.25639 224.196L6.00279 224.861L6.83799 223.925L6.09159 223.259L5.34519 222.594L4.50999 223.53L5.25639 224.196ZM6.09159 223.259L7.08816 223.177L6.87106 220.562L5.87449 220.644L4.87792 220.727L5.09502 223.342L6.09159 223.259ZM5.44029 215.415L6.43686 215.332L6.00266 210.103L5.00609 210.185L4.00952 210.268L4.44372 215.498L5.44029 215.415ZM4.57189 204.956L5.56846 204.873L5.13425 199.643L4.13768 199.726L3.14111 199.809L3.57531 205.038L4.57189 204.956ZM3.70348 194.497L4.70005 194.414L4.48295 191.799L3.48638 191.882L2.48981 191.964L2.70691 194.579L3.70348 194.497ZM3.48638 191.882L4.48016 191.77L4.15834 188.899L3.16456 189.01L2.17078 189.122L2.4926 191.993L3.48638 191.882ZM2.52092 183.267L3.5147 183.156L3.19288 180.284L2.1991 180.396L1.20533 180.507L1.52715 183.379L2.52092 183.267ZM2.1991 180.396L3.17749 180.603L3.9533 176.932L2.97492 176.726L1.99654 176.519L1.22072 180.189L2.1991 180.396ZM4.52655 169.385L5.50493 169.592L6.28075 165.921L5.30237 165.715L4.32398 165.508L3.54817 169.178L4.52655 169.385ZM5.30237 165.715L6.09712 166.322L7.47444 164.518L6.67968 163.911L5.88493 163.304L4.50761 165.108L5.30237 165.715ZM9.43431 160.304L10.2291 160.911L12.9837 157.304L12.1889 156.697L11.3942 156.09L8.63956 159.697L9.43431 160.304ZM14.9436 153.09L15.7383 153.697L17.1157 151.893L16.3209 151.286L15.5261 150.679L14.1488 152.483L14.9436 153.09ZM16.3209 151.286L17.0181 152.003L18.7268 150.341L18.0296 149.625L17.3324 148.908L15.6237 150.569L16.3209 151.286ZM21.447 146.301L22.1442 147.018L25.5617 143.694L24.8645 142.977L24.1673 142.261L20.7498 145.584L21.447 146.301ZM28.2819 139.654L28.9791 140.371L30.6878 138.709L29.9906 137.992L29.2934 137.275L27.5847 138.937L28.2819 139.654ZM29.9906 137.992L30.1868 138.973L32.5612 138.498L32.365 137.517L32.1688 136.536L29.7944 137.012L29.9906 137.992ZM37.1138 136.567L37.31 137.547L42.0587 136.597L41.8625 135.617L41.6663 134.636L36.9176 135.586L37.1138 136.567ZM46.6113 134.667L46.8075 135.647L49.1819 135.172L48.9857 134.192L48.7895 133.211L46.4151 133.686L46.6113 134.667ZM48.9857 134.192L49.2779 135.148L52.6953 134.104L52.4031 133.148L52.111 132.191L48.6935 133.235L48.9857 134.192ZM59.238 131.06L59.5301 132.016L62.9476 130.972L62.6554 130.016L62.3633 129.059L58.9458 130.103L59.238 131.06ZM62.6554 130.016L63.2288 130.835L65.1282 129.505L64.5547 128.686L63.9813 127.867L62.082 129.196L62.6554 130.016ZM68.3534 126.027L68.9268 126.847L72.7254 124.188L72.152 123.368L71.5786 122.549L67.7799 125.208L68.3534 126.027ZM75.9506 120.71L76.5241 121.529L78.4234 120.199L77.8499 119.38L77.2765 118.561L75.3772 119.89L75.9506 120.71ZM77.8499 119.38L78.7646 119.784L80.5691 115.7L79.6544 115.296L78.7397 114.892L76.9352 118.976L77.8499 119.38ZM83.2634 107.128L84.1781 107.532L85.9826 103.448L85.0679 103.044L84.1532 102.64L82.3487 106.724L83.2634 107.128ZM85.0679 103.044L85.6198 103.878L89.0641 101.598L88.5122 100.764L87.9602 99.9305L84.516 102.21L85.0679 103.044ZM95.4007 96.2052L95.9526 97.0391L99.3968 94.7596L98.8449 93.9257L98.293 93.0918L94.8488 95.3713L95.4007 96.2052ZM98.8449 93.9257L99.4363 94.7321L101.702 93.0703L101.111 92.2639L100.52 91.4575L98.2536 93.1193L98.8449 93.9257ZM105.643 88.9403L106.235 89.7467L110.767 86.4232L110.176 85.6168L109.584 84.8103L105.052 88.1339L105.643 88.9403ZM114.708 82.2932L115.299 83.0996L117.565 81.4378L116.974 80.6314L116.383 79.825L114.117 81.4868L114.708 82.2932ZM116.974 80.6314L117.761 81.2486L119.486 79.0488L118.699 78.4317L117.913 77.8145L116.187 80.0143L116.974 80.6314ZM122.15 74.0322L122.937 74.6493L126.388 70.2498L125.601 69.6327L124.814 69.0155L121.363 73.415L122.15 74.0322ZM129.051 65.2332L129.838 65.8503L133.289 61.4508L132.502 60.8337L131.715 60.2166L128.265 64.616L129.051 65.2332ZM135.953 56.4342L136.739 57.0514L140.19 52.6519L139.403 52.0347L138.616 51.4176L135.166 55.8171L135.953 56.4342ZM142.854 47.6352L143.641 48.2524L147.091 43.8529L146.305 43.2357L145.518 42.6186L142.067 47.0181L142.854 47.6352ZM149.755 38.8362L150.542 39.4534L153.993 35.0539L153.206 34.4367L152.419 33.8196L148.968 38.2191L149.755 38.8362ZM156.656 30.0372L157.443 30.6544L159.169 28.4546L158.382 27.8375L157.595 27.2204L155.87 29.4201L156.656 30.0372ZM158.382 27.8375L158.907 26.9863L158.307 26.6166L157.782 27.4678L157.257 28.319L157.857 28.6887L158.382 27.8375ZM156.583 26.7284L157.108 25.8772L156.508 25.5075L155.983 26.3587L155.459 27.2099L156.058 27.5796L156.583 26.7284ZM155.983 26.3587L156.334 25.4221L155.229 25.0084L154.878 25.9449L154.528 26.8814L155.633 27.2952L155.983 26.3587ZM152.668 25.1174L153.018 24.1808L151.913 23.7671L151.562 24.7036L151.212 25.6401L152.317 26.0539L152.668 25.1174ZM151.562 24.7036L152.385 24.1354L151.048 22.1988L150.225 22.7669L149.402 23.3351L150.739 25.2717L151.562 24.7036ZM147.551 18.8936L148.374 18.3254L147.037 16.3887L146.214 16.9569L145.391 17.525L146.728 19.4617L147.551 18.8936ZM146.214 16.9569L147.193 17.1625L147.376 16.287L146.398 16.0815L145.419 15.8759L145.235 16.7513L146.214 16.9569ZM146.766 14.3306L147.744 14.5362L147.928 13.6607L146.949 13.4552L145.971 13.2496L145.787 14.125L146.766 14.3306ZM146.949 13.4552V14.4552H148.47V13.4552V12.4552H146.949V13.4552ZM151.512 13.4552V14.4552H153.033V13.4552V12.4552H151.512V13.4552ZM153.033 13.4552L152.585 14.3492L153.507 14.8109L153.955 13.9168L154.403 13.0228L153.481 12.5611L153.033 13.4552ZM155.798 14.8401L155.35 15.7342L156.271 16.1959L156.719 15.3018L157.167 14.4078L156.246 13.9461L155.798 14.8401ZM156.719 15.3018L155.722 15.3814L155.814 16.5327L156.811 16.4531L157.808 16.3735L157.716 15.2222L156.719 15.3018ZM156.995 18.7556L155.998 18.8353L156.09 19.9865L157.087 19.9069L158.084 19.8273L157.992 18.676L156.995 18.7556ZM157.087 19.9069L156.903 20.8899L157.64 21.0278L157.824 20.0448L158.008 19.0619L157.271 18.924L157.087 19.9069ZM159.299 20.3207L159.115 21.3036L159.853 21.4416L160.037 20.4586L160.221 19.4757L159.483 19.3377L159.299 20.3207ZM160.037 20.4586L160.636 21.2592L161.557 20.5696L160.958 19.769L160.359 18.9684L159.438 19.658L160.037 20.4586ZM162.801 18.3898L163.4 19.1904L164.322 18.5007L163.722 17.7001L163.123 16.8995L162.202 17.5892L162.801 18.3898ZM163.722 17.7001L164.69 17.4486L164.414 16.3873L163.447 16.6389L162.479 16.8905L162.755 17.9517L163.722 17.7001ZM162.895 14.5164L163.863 14.2648L163.587 13.2036L162.619 13.4552L161.651 13.7067L161.927 14.768L162.895 14.5164ZM162.619 13.4552L163.605 13.2911L163.33 11.6322L162.343 11.7963L161.357 11.9603L161.633 13.6192L162.619 13.4552ZM161.792 8.47846L162.778 8.31443L162.502 6.65552L161.516 6.81955L160.529 6.98358L160.805 8.64249L161.792 8.47846ZM161.516 6.81955L162.247 6.13793L161.648 5.49429L160.916 6.17591L160.184 6.85753L160.784 7.50117L161.516 6.81955ZM159.717 4.88862L160.449 4.207L159.849 3.56336L159.117 4.24497L158.386 4.92659L158.985 5.57024L159.717 4.88862ZM159.117 4.24497L159.957 4.78729L160.463 4.00381L159.623 3.4615L158.783 2.91918L158.277 3.70266L159.117 4.24497ZM160.634 1.89454L161.475 2.43685L161.98 1.65337L161.14 1.11106L160.3 0.56874L159.794 1.35222L160.634 1.89454ZM161.14 1.11106V2.11106H161.786V1.11106V0.111057H161.14V1.11106ZM163.077 1.11106V2.11106H163.722V1.11106V0.111057H163.077V1.11106ZM163.722 1.11106L162.981 1.78173L163.396 2.24147L164.138 1.5708L164.88 0.900131L164.464 0.440388L163.722 1.11106ZM164.969 2.49028L164.228 3.16095L164.643 3.6207L165.385 2.95003L166.127 2.27936L165.711 1.81962L164.969 2.49028ZM165.385 2.95003H164.385V3.73351H165.385H166.385V2.95003H165.385ZM165.385 5.30047H164.385V6.08395H165.385H166.385V5.30047H165.385ZM165.385 6.08395L164.519 6.58351L165.21 7.78268L166.077 7.28311L166.943 6.78355L166.251 5.58438L165.385 6.08395ZM167.46 9.68145L166.593 10.181L167.285 11.3802L168.151 10.8806L169.018 10.381L168.326 9.18188L167.46 9.68145ZM168.151 10.8806L167.488 11.6288L168.317 12.3644L168.981 11.6162L169.644 10.868L168.815 10.1324L168.151 10.8806ZM170.64 13.0874L169.976 13.8355L170.806 14.5711L171.469 13.823L172.133 13.0748L171.303 12.3392L170.64 13.0874ZM171.469 13.823L171.665 14.8036L172.355 14.6656L172.159 13.685L171.963 12.7045L171.273 12.8424L171.469 13.823ZM173.538 13.4092L173.734 14.3898L174.424 14.2519L174.228 13.2713L174.031 12.2907L173.342 12.4286L173.538 13.4092ZM174.228 13.2713L175.113 13.7359L175.621 12.7686L174.735 12.3039L173.85 11.8392L173.342 12.8066L174.228 13.2713ZM175.75 10.3692L176.636 10.8338L177.144 9.86643L176.258 9.40178L175.373 8.93712L174.865 9.90449L175.75 10.3692ZM176.258 9.40178H177.258V8.71024H176.258H175.258V9.40178H176.258ZM176.258 7.32717H177.258V6.63564H176.258H175.258V7.32717H176.258ZM176.258 6.63564L177.153 6.18926L176.739 5.3598L175.844 5.80619L174.949 6.25257L175.363 7.08202L176.258 6.63564ZM175.017 4.14728L175.912 3.7009L175.498 2.87145L174.603 3.31783L173.708 3.76421L174.122 4.59367L175.017 4.14728ZM174.603 3.31783L175.393 3.93088L176.037 3.10143L175.247 2.48837L174.457 1.87532L173.813 2.70478L174.603 3.31783ZM176.534 0.829458L177.324 1.44251L177.968 0.613053L177.178 0L176.388 -0.613053L175.744 0.216405L176.534 0.829458ZM177.178 0V1H178.099V0V-1H177.178V0ZM179.942 0V1H180.863V0V-1H179.942V0ZM180.863 0L179.889 0.225657L180.167 1.42482L181.141 1.19917L182.115 0.973511L181.837 -0.225657L180.863 0ZM181.697 3.5975L180.722 3.82316L181 5.02232L181.974 4.79667L182.948 4.57101L182.671 3.37184L181.697 3.5975ZM181.974 4.79667L180.996 5.0059L181.272 6.2951L182.25 6.08587L183.228 5.87664L182.952 4.58744L181.974 4.79667ZM182.802 8.66427L181.824 8.8735L182.1 10.1627L183.078 9.95347L184.056 9.74424L183.78 8.45504L182.802 8.66427ZM183.078 9.95347L182.09 10.1132L182.366 11.8181L183.354 11.6584L184.341 11.4986L184.065 9.79375L183.078 9.95347ZM183.905 15.0681L182.918 15.2278L183.194 16.9327L184.181 16.773L185.168 16.6133L184.892 14.9084L183.905 15.0681ZM184.181 16.773L183.482 17.4884L183.729 17.7297L184.428 17.0144L185.127 16.299L184.88 16.0576L184.181 16.773ZM184.922 17.4971L184.224 18.2125L184.471 18.4538L185.169 17.7385L185.868 17.0231L185.621 16.7817L184.922 17.4971ZM185.169 17.7385L185.963 18.3472L186.645 17.4583L185.851 16.8496L185.058 16.2409L184.376 17.1298L185.169 17.7385ZM187.215 15.0719L188.009 15.6807L188.691 14.7918L187.897 14.1831L187.104 13.5744L186.422 14.4632L187.215 15.0719ZM187.897 14.1831L188.301 15.0981L189.308 14.6536L188.905 13.7387L188.501 12.8237L187.494 13.2681L187.897 14.1831ZM190.92 12.8498L191.324 13.7648L192.331 13.3204L191.928 12.4054L191.524 11.4905L190.517 11.9349L190.92 12.8498ZM191.928 12.4054V13.4054H193.853V12.4054V11.4054H191.928V12.4054ZM197.703 12.4054V13.4054H199.628V12.4054V11.4054H197.703V12.4054ZM199.628 12.4054H198.628V12.7905H199.628H200.628V12.4054H199.628ZM199.628 13.5605H198.628V13.9456H199.628H200.628V13.5605H199.628ZM199.628 13.9456L198.698 13.5785L198.254 14.7049L199.184 15.0719L200.114 15.439L200.559 14.3126L199.628 13.9456ZM198.295 17.3247L197.365 16.9577L196.921 18.084L197.851 18.4511L198.781 18.8181L199.225 17.6917L198.295 17.3247ZM197.851 18.4511L197.099 17.7921L195.853 19.2135L196.606 19.8724L197.358 20.5314L198.603 19.11L197.851 18.4511ZM194.115 22.7152L193.363 22.0562L192.118 23.4776L192.87 24.1366L193.622 24.7955L194.868 23.3741L194.115 22.7152ZM192.87 24.1366L192.327 23.2967L191.824 23.6224L192.366 24.4622L192.909 25.302L193.413 24.9764L192.87 24.1366ZM191.359 25.1135L190.816 24.2737L190.312 24.5993L190.855 25.4392L191.398 26.279L191.902 25.9533L191.359 25.1135ZM190.855 25.4392L189.86 25.5425L189.891 25.8375L190.886 25.7342L191.88 25.6308L191.85 25.3358L190.855 25.4392ZM190.947 26.3242L189.952 26.4275L189.983 26.7225L190.978 26.6192L191.972 26.5158L191.942 26.2208L190.947 26.3242ZM190.978 26.6192L190.172 26.0262L189.343 27.1526L190.148 27.7456L190.953 28.3385L191.783 27.2122L190.978 26.6192ZM188.489 29.9983L187.684 29.4053L186.855 30.5317L187.66 31.1247L188.465 31.7176L189.294 30.5913L188.489 29.9983ZM187.66 31.1247L186.736 31.5068L187.299 32.8688L188.223 32.4866L189.147 32.1045L188.584 30.7425L187.66 31.1247ZM189.349 35.2106L188.425 35.5928L188.988 36.9548L189.912 36.5726L190.837 36.1905L190.273 34.8285L189.349 35.2106ZM189.912 36.5726L189.154 37.2247L190.25 38.4986L191.008 37.8465L191.766 37.1944L190.671 35.9205L189.912 36.5726ZM193.2 40.3942L192.442 41.0464L193.537 42.3202L194.295 41.6681L195.054 41.016L193.958 39.7421L193.2 40.3942ZM194.295 41.6681L193.369 42.0449L194.08 43.792L195.006 43.4151L195.932 43.0383L195.222 41.2913L194.295 41.6681ZM196.427 46.9092L195.501 47.286L196.212 49.033L197.138 48.6562L198.064 48.2794L197.354 46.5324L196.427 46.9092ZM197.138 48.6562L196.244 48.209L195.918 48.8603L196.812 49.3075L197.707 49.7547L198.033 49.1034L197.138 48.6562ZM196.161 50.6101L195.267 50.1629L194.941 50.8142L195.836 51.2615L196.73 51.7087L197.056 51.0574L196.161 50.6101ZM195.836 51.2615L195.512 50.3152L194.386 50.7002L194.709 51.6465L195.033 52.5927L196.159 52.2077L195.836 51.2615ZM192.456 52.4165L192.133 51.4703L191.007 51.8553L191.33 52.8016L191.654 53.7478L192.78 53.3628L192.456 52.4165ZM191.33 52.8016L191.675 51.8631L190.551 51.4493L190.206 52.3878L189.86 53.3263L190.985 53.7401L191.33 52.8016ZM187.957 51.5603L188.302 50.6218L187.178 50.208L186.832 51.1465L186.487 52.085L187.611 52.4988L187.957 51.5603ZM186.832 51.1465L187.225 50.2271L186.603 49.9608L186.21 50.8802L185.816 51.7997L186.439 52.0659L186.832 51.1465ZM184.964 50.3477L185.358 49.4283L184.735 49.162L184.342 50.0814L183.949 51.0009L184.571 51.2671L184.964 50.3477ZM184.342 50.0814L185.23 49.6224L184.817 48.8216L183.928 49.2807L183.04 49.7398L183.454 50.5405L184.342 50.0814ZM183.101 47.6793L183.989 47.2202L183.575 46.4195L182.687 46.8786L181.798 47.3376L182.212 48.1384L183.101 47.6793ZM182.687 46.8786L182.82 45.8875L181.071 45.6519L180.938 46.6429L180.804 47.634L182.553 47.8696L182.687 46.8786ZM177.44 46.1717L177.574 45.1807L175.825 44.945L175.691 45.9361L175.558 46.9271L177.307 47.1627L177.44 46.1717ZM175.691 45.9361L176.01 44.9883L175.389 44.7795L175.07 45.7273L174.752 46.6751L175.372 46.8839L175.691 45.9361ZM173.829 45.3097L174.148 44.3619L173.527 44.1531L173.208 45.1009L172.89 46.0487L173.51 46.2575L173.829 45.3097ZM173.208 45.1009L172.291 44.7026L170.825 48.0798L171.742 48.4781L172.659 48.8764L174.126 45.4992L173.208 45.1009ZM168.809 55.2325L167.892 54.8342L164.959 61.5886L165.877 61.9869L166.794 62.3852L169.727 55.6308L168.809 55.2325ZM162.944 68.7413L162.026 68.343L160.56 71.7202L161.477 72.1185L162.395 72.5168L163.861 69.1396L162.944 68.7413ZM161.477 72.1185L160.553 71.7364L159.398 74.53L160.322 74.9121L161.246 75.2942L162.401 72.5006L161.477 72.1185ZM158.012 80.4992L157.088 80.1171L154.778 85.7043L155.702 86.0864L156.626 86.4685L158.936 80.8813L158.012 80.4992ZM153.392 91.6736L152.467 91.2914L150.157 96.8786L151.081 97.2607L152.005 97.6428L154.316 92.0557L153.392 91.6736ZM148.771 102.848L147.847 102.466L146.692 105.259L147.616 105.641L148.54 106.024L149.695 103.23L148.771 102.848ZM147.616 105.641L146.78 105.093L144.973 107.848L145.81 108.396L146.646 108.944L148.452 106.19L147.616 105.641ZM142.197 113.905L141.361 113.357L137.748 118.866L138.584 119.415L139.42 119.963L143.033 114.454L142.197 113.905ZM134.971 124.924L134.135 124.376L132.329 127.13L133.165 127.679L134.001 128.227L135.807 125.472L134.971 124.924ZM133.165 127.679L132.264 127.244L131.908 127.984L132.808 128.418L133.709 128.852L134.066 128.113L133.165 127.679ZM132.096 129.897L131.195 129.463L130.839 130.202L131.74 130.636L132.64 131.07L132.997 130.331L132.096 129.897ZM131.74 130.636L130.914 130.071L130.204 131.11L131.029 131.674L131.854 132.239L132.565 131.201L131.74 130.636ZM129.608 133.751L128.782 133.186L128.072 134.224L128.897 134.789L129.722 135.354L130.433 134.316L129.608 133.751ZM128.897 134.789L127.9 134.709L127.781 136.19L128.778 136.27L129.775 136.35L129.894 134.869L128.897 134.789ZM128.541 139.232L127.544 139.152L127.425 140.632L128.422 140.712L129.419 140.792L129.537 139.311L128.541 139.232ZM128.422 140.712L127.442 140.911L127.886 143.102L128.866 142.904L129.846 142.705L129.402 140.514L128.422 140.712ZM129.755 147.287L128.775 147.485L129.219 149.677L130.199 149.478L131.179 149.279L130.735 147.088L129.755 147.287ZM130.199 149.478L129.309 149.933L129.96 151.207L130.851 150.752L131.741 150.297L131.09 149.023L130.199 149.478ZM132.153 153.3L131.263 153.755L131.914 155.029L132.805 154.574L133.695 154.118L133.044 152.844L132.153 153.3ZM132.805 154.574L131.822 154.388L131.141 157.986L132.124 158.172L133.106 158.358L133.787 154.759L132.805 154.574ZM130.762 165.369L129.779 165.183L128.417 172.38L129.4 172.566L130.382 172.752L131.744 165.555L130.762 165.369ZM128.038 179.763L127.055 179.577L126.374 183.175L127.357 183.361L128.339 183.547L129.02 179.949L128.038 179.763ZM127.357 183.361L126.42 183.01L126.066 183.957L127.002 184.307L127.939 184.658L128.293 183.712L127.357 183.361ZM126.294 186.2L125.357 185.849L125.003 186.796L125.939 187.146L126.876 187.497L127.23 186.551L126.294 186.2ZM125.939 187.146L124.942 187.077L124.823 188.796L125.82 188.865L126.818 188.934L126.937 187.215L125.939 187.146ZM125.583 192.301L124.585 192.232L124.466 193.951L125.464 194.02L126.462 194.089L126.58 192.37L125.583 192.301ZM125.464 194.02L124.504 193.741L123.971 195.578L124.932 195.857L125.892 196.135L126.425 194.298L125.464 194.02ZM123.866 199.531L122.906 199.252L122.373 201.089L123.334 201.368L124.294 201.646L124.827 199.809L123.866 199.531ZM123.334 201.368L122.407 200.991L121.193 203.982L122.119 204.358L123.046 204.734L124.26 201.744L123.334 201.368ZM119.69 210.339L118.764 209.962L117.549 212.953L118.476 213.329L119.402 213.705L120.617 210.715L119.69 210.339ZM118.476 213.329L117.48 213.243L117.233 216.126L118.229 216.212L119.225 216.297L119.472 213.414L118.476 213.329ZM117.735 221.978L116.738 221.892L116.244 227.658L117.24 227.744L118.237 227.829L118.731 222.063L117.735 221.978ZM116.746 233.51L115.75 233.424L115.256 239.19L116.252 239.276L117.248 239.361L117.743 233.595L116.746 233.51ZM115.758 245.042L114.761 244.956L114.514 247.839L115.511 247.925L116.507 248.01L116.754 245.127L115.758 245.042ZM115.511 247.925L114.594 248.325L114.801 248.798L115.718 248.398L116.634 247.997L116.427 247.524L115.511 247.925ZM116.131 249.344L115.215 249.745L115.422 250.218L116.338 249.817L117.254 249.417L117.048 248.943L116.131 249.344ZM116.338 249.817L115.359 249.616L114.945 251.631L115.924 251.832L116.904 252.033L117.318 250.018L116.338 249.817ZM115.097 255.863L114.117 255.662L113.704 257.677L114.683 257.878L115.663 258.079L116.076 256.064L115.097 255.863ZM114.683 257.878L113.687 257.963L113.931 260.814L114.927 260.728L115.924 260.643L115.679 257.793L114.683 257.878ZM115.416 266.429L114.419 266.515L114.908 272.215L115.904 272.13L116.901 272.045L116.412 266.344L115.416 266.429ZM116.393 277.831L115.396 277.916L115.885 283.617L116.881 283.532L117.878 283.446L117.389 277.745L116.393 277.831ZM117.37 289.233L116.373 289.318L116.862 295.019L117.858 294.933L118.855 294.848L118.366 289.147L117.37 289.233ZM118.347 300.634L117.35 300.72L117.595 303.57L118.591 303.485L119.587 303.399L119.343 300.549L118.347 300.634ZM118.591 303.485L117.696 303.932L118.407 305.353L119.302 304.906L120.196 304.459L119.485 303.037L118.591 303.485ZM120.723 307.749L119.829 308.196L120.539 309.617L121.434 309.17L122.328 308.723L121.617 307.301L120.723 307.749ZM121.434 309.17L120.438 309.263L120.557 310.537L121.552 310.444L122.548 310.351L122.429 309.077L121.434 309.17ZM121.79 312.992L120.794 313.085L120.913 314.358L121.909 314.266L122.904 314.173L122.786 312.899L121.79 312.992ZM121.909 314.266L121.063 314.799L122.89 317.696L123.736 317.162L124.582 316.628L122.754 313.732L121.909 314.266ZM127.391 322.955L126.545 323.488L128.373 326.385L129.219 325.851L130.064 325.317L128.237 322.421L127.391 322.955ZM129.219 325.851L128.343 326.334L128.883 327.313L129.759 326.83L130.634 326.347L130.094 325.368L129.219 325.851ZM130.839 328.788L129.964 329.271L130.504 330.25L131.379 329.767L132.255 329.283L131.715 328.305L130.839 328.788ZM131.379 329.767L130.382 329.696L130.344 330.236L131.341 330.307L132.339 330.378L132.377 329.837L131.379 329.767ZM131.265 331.387L130.267 331.316L130.229 331.857L131.226 331.927L132.224 331.998L132.262 331.458L131.265 331.387ZM131.226 331.927L131.212 330.927L127.077 330.985L127.09 331.985L127.104 332.985L131.24 332.927L131.226 331.927ZM118.819 332.1L118.805 331.1L114.669 331.157L114.683 332.157L114.697 333.157L118.833 333.1L118.819 332.1ZM114.683 332.157L115.593 331.742L115.296 331.091L114.386 331.506L113.476 331.921L113.773 332.572L114.683 332.157ZM113.792 330.203L114.702 329.789L114.405 329.137L113.495 329.552L112.586 329.967L112.882 330.618L113.792 330.203ZM113.495 329.552L114.288 330.161L114.88 329.391L114.087 328.782L113.294 328.173L112.703 328.943L113.495 329.552ZM115.271 327.242L116.064 327.851L116.656 327.081L115.863 326.472L115.07 325.862L114.478 326.632L115.271 327.242ZM115.863 326.472L116.853 326.332L116.677 325.086L115.687 325.227L114.697 325.367L114.873 326.612L115.863 326.472ZM115.334 322.736L116.325 322.596L116.148 321.351L115.158 321.491L114.168 321.631L114.344 322.876L115.334 322.736ZM115.158 321.491L116.015 320.976L114.77 318.904L113.913 319.419L113.056 319.933L114.301 322.006L115.158 321.491ZM111.423 315.273L112.28 314.758L111.035 312.686L110.178 313.2L109.32 313.715L110.566 315.788L111.423 315.273ZM110.178 313.2L111.174 313.116L110.998 311.043L110.001 311.128L109.005 311.213L109.181 313.285L110.178 313.2ZM109.649 306.982L110.645 306.898L110.469 304.825L109.473 304.91L108.476 304.994L108.652 307.067L109.649 306.982ZM109.473 304.91L110.467 304.805L110.171 301.984L109.176 302.089L108.182 302.193L108.478 305.014L109.473 304.91ZM108.583 296.446L109.578 296.342L108.985 290.699L107.99 290.804L106.996 290.908L107.589 296.551L108.583 296.446ZM107.398 285.161L108.392 285.057L107.799 279.414L106.805 279.519L105.81 279.623L106.403 285.266L107.398 285.161ZM106.212 273.877L107.206 273.772L106.613 268.13L105.619 268.234L104.624 268.339L105.217 273.981L106.212 273.877ZM105.026 262.592L106.021 262.487L105.724 259.666L104.73 259.771L103.735 259.875L104.032 262.696L105.026 262.592ZM104.73 259.771L105.701 259.534L105.435 258.439L104.463 258.675L103.492 258.911L103.758 260.007L104.73 259.771ZM103.931 256.483L104.903 256.247L104.636 255.152L103.665 255.388L102.693 255.624L102.959 256.72L103.931 256.483ZM103.665 255.388L104.664 255.347L104.555 252.701L103.556 252.742L102.557 252.783L102.665 255.429L103.665 255.388ZM103.339 247.449L104.338 247.408L104.121 242.116L103.122 242.157L102.123 242.198L102.34 247.49L103.339 247.449ZM102.905 236.865L103.904 236.824L103.687 231.532L102.688 231.573L101.688 231.614L101.906 236.906L102.905 236.865ZM102.47 226.281L103.47 226.24L103.361 223.594L102.362 223.635L101.363 223.676L101.471 226.322L102.47 226.281ZM102.362 223.635L101.364 223.578L101.171 226.939L102.169 226.997L103.168 227.054L103.36 223.692L102.362 223.635ZM101.784 233.72L100.786 233.663L100.401 240.387L101.399 240.444L102.398 240.501L102.783 233.778L101.784 233.72ZM101.014 247.168L100.016 247.111L99.8234 250.473L100.822 250.53L101.82 250.587L102.013 247.225L101.014 247.168ZM100.822 250.53L99.8814 250.19L99.3776 251.582L100.318 251.922L101.258 252.263L101.762 250.87L100.822 250.53ZM99.3104 254.708L98.37 254.367L97.8663 255.76L98.8066 256.1L99.747 256.44L100.251 255.048L99.3104 254.708ZM98.8066 256.1L97.8075 256.058L97.6816 259.034L98.6807 259.077L99.6798 259.119L99.8057 256.143L98.8066 256.1ZM98.4288 265.029L97.4297 264.987L97.1778 270.94L98.1769 270.982L99.176 271.024L99.4279 265.072L98.4288 265.029ZM97.925 276.935L96.9259 276.893L96.674 282.845L97.6731 282.888L98.6722 282.93L98.9241 276.977L97.925 276.935ZM97.4212 288.84L96.4221 288.798L96.1702 294.751L97.1693 294.793L98.1684 294.835L98.4203 288.883L97.4212 288.84ZM96.9174 300.746L95.9183 300.703L95.7923 303.68L96.7914 303.722L97.7905 303.764L97.9165 300.788L96.9174 300.746ZM96.7914 303.722L95.8223 303.969L96.2667 305.716L97.2358 305.469L98.205 305.223L97.7605 303.476L96.7914 303.722ZM98.1247 308.963L97.1555 309.21L97.6 310.957L98.5691 310.71L99.5382 310.464L99.0938 308.717L98.1247 308.963ZM98.5691 310.71H97.5691V312.814H98.5691H99.5691V310.71H98.5691ZM98.5691 317.02H97.5691V319.124H98.5691H99.5691V317.02H98.5691ZM98.5691 319.124L97.6761 319.574L99.4825 323.158L100.375 322.708L101.268 322.258L99.4621 318.673L98.5691 319.124ZM103.988 329.876L103.095 330.326L104.902 333.91L105.795 333.46L106.688 333.01L104.881 329.426L103.988 329.876ZM105.795 333.46L105.478 332.511L104.323 332.896L104.64 333.845L104.956 334.794L106.111 334.409L105.795 333.46ZM102.329 334.615L102.013 333.666L100.858 334.051L101.174 335L101.491 335.949L102.646 335.564L102.329 334.615ZM101.174 335V334H98.4503V335V336H101.174V335ZM93.0023 335V334H90.2784V335V336H93.0023V335ZM90.2784 335L91.1533 334.516L90.6782 333.658L89.8033 334.142L88.9284 334.626L89.4035 335.484L90.2784 335ZM88.8531 332.425L89.728 331.941L89.253 331.083L88.3781 331.567L87.5032 332.052L87.9782 332.91L88.8531 332.425ZM88.3781 331.567L89.1726 332.174L89.9427 331.167L89.1481 330.56L88.3536 329.952L87.5835 330.96L88.3781 331.567ZM90.6883 328.544L91.4828 329.152L92.2529 328.144L91.4584 327.537L90.6638 326.93L89.8938 327.937L90.6883 328.544ZM91.4584 327.537L92.4523 327.427L92.3048 326.094L91.3109 326.204L90.3169 326.314L90.4644 327.647L91.4584 327.537ZM91.0158 323.537L92.0098 323.427L91.8623 322.094L90.8683 322.204L89.8744 322.314L90.0219 323.647L91.0158 323.537ZM90.8683 322.204L91.7256 321.689L91.103 320.652L90.2458 321.167L89.3886 321.682L90.0111 322.719L90.8683 322.204ZM89.0006 319.095L89.8578 318.58L89.2353 317.543L88.3781 318.058L87.5209 318.573L88.1434 319.61L89.0006 319.095ZM88.3781 318.058L89.3778 318.036L89.3203 315.488L88.3206 315.511L87.3208 315.533L87.3783 318.081L88.3781 318.058ZM88.2057 310.415L89.2054 310.393L89.1479 307.845L88.1482 307.867L87.1485 307.89L87.2059 310.438L88.2057 310.415ZM88.1482 307.867L89.1482 307.865L89.1405 304.763L88.1405 304.765L87.1405 304.768L87.1482 307.87L88.1482 307.867ZM88.1252 298.561L89.1252 298.558L89.1099 292.353L88.1099 292.356L87.1099 292.358L87.1252 298.563L88.1252 298.561ZM88.0946 286.151L89.0946 286.149L89.0792 279.944L88.0792 279.947L87.0793 279.949L87.0946 286.154L88.0946 286.151ZM88.0639 273.742L89.0639 273.74L89.0486 267.535L88.0486 267.537L87.0486 267.54L87.0639 273.744L88.0639 273.742ZM88.0333 261.333L89.0333 261.33L89.0256 258.228L88.0256 258.23L87.0256 258.233L87.0333 261.335L88.0333 261.333ZM88.0256 258.23L88.9934 257.979L88.639 256.617L87.6712 256.868L86.7035 257.12L87.0578 258.482L88.0256 258.23ZM86.9624 254.144L87.9302 253.893L87.5758 252.531L86.608 252.783L85.6403 253.034L85.9947 254.396L86.9624 254.144ZM86.608 252.783L87.6072 252.824L87.7178 250.189L86.7187 250.147L85.7196 250.105L85.6089 252.741L86.608 252.783ZM86.9399 244.875L87.939 244.917L88.1603 239.645L87.1612 239.603L86.1621 239.561L85.9408 244.833L86.9399 244.875ZM87.3824 234.331L88.3816 234.373L88.6028 229.102L87.6037 229.06L86.6046 229.018L86.3833 234.29L87.3824 234.331ZM87.8249 223.788L88.8241 223.83L89.0453 218.558L88.0462 218.516L87.0471 218.474L86.8258 223.746L87.8249 223.788ZM88.2674 213.244L89.2666 213.286L89.3772 210.651L88.3781 210.609L87.3789 210.567L87.2683 213.203L88.2674 213.244ZM88.3781 210.609L89.3773 210.647L89.5267 206.766L88.5275 206.728L87.5282 206.689L87.3788 210.57L88.3781 210.609ZM88.8263 198.966L89.8256 199.004L89.975 195.123L88.9758 195.085L87.9765 195.046L87.8271 198.927L88.8263 198.966ZM88.9758 195.085L89.0972 194.092L87.1721 193.856L87.0506 194.849L86.9291 195.842L88.8543 196.077L88.9758 195.085ZM83.2002 194.378L83.3217 193.385L81.3965 193.15L81.275 194.142L81.1536 195.135L83.0787 195.37L83.2002 194.378ZM81.275 194.142L80.9044 193.213L79.7187 193.687L80.0893 194.615L80.4599 195.544L81.6457 195.071L81.275 194.142ZM77.7178 195.562L77.3472 194.633L76.1614 195.106L76.532 196.035L76.9026 196.964L78.0884 196.49L77.7178 195.562ZM76.532 196.035L76.5206 195.035L74.0035 195.064L74.0149 196.064L74.0263 197.063L76.5434 197.035L76.532 196.035ZM68.9807 196.121L68.9693 195.121L66.4522 195.15L66.4636 196.15L66.475 197.15L68.9921 197.121L68.9807 196.121ZM66.4636 196.15L66.8066 195.21L64.3776 194.323L64.0346 195.263L63.6917 196.202L66.1206 197.089L66.4636 196.15ZM59.1767 193.489L59.5197 192.55L57.0907 191.663L56.7477 192.602L56.4047 193.541L58.8337 194.428L59.1767 193.489ZM56.7477 192.602L55.7865 192.326L55.1065 194.696L56.0677 194.972L57.0289 195.247L57.7089 192.878L56.7477 192.602ZM54.7076 199.711L53.7464 199.435L53.0663 201.805L54.0275 202.08L54.9887 202.356L55.6688 199.987L54.7076 199.711ZM54.0275 202.08L53.1509 201.599L51.3139 204.946L52.1905 205.427L53.0671 205.908L54.9042 202.562L54.0275 202.08ZM48.5164 212.12L47.6398 211.639L45.8027 214.985L46.6793 215.467L47.5559 215.948L49.393 212.601L48.5164 212.12ZM46.6793 215.467L45.7297 215.153L44.8112 217.937L45.7608 218.25L46.7104 218.563L47.6289 215.78L46.6793 215.467ZM43.9237 223.817L42.9741 223.503L41.137 229.07L42.0867 229.383L43.0363 229.697L44.8733 224.13L43.9237 223.817ZM40.2496 234.95L39.3 234.637L38.3814 237.42L39.3311 237.734L40.2807 238.047L41.1992 235.264L40.2496 234.95ZM39.3311 237.734L38.3435 237.576L37.6635 241.842L38.651 242L39.6386 242.157L40.3186 237.891L39.3311 237.734ZM37.291 250.532L36.3034 250.374L35.6234 254.64L36.6109 254.798L37.5985 254.955L38.2785 250.689L37.291 250.532ZM36.6109 254.798L35.6275 254.979L36.2199 258.192L37.2033 258.011L38.1868 257.83L37.5944 254.616L36.6109 254.798ZM38.3881 264.438L37.4047 264.619L38.5895 271.046L39.5729 270.865L40.5564 270.684L39.3716 264.257L38.3881 264.438ZM40.7577 277.292L39.7743 277.473L40.9591 283.9L41.9425 283.718L42.9259 283.537L41.7412 277.11L40.7577 277.292ZM43.1273 290.145L42.1439 290.327L43.3287 296.753L44.3121 296.572L45.2955 296.391L44.1107 289.964L43.1273 290.145ZM45.4969 302.999L44.5135 303.18L45.1059 306.394L46.0893 306.212L47.0727 306.031L46.4803 302.818L45.4969 302.999ZM46.0893 306.212L45.1625 306.588L45.6663 307.831L46.5931 307.456L47.5199 307.08L47.0161 305.837L46.0893 306.212ZM47.6007 309.942L46.6739 310.318L47.1777 311.561L48.1045 311.185L49.0313 310.81L48.5275 309.566L47.6007 309.942ZM48.1045 311.185H47.1045V312.164H48.1045H49.1045V311.185H48.1045ZM48.1045 314.122H47.1045V315.101H48.1045H49.1045V314.122H48.1045ZM48.1045 315.101L47.2267 315.58L49.3587 319.488L50.2366 319.009L51.1144 318.53L48.9824 314.622L48.1045 315.101ZM54.5007 326.824L53.6229 327.303L55.7549 331.211L56.6328 330.732L57.5106 330.253L55.3785 326.345L54.5007 326.824ZM56.6328 330.732L56.2201 329.821L55.3025 330.237L55.7152 331.148L56.1278 332.059L57.0454 331.643L56.6328 330.732ZM53.8801 331.979L53.4674 331.068L52.5498 331.484L52.9625 332.395L53.3751 333.306L54.2927 332.89L53.8801 331.979ZM52.9625 332.395V331.395H50.3554V332.395V333.395H52.9625V332.395ZM45.1411 332.395V331.395H42.534V332.395V333.395H45.1411V332.395ZM42.534 332.395L43.3663 331.841L42.8932 331.13L42.0608 331.684L41.2284 332.238L41.7016 332.949L42.534 332.395ZM41.1145 330.263L41.9469 329.709L41.4737 328.998L40.6413 329.552L39.8089 330.106L40.2821 330.817L41.1145 330.263ZM40.6413 329.552L41.6003 329.836L42.0734 328.236L41.1145 327.953L40.1556 327.669L39.6824 329.268L40.6413 329.552ZM42.0608 324.753L43.0197 325.037L43.4929 323.438L42.534 323.154L41.575 322.87L41.1019 324.47L42.0608 324.753ZM42.534 323.154L43.375 322.613L42.0417 320.54L41.2007 321.081L40.3597 321.622L41.6929 323.695L42.534 323.154ZM38.5342 316.936L39.3752 316.395L38.042 314.322L37.2009 314.863L36.3599 315.404L37.6932 317.477L38.5342 316.936ZM37.2009 314.863L38.1808 314.664L37.6004 311.814L36.6205 312.014L35.6406 312.214L36.2211 315.063L37.2009 314.863ZM35.4596 306.315L36.4395 306.116L35.2787 300.417L34.2988 300.617L33.3189 300.816L34.4798 306.515L35.4596 306.315ZM33.1379 294.918L34.1178 294.719L32.957 289.02L31.9771 289.22L30.9972 289.419L32.1581 295.118L33.1379 294.918ZM30.8162 283.521L31.7961 283.322L30.6353 277.623L29.6554 277.823L28.6755 278.022L29.8364 283.721L30.8162 283.521ZM28.4945 272.124L29.4744 271.925L28.3136 266.226L27.3337 266.426L26.3538 266.625L27.5147 272.324L28.4945 272.124ZM26.1728 260.727L27.1527 260.528L26.5723 257.678L25.5924 257.878L24.6125 258.078L25.193 260.927L26.1728 260.727ZM25.5924 257.878L26.4903 257.438L25.0096 254.417L24.1116 254.857L23.2137 255.297L24.6945 258.318L25.5924 257.878ZM21.1501 248.815L22.048 248.375L20.5673 245.354L19.6694 245.794L18.7714 246.235L20.2522 249.255L21.1501 248.815ZM19.6694 245.794L18.7217 245.475L17.6547 248.644L18.6024 248.963L19.5501 249.282L20.6171 246.114L19.6694 245.794ZM16.4684 255.3L15.5207 254.98L14.4537 258.149L15.4014 258.468L16.3491 258.787L17.4161 255.619L16.4684 255.3ZM15.4014 258.468L14.4066 258.366L14.0881 261.484L15.0829 261.585L16.0778 261.687L16.3962 258.57L15.4014 258.468ZM14.446 267.819L13.4512 267.718L12.8142 273.952L13.8091 274.054L14.8039 274.155L15.4408 267.921L14.446 267.819ZM13.1721 280.288L12.1773 280.186L11.5404 286.421L12.5352 286.522L13.53 286.624L14.1669 280.39L13.1721 280.288ZM11.8983 292.757L10.9034 292.655L10.2665 298.889L11.2613 298.991L12.2561 299.093L12.8931 292.858L11.8983 292.757ZM10.6244 305.225L9.62956 305.124L9.31109 308.241L10.3059 308.343L11.3007 308.444L11.6192 305.327L10.6244 305.225ZM10.3059 308.343L9.33586 308.585L9.63278 309.771L10.6028 309.528L11.5729 309.285L11.276 308.1L10.3059 308.343ZM11.1967 311.9L10.2266 312.143L10.5235 313.328L11.4936 313.086L12.4636 312.843L12.1667 311.657L11.1967 311.9ZM11.4936 313.086L10.4945 313.127L10.5251 313.866L11.5242 313.825L12.5234 313.784L12.4927 313.044L11.4936 313.086ZM11.5855 315.304L10.5864 315.345L10.617 316.085L11.6162 316.043L12.6153 316.002L12.5847 315.262L11.5855 315.304ZM11.6162 316.043L10.7062 316.458L12.3939 320.161L13.3038 319.746L14.2138 319.331L12.5261 315.629L11.6162 316.043ZM16.6791 327.152L15.7692 327.567L17.4568 331.269L18.3667 330.855L19.2767 330.44L17.589 326.737L16.6791 327.152ZM18.3667 330.855L17.4729 330.406L17.176 330.998L18.0698 331.447L18.9637 331.895L19.2606 331.303L18.3667 330.855ZM17.476 332.63L16.5821 332.182L16.2852 332.774L17.1791 333.222L18.0729 333.671L18.3698 333.079L17.476 332.63ZM17.1791 333.222L17.1426 332.223L13.8861 332.342L13.9226 333.341L13.959 334.34L17.2155 334.222L17.1791 333.222ZM7.40953 333.579L7.37308 332.579L4.11656 332.698L4.15301 333.697L4.18945 334.697L7.44597 334.578L7.40953 333.579ZM4.15301 333.697L4.98983 333.15L4.48603 332.38L3.6492 332.927L2.81238 333.475L3.31618 334.245L4.15301 333.697ZM2.6416 331.387L3.47842 330.84L2.97462 330.07L2.13779 330.617L1.30097 331.165L1.80477 331.935L2.6416 331.387ZM2.13779 330.617L3.01868 331.09L3.63934 329.935L2.75845 329.462L1.87756 328.989L1.2569 330.144L2.13779 330.617ZM3.99977 327.152L4.88066 327.625L5.50132 326.47L4.62042 325.997L3.73953 325.523L3.11888 326.678L3.99977 327.152ZM4.62042 325.997L5.54757 325.622L4.54188 323.134L3.61473 323.508L2.68759 323.883L3.69328 326.371L4.62042 325.997ZM1.60336 318.532L2.5305 318.157L1.52481 315.669L0.597666 316.043L-0.329476 316.418L0.676214 318.906L1.60336 318.532ZM0.597666 316.043L1.58979 315.918L1.44038 314.734L0.44825 314.859L-0.543879 314.985L-0.394463 316.168L0.597666 316.043ZM0.149417 312.492L1.14155 312.367L0.992129 311.183L0 311.308L-0.992129 311.433L-0.842712 312.617L0.149417 312.492ZM0 311.308L0.954676 311.606L1.37036 310.272L0.415682 309.975L-0.538994 309.677L-0.954676 311.01L0 311.308ZM1.24705 307.308L2.20172 307.606L2.6174 306.272L1.66273 305.975L0.708051 305.677L0.292369 307.01L1.24705 307.308ZM1.66273 305.975L2.6581 306.071L2.95406 303.005L1.95869 302.909L0.963315 302.813L0.667355 305.879L1.66273 305.975ZM2.55061 296.779L3.54598 296.875L4.1379 290.744L3.14253 290.648L2.14715 290.552L1.55523 296.682L2.55061 296.779ZM3.73445 284.517L4.72982 284.613L5.32174 278.482L4.32636 278.386L3.33099 278.29L2.73907 284.421L3.73445 284.517ZM4.91828 272.255L5.91366 272.351L6.50558 266.22L5.5102 266.124L4.51483 266.028L3.92291 272.159L4.91828 272.255ZM6.10212 259.993L7.0975 260.089L7.39345 257.024L6.39808 256.928L5.40271 256.832L5.10675 259.897L6.10212 259.993ZM6.39808 256.928L7.38226 256.751L6.96945 254.458L5.98527 254.635L5.00109 254.812L5.41391 257.105L6.39808 256.928ZM5.15965 250.049L6.14383 249.872L5.3182 245.286L4.33403 245.463L3.34985 245.64L4.17547 250.226L5.15965 250.049ZM3.5084 240.877L4.49258 240.7L4.07977 238.407L3.09559 238.584L2.11141 238.761L2.52423 241.054L3.5084 240.877ZM3.09559 238.584L3.99002 239.031L4.07431 238.863L3.17988 238.415L2.28545 237.968L2.20116 238.137L3.09559 238.584ZM3.34845 238.078L4.24288 238.526L4.32717 238.357L3.43274 237.91L2.53831 237.463L2.45402 237.631L3.34845 238.078ZM3.43274 237.91L4.33253 238.346L4.36318 238.283L3.46339 237.847L2.5636 237.41L2.53295 237.473L3.43274 237.91ZM3.52469 237.72L4.42448 238.156L4.45513 238.093L3.55534 237.657L2.65555 237.221L2.6249 237.284L3.52469 237.72ZM2.1991 233.596L0.206077 233.429L0.173165 233.822L0.29199 234.198L2.1991 233.596ZM2.7508 227.006L1.258 225.675L0.813495 226.174L0.75777 226.839L2.7508 227.006ZM6.09159 223.259L7.58439 224.59L8.15578 223.949L8.08473 223.094L6.09159 223.259ZM3.48638 191.882L5.47952 191.716L5.47714 191.688L5.47394 191.659L3.48638 191.882ZM2.1991 180.396L0.242341 179.982L0.175609 180.298L0.211548 180.619L2.1991 180.396ZM5.30237 165.715L3.71286 164.501L3.43894 164.859L3.3456 165.301L5.30237 165.715ZM16.3209 151.286L14.9265 149.853L14.8208 149.955L14.7314 150.073L16.3209 151.286ZM29.9906 137.992L29.5982 136.031L29.0194 136.147L28.5962 136.558L29.9906 137.992ZM48.9857 134.192L49.3781 136.153L49.4753 136.133L49.57 136.104L48.9857 134.192ZM62.6554 130.016L63.2397 131.928L63.5427 131.836L63.8023 131.654L62.6554 130.016ZM77.8499 119.38L78.9968 121.019L79.4539 120.699L79.6793 120.188L77.8499 119.38ZM85.0679 103.044L83.9641 101.376L83.4754 101.7L83.2385 102.236L85.0679 103.044ZM98.8449 93.9257L99.9487 95.5935L99.9888 95.5669L100.028 95.5385L98.8449 93.9257ZM116.974 80.6314L118.157 82.2442L118.378 82.0818L118.548 81.8657L116.974 80.6314ZM158.382 27.8375L159.955 29.0718L161.337 27.3102L159.431 26.1351L158.382 27.8375ZM155.983 26.3587L157.033 24.6563L156.867 24.554L156.685 24.4856L155.983 26.3587ZM151.562 24.7036L149.916 25.8399L150.273 26.3565L150.861 26.5766L151.562 24.7036ZM146.214 16.9569L144.257 16.5457L144.08 17.3863L144.568 18.0932L146.214 16.9569ZM146.949 13.4552V11.4552H145.326L144.992 13.044L146.949 13.4552ZM153.033 13.4552L153.929 11.6671L153.506 11.4552H153.033V13.4552ZM156.719 15.3018L158.713 15.1426L158.623 14.0187L157.615 13.5137L156.719 15.3018ZM157.087 19.9069L155.093 20.0662L155.215 21.5915L156.719 21.8728L157.087 19.9069ZM160.037 20.4586L159.669 22.4245L160.532 22.5859L161.235 22.0598L160.037 20.4586ZM163.722 17.7001L164.921 19.3013L165.996 18.4967L165.658 17.197L163.722 17.7001ZM162.619 13.4552L160.646 13.7832L160.661 13.8716L160.683 13.9583L162.619 13.4552ZM161.516 6.81955L163.489 6.49149L163.39 5.89716L162.979 5.45632L161.516 6.81955ZM159.117 4.24497L157.437 3.16034L156.592 4.46873L157.654 5.60821L159.117 4.24497ZM161.14 1.11106V-0.888943H160.051L159.46 0.026424L161.14 1.11106ZM163.722 1.11106L165.206 -0.23028L164.61 -0.888943H163.722V1.11106ZM165.385 2.95003H167.385V2.17992L166.869 1.60869L165.385 2.95003ZM165.385 6.08395H163.385V6.61931L163.653 7.08308L165.385 6.08395ZM168.151 10.8806L166.419 11.8797L166.581 12.1613L166.824 12.377L168.151 10.8806ZM171.469 13.823L170.142 15.3193L170.886 15.9792L171.861 15.7841L171.469 13.823ZM174.228 13.2713L174.62 15.2324L175.555 15.0453L175.999 14.2006L174.228 13.2713ZM176.258 9.40178L178.029 10.3311L178.258 9.89465V9.40178H176.258ZM176.258 6.63564H178.258V6.16448L178.048 5.74287L176.258 6.63564ZM174.603 3.31783L173.023 2.09173L172.252 3.08526L172.813 4.2106L174.603 3.31783ZM177.178 0V-2H176.198L175.598 -1.22611L177.178 0ZM180.863 0L182.812 -0.451313L182.453 -2H180.863V0ZM181.974 4.79667L183.93 4.37821L183.926 4.36175L183.923 4.34536L181.974 4.79667ZM183.078 9.95347L185.052 9.63403L185.044 9.58428L185.033 9.53501L183.078 9.95347ZM184.181 16.773L182.207 17.0924L182.312 17.7431L182.784 18.2037L184.181 16.773ZM185.169 17.7385L183.772 19.1692L185.384 20.7441L186.756 18.9559L185.169 17.7385ZM187.897 14.1831L187.09 12.3532L186.622 12.5597L186.311 12.9657L187.897 14.1831ZM191.928 12.4054V10.4054H191.506L191.121 10.5755L191.928 12.4054ZM199.628 12.4054H201.628V10.4054H199.628V12.4054ZM199.628 13.9456L201.489 14.6796L201.628 14.3259V13.9456H199.628ZM197.851 18.4511L199.355 19.7689L199.584 19.5079L199.711 19.1851L197.851 18.4511ZM192.87 24.1366L193.956 25.8162L194.19 25.6646L194.375 25.4544L192.87 24.1366ZM190.855 25.4392L189.769 23.7595L188.739 24.4256L188.866 25.6459L190.855 25.4392ZM190.978 26.6192L192.588 27.8051L193.047 27.1821L192.967 26.4125L190.978 26.6192ZM187.66 31.1247L186.049 29.9387L185.381 30.8468L185.812 31.8889L187.66 31.1247ZM189.912 36.5726L188.064 37.3369L188.187 37.6335L188.396 37.8768L189.912 36.5726ZM194.295 41.6681L196.148 40.9145L196.025 40.6117L195.812 40.3639L194.295 41.6681ZM197.138 48.6562L198.927 49.5506L199.332 48.741L198.991 47.9026L197.138 48.6562ZM195.836 51.2615L196.482 53.1539L197.258 52.8889L197.624 52.1559L195.836 51.2615ZM191.33 52.8016L190.639 54.6785L191.305 54.9236L191.977 54.6941L191.33 52.8016ZM186.832 51.1465L186.046 52.9854L186.093 53.0057L186.142 53.0235L186.832 51.1465ZM184.342 50.0814L182.565 50.9996L182.895 51.6378L183.555 51.9203L184.342 50.0814ZM182.687 46.8786L184.464 45.9604L183.986 45.0355L182.954 44.8965L182.687 46.8786ZM175.691 45.9361L175.053 47.8317L175.235 47.8926L175.424 47.9182L175.691 45.9361ZM173.208 45.1009L173.846 43.2053L172.105 42.6197L171.374 44.3043L173.208 45.1009ZM161.477 72.1185L159.643 71.3219L159.636 71.338L159.629 71.3543L161.477 72.1185ZM147.616 105.641L149.289 106.738L149.392 106.58L149.464 106.406L147.616 105.641ZM133.165 127.679L131.492 126.582L131.42 126.692L131.363 126.81L133.165 127.679ZM131.74 130.636L133.39 131.766L133.476 131.641L133.541 131.504L131.74 130.636ZM128.897 134.789L127.246 133.66L126.946 134.099L126.903 134.629L128.897 134.789ZM128.422 140.712L126.428 140.552L126.406 140.833L126.462 141.11L128.422 140.712ZM130.199 149.478L128.239 149.876L128.294 150.144L128.419 150.389L130.199 149.478ZM132.805 154.574L134.77 154.945L134.897 154.273L134.585 153.663L132.805 154.574ZM127.357 183.361L129.23 184.063L129.29 183.902L129.322 183.733L127.357 183.361ZM125.939 187.146L124.066 186.445L123.964 186.718L123.944 187.008L125.939 187.146ZM125.464 194.02L127.385 194.576L127.445 194.371L127.459 194.157L125.464 194.02ZM123.334 201.368L125.187 202.12L125.226 202.024L125.255 201.925L123.334 201.368ZM118.476 213.329L116.623 212.576L116.509 212.857L116.483 213.158L118.476 213.329ZM115.511 247.925L113.518 247.754L113.475 248.26L113.678 248.726L115.511 247.925ZM116.338 249.817L118.297 250.219L118.425 249.598L118.171 249.016L116.338 249.817ZM114.683 257.878L112.724 257.476L112.666 257.76L112.69 258.049L114.683 257.878ZM118.591 303.485L116.598 303.655L116.631 304.037L116.802 304.379L118.591 303.485ZM121.434 309.17L123.425 308.984L123.39 308.611L123.223 308.276L121.434 309.17ZM121.909 314.266L119.917 314.451L119.962 314.928L120.217 315.333L121.909 314.266ZM129.219 325.851L130.97 324.885L130.941 324.833L130.91 324.784L129.219 325.851ZM131.379 329.767L133.374 329.908L133.416 329.318L133.13 328.8L131.379 329.767ZM131.226 331.927L131.254 333.927L133.091 333.902L133.221 332.069L131.226 331.927ZM114.683 332.157L112.863 332.987L113.405 334.175L114.711 334.157L114.683 332.157ZM113.495 329.552L111.91 328.333L111.177 329.287L111.676 330.382L113.495 329.552ZM115.863 326.472L117.449 327.691L117.961 327.024L117.843 326.191L115.863 326.472ZM115.158 321.491L117.138 321.211L117.082 320.809L116.873 320.461L115.158 321.491ZM110.178 313.2L108.185 313.37L108.224 313.832L108.463 314.23L110.178 313.2ZM109.473 304.91L111.465 304.74L111.464 304.721L111.462 304.701L109.473 304.91ZM104.73 259.771L106.719 259.562L106.705 259.428L106.673 259.298L104.73 259.771ZM103.665 255.388L101.666 255.47L101.674 255.668L101.721 255.86L103.665 255.388ZM102.362 223.635L104.36 223.553L100.365 223.52L102.362 223.635ZM100.822 250.53L102.703 251.21L102.802 250.936L102.819 250.644L100.822 250.53ZM98.8066 256.1L96.9259 255.42L96.8214 255.709L96.8084 256.016L98.8066 256.1ZM96.7914 303.722L94.7932 303.638L94.7808 303.931L94.8531 304.215L96.7914 303.722ZM98.5691 310.71H100.569V310.46L100.507 310.217L98.5691 310.71ZM98.5691 319.124H96.5691V319.599L96.7831 320.024L98.5691 319.124ZM105.795 333.46L106.427 335.357L108.622 334.626L107.581 332.56L105.795 333.46ZM101.174 335V337H101.499L101.807 336.897L101.174 335ZM90.2784 335L88.5286 335.969L89.0995 337H90.2784V335ZM88.3781 331.567L86.789 330.353L85.9949 331.392L86.6283 332.536L88.3781 331.567ZM91.4584 327.537L93.0474 328.751L93.5344 328.114L93.4462 327.317L91.4584 327.537ZM90.8683 322.204L92.8562 321.984L92.8081 321.549L92.5828 321.174L90.8683 322.204ZM88.3781 318.058L86.3786 318.104L86.3905 318.634L86.6636 319.088L88.3781 318.058ZM88.1482 307.867L86.1482 307.872L86.1483 307.893L86.1487 307.913L88.1482 307.867ZM88.0256 258.23L90.0256 258.226L90.025 257.972L89.9612 257.727L88.0256 258.23ZM86.608 252.783L84.6098 252.699L84.5973 252.997L84.6725 253.286L86.608 252.783ZM88.3781 210.609L90.3763 210.693L90.3766 210.686L88.3781 210.609ZM88.9758 195.085L90.9743 195.162L91.0451 193.323L89.2187 193.099L88.9758 195.085ZM81.275 194.142L81.518 192.157L81.0096 192.095L80.5338 192.285L81.275 194.142ZM76.532 196.035L76.5548 198.035L76.9273 198.03L77.2733 197.892L76.532 196.035ZM66.4636 196.15L65.7776 198.028L66.121 198.154L66.4865 198.15L66.4636 196.15ZM56.7477 192.602L57.4337 190.723L55.4174 189.987L54.8253 192.05L56.7477 192.602ZM54.0275 202.08L55.7808 203.043L55.8883 202.847L55.9499 202.632L54.0275 202.08ZM46.6793 215.467L44.9261 214.504L44.8377 214.665L44.7801 214.84L46.6793 215.467ZM39.3311 237.734L37.4318 237.107L37.3814 237.26L37.356 237.419L39.3311 237.734ZM36.6109 254.798L34.6359 254.483L34.5818 254.822L34.6441 255.16L36.6109 254.798ZM46.0893 306.212L44.1225 306.575L44.1593 306.775L44.2357 306.964L46.0893 306.212ZM48.1045 311.185H50.1045V310.795L49.9581 310.434L48.1045 311.185ZM48.1045 315.101H46.1045V315.611L46.3488 316.059L48.1045 315.101ZM56.6328 330.732L57.4581 332.554L59.4201 331.665L58.3885 329.774L56.6328 330.732ZM52.9625 332.395V334.395H53.3944L53.7878 334.217L52.9625 332.395ZM42.534 332.395L40.8692 333.503L41.4628 334.395H42.534V332.395ZM40.6413 329.552L38.7235 328.985L38.4581 329.882L38.9766 330.66L40.6413 329.552ZM42.534 323.154L44.4518 323.721L44.7117 322.843L44.216 322.072L42.534 323.154ZM37.2009 314.863L35.2412 315.262L35.316 315.63L35.5189 315.945L37.2009 314.863ZM25.5924 257.878L27.5522 257.479L27.501 257.228L27.3883 256.998L25.5924 257.878ZM19.6694 245.794L21.4652 244.914L19.3255 240.549L17.774 245.156L19.6694 245.794ZM15.4014 258.468L13.506 257.83L13.4345 258.042L13.4118 258.265L15.4014 258.468ZM10.3059 308.343L8.31627 308.139L8.28062 308.488L8.36581 308.828L10.3059 308.343ZM11.4936 313.086L13.4919 313.003L13.4834 312.798L13.4337 312.6L11.4936 313.086ZM11.6162 316.043L9.61789 316.126L9.63408 316.517L9.79628 316.873L11.6162 316.043ZM18.3667 330.855L20.1544 331.751L20.5835 330.896L20.1866 330.025L18.3667 330.855ZM17.1791 333.222L17.252 335.221L18.4357 335.178L18.9668 334.119L17.1791 333.222ZM4.15301 333.697L2.47936 334.792L3.09752 335.737L4.2259 335.696L4.15301 333.697ZM2.13779 330.617L0.376011 329.67L-0.186552 330.717L0.464145 331.712L2.13779 330.617ZM4.62042 325.997L6.38221 326.943L6.82621 326.117L6.47471 325.247L4.62042 325.997ZM0.597666 316.043L-1.38659 316.294L-1.35404 316.552L-1.25662 316.793L0.597666 316.043ZM0 311.308L-1.90935 310.713L-2.03866 311.127L-1.98426 311.558L0 311.308ZM1.66273 305.975L3.57208 306.57L3.63361 306.373L3.65347 306.167L1.66273 305.975ZM6.39808 256.928L8.38883 257.12L8.41536 256.845L8.36644 256.573L6.39808 256.928ZM3.09559 238.584L1.30674 237.69L1.00945 238.284L1.12724 238.938L3.09559 238.584ZM3.43274 237.91L5.22159 238.804L5.22702 238.793L5.23231 238.782L3.43274 237.91ZM3.54002 237.841L5.44714 237.238L5.11191 236.177L3.20479 236.78L1.29768 237.382L1.63291 238.443L3.54002 237.841ZM2.53433 234.657L4.44145 234.055L4.10622 232.993L2.1991 233.596L0.29199 234.198L0.62722 235.259L2.53433 234.657ZM2.1991 233.596L4.19213 233.763L4.33005 232.115L2.33703 231.948L0.344 231.782L0.206077 233.429L2.1991 233.596ZM2.61287 228.654L4.6059 228.82L4.74382 227.173L2.7508 227.006L0.75777 226.839L0.619847 228.487L2.61287 228.654ZM2.7508 227.006L4.2436 228.337L5.0788 227.4L3.586 226.069L2.0932 224.738L1.258 225.675L2.7508 227.006ZM5.25639 224.196L6.74919 225.527L7.58439 224.59L6.09159 223.259L4.59879 221.928L3.76359 222.865L5.25639 224.196ZM6.09159 223.259L8.08473 223.094L7.86763 220.479L5.87449 220.644L3.88135 220.81L4.09845 223.425L6.09159 223.259ZM5.44029 215.415L7.43343 215.249L6.99923 210.02L5.00609 210.185L3.01295 210.351L3.44715 215.58L5.44029 215.415ZM4.57189 204.956L6.56503 204.79L6.13083 199.561L4.13768 199.726L2.14454 199.892L2.57874 205.121L4.57189 204.956ZM3.70348 194.497L5.69662 194.331L5.47952 191.716L3.48638 191.882L1.49324 192.047L1.71034 194.662L3.70348 194.497ZM3.48638 191.882L5.47394 191.659L5.15212 188.788L3.16456 189.01L1.17701 189.233L1.49882 192.104L3.48638 191.882ZM2.52092 183.267L4.50848 183.045L4.18666 180.173L2.1991 180.396L0.211548 180.619L0.533367 183.49L2.52092 183.267ZM2.1991 180.396L4.15587 180.809L4.93168 177.139L2.97492 176.726L1.01816 176.312L0.242341 179.982L2.1991 180.396ZM4.52655 169.385L6.48331 169.799L7.25913 166.128L5.30237 165.715L3.3456 165.301L2.56979 168.971L4.52655 169.385ZM5.30237 165.715L6.89187 166.929L8.26919 165.125L6.67968 163.911L5.09018 162.697L3.71286 164.501L5.30237 165.715ZM9.43431 160.304L11.0238 161.518L13.7785 157.911L12.1889 156.697L10.5994 155.483L7.84481 159.09L9.43431 160.304ZM14.9436 153.09L16.5331 154.304L17.9104 152.5L16.3209 151.286L14.7314 150.073L13.3541 151.876L14.9436 153.09ZM16.3209 151.286L17.7153 152.72L19.424 151.058L18.0296 149.625L16.6352 148.191L14.9265 149.853L16.3209 151.286ZM21.447 146.301L22.8414 147.735L26.2589 144.411L24.8645 142.977L23.4701 141.544L20.0527 144.867L21.447 146.301ZM28.2819 139.654L29.6763 141.088L31.385 139.426L29.9906 137.992L28.5962 136.558L26.8875 138.22L28.2819 139.654ZM29.9906 137.992L30.383 139.953L32.7574 139.478L32.365 137.517L31.9726 135.556L29.5982 136.031L29.9906 137.992ZM37.1138 136.567L37.5062 138.528L42.2549 137.578L41.8625 135.617L41.4702 133.656L36.7214 134.606L37.1138 136.567ZM46.6113 134.667L47.0037 136.628L49.3781 136.153L48.9857 134.192L48.5933 132.23L46.2189 132.706L46.6113 134.667ZM48.9857 134.192L49.57 136.104L52.9875 135.06L52.4031 133.148L51.8188 131.235L48.4014 132.279L48.9857 134.192ZM59.238 131.06L59.8223 132.972L63.2397 131.928L62.6554 130.016L62.0711 128.103L58.6537 129.147L59.238 131.06ZM62.6554 130.016L63.8023 131.654L65.7016 130.325L64.5547 128.686L63.4079 127.048L61.5085 128.377L62.6554 130.016ZM68.3534 126.027L69.5002 127.666L73.2989 125.007L72.152 123.368L71.0051 121.73L67.2065 124.389L68.3534 126.027ZM75.9506 120.71L77.0975 122.348L78.9968 121.019L77.8499 119.38L76.7031 117.742L74.8037 119.071L75.9506 120.71ZM77.8499 119.38L79.6793 120.188L81.4838 116.104L79.6544 115.296L77.825 114.488L76.0205 118.572L77.8499 119.38ZM83.2634 107.128L85.0928 107.936L86.8973 103.852L85.0679 103.044L83.2385 102.236L81.434 106.32L83.2634 107.128ZM85.0679 103.044L86.1717 104.712L89.616 102.432L88.5122 100.764L87.4083 99.0966L83.9641 101.376L85.0679 103.044ZM95.4007 96.2052L96.5045 97.873L99.9487 95.5935L98.8449 93.9257L97.7411 92.2579L94.2968 94.5374L95.4007 96.2052ZM98.8449 93.9257L100.028 95.5385L102.294 93.8767L101.111 92.2639L99.9284 90.6511L97.6622 92.3128L98.8449 93.9257ZM105.643 88.9403L106.826 90.5532L111.358 87.2296L110.176 85.6168L108.993 84.0039L104.461 87.3275L105.643 88.9403ZM114.708 82.2932L115.891 83.906L118.157 82.2442L116.974 80.6314L115.791 79.0186L113.525 80.6804L114.708 82.2932ZM116.974 80.6314L118.548 81.8657L120.273 79.666L118.699 78.4317L117.126 77.1974L115.4 79.3971L116.974 80.6314ZM122.15 74.0322L123.724 75.2665L127.174 70.867L125.601 69.6327L124.027 68.3984L120.576 72.7979L122.15 74.0322ZM129.051 65.2332L130.625 66.4675L134.076 62.068L132.502 60.8337L130.928 59.5994L127.478 63.9989L129.051 65.2332ZM135.953 56.4342L137.526 57.6685L140.977 53.269L139.403 52.0347L137.83 50.8004L134.379 55.1999L135.953 56.4342ZM142.854 47.6352L144.428 48.8695L147.878 44.47L146.305 43.2357L144.731 42.0014L141.28 46.4009L142.854 47.6352ZM149.755 38.8362L151.329 40.0705L154.78 35.671L153.206 34.4367L151.632 33.2024L148.181 37.6019L149.755 38.8362ZM156.656 30.0372L158.23 31.2715L159.955 29.0718L158.382 27.8375L156.808 26.6032L155.083 28.803L156.656 30.0372ZM158.382 27.8375L159.431 26.1351L158.832 25.7654L157.782 27.4678L156.732 29.1702L157.332 29.5399L158.382 27.8375ZM156.583 26.7284L157.633 25.026L157.033 24.6563L155.983 26.3587L154.934 28.061L155.533 28.4308L156.583 26.7284ZM155.983 26.3587L156.685 24.4856L155.579 24.0718L154.878 25.9449L154.177 27.818L155.282 28.2317L155.983 26.3587ZM152.668 25.1174L153.369 23.2443L152.263 22.8305L151.562 24.7036L150.861 26.5766L151.966 26.9904L152.668 25.1174ZM151.562 24.7036L153.208 23.5673L151.871 21.6306L150.225 22.7669L148.579 23.9032L149.916 25.8399L151.562 24.7036ZM147.551 18.8936L149.197 17.7573L147.86 15.8206L146.214 16.9569L144.568 18.0932L145.905 20.0299L147.551 18.8936ZM146.214 16.9569L148.171 17.368L148.355 16.4926L146.398 16.0815L144.44 15.6703L144.257 16.5457L146.214 16.9569ZM146.766 14.3306L148.723 14.7417L148.907 13.8663L146.949 13.4552L144.992 13.044L144.808 13.9195L146.766 14.3306ZM146.949 13.4552V15.4552H148.47V13.4552V11.4552H146.949V13.4552ZM151.512 13.4552V15.4552H153.033V13.4552V11.4552H151.512V13.4552ZM153.033 13.4552L152.137 15.2433L153.059 15.7049L153.955 13.9168L154.851 12.1287L153.929 11.6671L153.033 13.4552ZM155.798 14.8401L154.902 16.6283L155.823 17.0899L156.719 15.3018L157.615 13.5137L156.693 13.052L155.798 14.8401ZM156.719 15.3018L154.725 15.461L154.817 16.6123L156.811 16.4531L158.805 16.2938L158.713 15.1426L156.719 15.3018ZM156.995 18.7556L155.001 18.9149L155.093 20.0662L157.087 19.9069L159.08 19.7477L158.989 18.5964L156.995 18.7556ZM157.087 19.9069L156.719 21.8728L157.457 22.0108L157.824 20.0448L158.192 18.0789L157.454 17.941L157.087 19.9069ZM159.299 20.3207L158.932 22.2866L159.669 22.4245L160.037 20.4586L160.404 18.4927L159.667 18.3548L159.299 20.3207ZM160.037 20.4586L161.235 22.0598L162.157 21.3702L160.958 19.769L159.76 18.1678L158.838 18.8574L160.037 20.4586ZM162.801 18.3898L163.999 19.991L164.921 19.3013L163.722 17.7001L162.524 16.0989L161.603 16.7886L162.801 18.3898ZM163.722 17.7001L165.658 17.197L165.382 16.1358L163.447 16.6389L161.511 17.142L161.787 18.2033L163.722 17.7001ZM162.895 14.5164L164.831 14.0133L164.555 12.952L162.619 13.4552L160.683 13.9583L160.959 15.0195L162.895 14.5164ZM162.619 13.4552L164.592 13.1271L164.316 11.4682L162.343 11.7963L160.37 12.1243L160.646 13.7832L162.619 13.4552ZM161.792 8.47846L163.764 8.1504L163.489 6.49149L161.516 6.81955L159.543 7.14761L159.819 8.80652L161.792 8.47846ZM161.516 6.81955L162.979 5.45632L162.379 4.81267L160.916 6.17591L159.453 7.53914L160.052 8.18279L161.516 6.81955ZM159.717 4.88862L161.18 3.52538L160.581 2.88174L159.117 4.24497L157.654 5.60821L158.253 6.25186L159.717 4.88862ZM159.117 4.24497L160.798 5.32961L161.303 4.54613L159.623 3.4615L157.943 2.37686L157.437 3.16034L159.117 4.24497ZM160.634 1.89454L162.315 2.97917L162.821 2.19569L161.14 1.11106L159.46 0.026424L158.954 0.809903L160.634 1.89454ZM161.14 1.11106V3.11106H161.786V1.11106V-0.888943H161.14V1.11106ZM163.077 1.11106V3.11106H163.722V1.11106V-0.888943H163.077V1.11106ZM163.722 1.11106L162.239 2.45239L162.655 2.91214L164.138 1.5708L165.622 0.229463L165.206 -0.23028L163.722 1.11106ZM164.969 2.49028L163.486 3.83162L163.902 4.29136L165.385 2.95003L166.869 1.60869L166.453 1.14895L164.969 2.49028ZM165.385 2.95003H163.385V3.73351H165.385H167.385V2.95003H165.385ZM165.385 5.30047H163.385V6.08395H165.385H167.385V5.30047H165.385ZM165.385 6.08395L163.653 7.08308L164.344 8.28225L166.077 7.28311L167.809 6.28398L167.118 5.08481L165.385 6.08395ZM167.46 9.68145L165.727 10.6806L166.419 11.8797L168.151 10.8806L169.884 9.88148L169.192 8.68231L167.46 9.68145ZM168.151 10.8806L166.824 12.377L167.654 13.1125L168.981 11.6162L170.308 10.1199L169.478 9.38428L168.151 10.8806ZM170.64 13.0874L169.313 14.5837L170.142 15.3193L171.469 13.823L172.796 12.3266L171.967 11.591L170.64 13.0874ZM171.469 13.823L171.861 15.7841L172.551 15.6462L172.159 13.685L171.766 11.7239L171.077 11.8618L171.469 13.823ZM173.538 13.4092L173.93 15.3704L174.62 15.2324L174.228 13.2713L173.835 11.3101L173.146 11.448L173.538 13.4092ZM174.228 13.2713L175.999 14.2006L176.506 13.2332L174.735 12.3039L172.964 11.3746L172.457 12.342L174.228 13.2713ZM175.75 10.3692L177.521 11.2985L178.029 10.3311L176.258 9.40178L174.487 8.47246L173.979 9.43984L175.75 10.3692ZM176.258 9.40178H178.258V8.71024H176.258H174.258V9.40178H176.258ZM176.258 7.32717H178.258V6.63564H176.258H174.258V7.32717H176.258ZM176.258 6.63564L178.048 5.74287L177.634 4.91342L175.844 5.80619L174.055 6.69895L174.468 7.52841L176.258 6.63564ZM175.017 4.14728L176.806 3.25452L176.393 2.42506L174.603 3.31783L172.813 4.2106L173.227 5.04005L175.017 4.14728ZM174.603 3.31783L176.183 4.54394L176.827 3.71448L175.247 2.48837L173.667 1.26227L173.023 2.09173L174.603 3.31783ZM176.534 0.829458L178.114 2.05556L178.758 1.22611L177.178 0L175.598 -1.22611L174.954 -0.396648L176.534 0.829458ZM177.178 0V2H178.099V0V-2H177.178V0ZM179.942 0V2H180.863V0V-2H179.942V0ZM180.863 0L178.915 0.451313L179.193 1.65048L181.141 1.19917L183.089 0.747854L182.812 -0.451313L180.863 0ZM181.697 3.5975L179.748 4.04881L180.026 5.24798L181.974 4.79667L183.923 4.34536L183.645 3.14619L181.697 3.5975ZM181.974 4.79667L180.019 5.21513L180.294 6.50433L182.25 6.08587L184.206 5.66741L183.93 4.37821L181.974 4.79667ZM182.802 8.66427L180.846 9.08273L181.122 10.3719L183.078 9.95347L185.033 9.53501L184.758 8.24581L182.802 8.66427ZM183.078 9.95347L181.103 10.2729L181.379 11.9778L183.354 11.6584L185.328 11.3389L185.052 9.63403L183.078 9.95347ZM183.905 15.0681L181.931 15.3876L182.207 17.0924L184.181 16.773L186.155 16.4536L185.88 14.7487L183.905 15.0681ZM184.181 16.773L182.784 18.2037L183.031 18.4451L184.428 17.0144L185.826 15.5836L185.579 15.3423L184.181 16.773ZM184.922 17.4971L183.525 18.9278L183.772 19.1692L185.169 17.7385L186.567 16.3077L186.32 16.0664L184.922 17.4971ZM185.169 17.7385L186.756 18.9559L187.438 18.0671L185.851 16.8496L184.265 15.6322L183.583 16.521L185.169 17.7385ZM187.215 15.0719L188.802 16.2894L189.484 15.4005L187.897 14.1831L186.311 12.9657L185.629 13.8545L187.215 15.0719ZM187.897 14.1831L188.704 16.013L189.712 15.5686L188.905 13.7387L188.098 11.9088L187.09 12.3532L187.897 14.1831ZM190.92 12.8498L191.727 14.6798L192.735 14.2353L191.928 12.4054L191.121 10.5755L190.113 11.0199L190.92 12.8498ZM191.928 12.4054V14.4054H193.853V12.4054V10.4054H191.928V12.4054ZM197.703 12.4054V14.4054H199.628V12.4054V10.4054H197.703V12.4054ZM199.628 12.4054H197.628V12.7905H199.628H201.628V12.4054H199.628ZM199.628 13.5605H197.628V13.9456H199.628H201.628V13.5605H199.628ZM199.628 13.9456L197.768 13.2115L197.324 14.3379L199.184 15.0719L201.044 15.806L201.489 14.6796L199.628 13.9456ZM198.295 17.3247L196.435 16.5906L195.99 17.717L197.851 18.4511L199.711 19.1851L200.156 18.0587L198.295 17.3247ZM197.851 18.4511L196.346 17.1332L195.101 18.5546L196.606 19.8724L198.11 21.1903L199.355 19.7689L197.851 18.4511ZM194.115 22.7152L192.611 21.3973L191.366 22.8187L192.87 24.1366L194.375 25.4544L195.62 24.0331L194.115 22.7152ZM192.87 24.1366L191.784 22.4569L191.281 22.7826L192.366 24.4622L193.452 26.1419L193.956 25.8162L192.87 24.1366ZM191.359 25.1135L190.273 23.4339L189.769 23.7595L190.855 25.4392L191.941 27.1188L192.444 26.7932L191.359 25.1135ZM190.855 25.4392L188.866 25.6459L188.896 25.9409L190.886 25.7342L192.875 25.5274L192.844 25.2324L190.855 25.4392ZM190.947 26.3242L188.958 26.5309L188.988 26.8259L190.978 26.6192L192.967 26.4125L192.936 26.1175L190.947 26.3242ZM190.978 26.6192L189.367 25.4332L188.538 26.5596L190.148 27.7456L191.759 28.9315L192.588 27.8051L190.978 26.6192ZM188.489 29.9983L186.879 28.8123L186.049 29.9387L187.66 31.1247L189.27 32.3106L190.1 31.1842L188.489 29.9983ZM187.66 31.1247L185.812 31.8889L186.375 33.2509L188.223 32.4866L190.071 31.7224L189.508 30.3604L187.66 31.1247ZM189.349 35.2106L187.501 35.9749L188.064 37.3369L189.912 36.5726L191.761 35.8084L191.198 34.4464L189.349 35.2106ZM189.912 36.5726L188.396 37.8768L189.492 39.1507L191.008 37.8465L192.524 36.5423L191.429 35.2684L189.912 36.5726ZM193.2 40.3942L191.683 41.6985L192.779 42.9723L194.295 41.6681L195.812 40.3639L194.716 39.09L193.2 40.3942ZM194.295 41.6681L192.443 42.4217L193.154 44.1688L195.006 43.4151L196.859 42.6615L196.148 40.9145L194.295 41.6681ZM196.427 46.9092L194.575 47.6628L195.286 49.4098L197.138 48.6562L198.991 47.9026L198.28 46.1556L196.427 46.9092ZM197.138 48.6562L195.349 47.7618L195.024 48.4131L196.812 49.3075L198.601 50.202L198.927 49.5506L197.138 48.6562ZM196.161 50.6101L194.372 49.7157L194.047 50.367L195.836 51.2615L197.624 52.1559L197.95 51.5046L196.161 50.6101ZM195.836 51.2615L195.189 49.369L194.062 49.754L194.709 51.6465L195.356 53.539L196.482 53.1539L195.836 51.2615ZM192.456 52.4165L191.81 50.5241L190.683 50.9091L191.33 52.8016L191.977 54.6941L193.103 54.309L192.456 52.4165ZM191.33 52.8016L192.021 50.9246L190.896 50.5108L190.206 52.3878L189.515 54.2648L190.639 54.6785L191.33 52.8016ZM187.957 51.5603L188.647 49.6833L187.523 49.2695L186.832 51.1465L186.142 53.0235L187.266 53.4372L187.957 51.5603ZM186.832 51.1465L187.619 49.3076L186.996 49.0414L186.21 50.8802L185.423 52.7191L186.046 52.9854L186.832 51.1465ZM184.964 50.3477L185.751 48.5088L185.128 48.2426L184.342 50.0814L183.555 51.9203L184.178 52.1866L184.964 50.3477ZM184.342 50.0814L186.119 49.1633L185.705 48.3626L183.928 49.2807L182.151 50.1989L182.565 50.9996L184.342 50.0814ZM183.101 47.6793L184.877 46.7611L184.464 45.9604L182.687 46.8786L180.91 47.7967L181.324 48.5974L183.101 47.6793ZM182.687 46.8786L182.954 44.8965L181.205 44.6608L180.938 46.6429L180.671 48.625L182.42 48.8607L182.687 46.8786ZM177.44 46.1717L177.707 44.1896L175.958 43.954L175.691 45.9361L175.424 47.9182L177.173 48.1538L177.44 46.1717ZM175.691 45.9361L176.329 44.0405L175.708 43.8317L175.07 45.7273L174.433 47.6229L175.053 47.8317L175.691 45.9361ZM173.829 45.3097L174.467 43.4141L173.846 43.2053L173.208 45.1009L172.571 46.9965L173.191 47.2053L173.829 45.3097ZM173.208 45.1009L171.374 44.3043L169.908 47.6815L171.742 48.4781L173.577 49.2746L175.043 45.8974L173.208 45.1009ZM168.809 55.2325L166.975 54.4359L164.042 61.1903L165.877 61.9869L167.711 62.7834L170.644 56.029L168.809 55.2325ZM162.944 68.7413L161.109 67.9447L159.643 71.3219L161.477 72.1185L163.312 72.915L164.778 69.5378L162.944 68.7413ZM161.477 72.1185L159.629 71.3543L158.474 74.1478L160.322 74.9121L162.17 75.6763L163.326 72.8827L161.477 72.1185ZM158.012 80.4992L156.164 79.735L153.854 85.3222L155.702 86.0864L157.55 86.8506L159.86 81.2634L158.012 80.4992ZM153.392 91.6736L151.543 90.9093L149.233 96.4965L151.081 97.2607L152.93 98.0249L155.24 92.4378L153.392 91.6736ZM148.771 102.848L146.923 102.084L145.768 104.877L147.616 105.641L149.464 106.406L150.619 103.612L148.771 102.848ZM147.616 105.641L145.944 104.545L144.137 107.299L145.81 108.396L147.482 109.493L149.289 106.738L147.616 105.641ZM142.197 113.905L140.524 112.809L136.912 118.318L138.584 119.415L140.256 120.511L143.869 115.002L142.197 113.905ZM134.971 124.924L133.299 123.827L131.492 126.582L133.165 127.679L134.837 128.775L136.644 126.021L134.971 124.924ZM133.165 127.679L131.363 126.81L131.007 127.55L132.808 128.418L134.61 129.286L134.967 128.547L133.165 127.679ZM132.096 129.897L130.294 129.029L129.938 129.768L131.74 130.636L133.541 131.504L133.898 130.765L132.096 129.897ZM131.74 130.636L130.089 129.507L129.379 130.545L131.029 131.674L132.679 132.804L133.39 131.766L131.74 130.636ZM129.608 133.751L127.957 132.621L127.246 133.66L128.897 134.789L130.547 135.919L131.258 134.881L129.608 133.751ZM128.897 134.789L126.903 134.629L126.784 136.11L128.778 136.27L130.772 136.43L130.89 134.949L128.897 134.789ZM128.541 139.232L126.547 139.072L126.428 140.552L128.422 140.712L130.415 140.872L130.534 139.391L128.541 139.232ZM128.422 140.712L126.462 141.11L126.906 143.301L128.866 142.904L130.826 142.506L130.382 140.315L128.422 140.712ZM129.755 147.287L127.795 147.684L128.239 149.876L130.199 149.478L132.16 149.081L131.715 146.889L129.755 147.287ZM130.199 149.478L128.419 150.389L129.07 151.662L130.851 150.752L132.631 149.841L131.98 148.568L130.199 149.478ZM132.153 153.3L130.373 154.21L131.024 155.484L132.805 154.574L134.585 153.663L133.934 152.389L132.153 153.3ZM132.805 154.574L130.84 154.202L130.159 157.8L132.124 158.172L134.089 158.544L134.77 154.945L132.805 154.574ZM130.762 165.369L128.797 164.997L127.435 172.194L129.4 172.566L131.365 172.938L132.727 165.741L130.762 165.369ZM128.038 179.763L126.073 179.391L125.392 182.989L127.357 183.361L129.322 183.733L130.003 180.135L128.038 179.763ZM127.357 183.361L125.484 182.66L125.129 183.606L127.002 184.307L128.875 185.009L129.23 184.063L127.357 183.361ZM126.294 186.2L124.421 185.499L124.066 186.445L125.939 187.146L127.812 187.848L128.167 186.901L126.294 186.2ZM125.939 187.146L123.944 187.008L123.825 188.727L125.82 188.865L127.816 189.003L127.934 187.284L125.939 187.146ZM125.583 192.301L123.588 192.163L123.469 193.882L125.464 194.02L127.459 194.157L127.578 192.439L125.583 192.301ZM125.464 194.02L123.543 193.463L123.011 195.3L124.932 195.857L126.852 196.413L127.385 194.576L125.464 194.02ZM123.866 199.531L121.946 198.974L121.413 200.811L123.334 201.368L125.255 201.925L125.787 200.088L123.866 199.531ZM123.334 201.368L121.481 200.615L120.266 203.605L122.119 204.358L123.972 205.111L125.187 202.12L123.334 201.368ZM119.69 210.339L117.837 209.586L116.623 212.576L118.476 213.329L120.329 214.081L121.543 211.091L119.69 210.339ZM118.476 213.329L116.483 213.158L116.236 216.041L118.229 216.212L120.222 216.383L120.469 213.5L118.476 213.329ZM117.735 221.978L115.742 221.807L115.248 227.573L117.24 227.744L119.233 227.915L119.727 222.149L117.735 221.978ZM116.746 233.51L114.754 233.339L114.259 239.105L116.252 239.276L118.245 239.446L118.739 233.68L116.746 233.51ZM115.758 245.042L113.765 244.871L113.518 247.754L115.511 247.925L117.503 248.095L117.75 245.212L115.758 245.042ZM115.511 247.925L113.678 248.726L113.885 249.199L115.718 248.398L117.55 247.596L117.343 247.123L115.511 247.925ZM116.131 249.344L114.299 250.145L114.506 250.618L116.338 249.817L118.171 249.016L117.964 248.543L116.131 249.344ZM116.338 249.817L114.379 249.415L113.965 251.43L115.924 251.832L117.884 252.235L118.297 250.219L116.338 249.817ZM115.097 255.863L113.138 255.461L112.724 257.476L114.683 257.878L116.642 258.28L117.056 256.265L115.097 255.863ZM114.683 257.878L112.69 258.049L112.935 260.899L114.927 260.728L116.92 260.558L116.676 257.707L114.683 257.878ZM115.416 266.429L113.423 266.6L113.912 272.301L115.904 272.13L117.897 271.959L117.408 266.258L115.416 266.429ZM116.393 277.831L114.4 278.002L114.889 283.702L116.881 283.532L118.874 283.361L118.385 277.66L116.393 277.831ZM117.37 289.233L115.377 289.403L115.865 295.104L117.858 294.933L119.851 294.763L119.362 289.062L117.37 289.233ZM118.347 300.634L116.354 300.805L116.598 303.655L118.591 303.485L120.584 303.314L120.339 300.463L118.347 300.634ZM118.591 303.485L116.802 304.379L117.513 305.8L119.302 304.906L121.09 304.012L120.38 302.59L118.591 303.485ZM120.723 307.749L118.934 308.643L119.645 310.064L121.434 309.17L123.223 308.276L122.512 306.854L120.723 307.749ZM121.434 309.17L119.442 309.356L119.561 310.63L121.552 310.444L123.544 310.258L123.425 308.984L121.434 309.17ZM121.79 312.992L119.799 313.177L119.917 314.451L121.909 314.266L123.9 314.08L123.781 312.806L121.79 312.992ZM121.909 314.266L120.217 315.333L122.045 318.229L123.736 317.162L125.428 316.095L123.6 313.198L121.909 314.266ZM127.391 322.955L125.7 324.022L127.527 326.918L129.219 325.851L130.91 324.784L129.083 321.887L127.391 322.955ZM129.219 325.851L127.468 326.817L128.008 327.796L129.759 326.83L131.51 325.864L130.97 324.885L129.219 325.851ZM130.839 328.788L129.088 329.754L129.628 330.733L131.379 329.767L133.13 328.8L132.59 327.821L130.839 328.788ZM131.379 329.767L129.384 329.625L129.346 330.165L131.341 330.307L133.336 330.448L133.374 329.908L131.379 329.767ZM131.265 331.387L129.27 331.246L129.231 331.786L131.226 331.927L133.221 332.069L133.26 331.529L131.265 331.387ZM131.226 331.927L131.198 329.928L127.063 329.985L127.09 331.985L127.118 333.985L131.254 333.927L131.226 331.927ZM118.819 332.1L118.791 330.1L114.655 330.157L114.683 332.157L114.711 334.157L118.847 334.1L118.819 332.1ZM114.683 332.157L116.503 331.328L116.206 330.676L114.386 331.506L112.566 332.336L112.863 332.987L114.683 332.157ZM113.792 330.203L115.612 329.374L115.315 328.722L113.495 329.552L111.676 330.382L111.973 331.033L113.792 330.203ZM113.495 329.552L115.081 330.771L115.673 330.001L114.087 328.782L112.502 327.563L111.91 328.333L113.495 329.552ZM115.271 327.242L116.857 328.461L117.449 327.691L115.863 326.472L114.277 325.253L113.685 326.023L115.271 327.242ZM115.863 326.472L117.843 326.191L117.667 324.946L115.687 325.227L113.707 325.507L113.883 326.752L115.863 326.472ZM115.334 322.736L117.315 322.456L117.138 321.211L115.158 321.491L113.178 321.771L113.354 323.017L115.334 322.736ZM115.158 321.491L116.873 320.461L115.627 318.389L113.913 319.419L112.199 320.448L113.444 322.521L115.158 321.491ZM111.423 315.273L113.137 314.243L111.892 312.171L110.178 313.2L108.463 314.23L109.708 316.303L111.423 315.273ZM110.178 313.2L112.17 313.031L111.994 310.958L110.001 311.128L108.009 311.297L108.185 313.37L110.178 313.2ZM109.649 306.982L111.642 306.813L111.465 304.74L109.473 304.91L107.48 305.079L107.656 307.152L109.649 306.982ZM109.473 304.91L111.462 304.701L111.165 301.88L109.176 302.089L107.187 302.298L107.484 305.119L109.473 304.91ZM108.583 296.446L110.572 296.237L109.98 290.595L107.99 290.804L106.001 291.013L106.594 296.655L108.583 296.446ZM107.398 285.161L109.387 284.952L108.794 279.31L106.805 279.519L104.816 279.728L105.409 285.37L107.398 285.161ZM106.212 273.877L108.201 273.668L107.608 268.025L105.619 268.234L103.63 268.443L104.223 274.086L106.212 273.877ZM105.026 262.592L107.015 262.383L106.719 259.562L104.73 259.771L102.741 259.98L103.037 262.801L105.026 262.592ZM104.73 259.771L106.673 259.298L106.407 258.203L104.463 258.675L102.52 259.147L102.786 260.243L104.73 259.771ZM103.931 256.483L105.874 256.011L105.608 254.915L103.665 255.388L101.721 255.86L101.987 256.956L103.931 256.483ZM103.665 255.388L105.663 255.306L105.554 252.66L103.556 252.742L101.558 252.824L101.666 255.47L103.665 255.388ZM103.339 247.449L105.337 247.367L105.12 242.075L103.122 242.157L101.123 242.239L101.341 247.531L103.339 247.449ZM102.905 236.865L104.903 236.783L104.686 231.491L102.688 231.573L100.689 231.655L100.906 236.947L102.905 236.865ZM102.47 226.281L104.469 226.199L104.36 223.553L102.362 223.635L100.364 223.717L100.472 226.363L102.47 226.281ZM102.362 223.635L100.365 223.52L100.173 226.882L102.169 226.997L104.166 227.111L104.359 223.749L102.362 223.635ZM101.784 233.72L99.7877 233.606L99.4026 240.33L101.399 240.444L103.396 240.558L103.781 233.835L101.784 233.72ZM101.014 247.168L99.0176 247.054L98.8251 250.415L100.822 250.53L102.819 250.644L103.011 247.282L101.014 247.168ZM100.822 250.53L98.9411 249.849L98.4373 251.242L100.318 251.922L102.199 252.603L102.703 251.21L100.822 250.53ZM99.3104 254.708L97.4297 254.027L96.9259 255.42L98.8066 256.1L100.687 256.781L101.191 255.388L99.3104 254.708ZM98.8066 256.1L96.8084 256.016L96.6825 258.992L98.6807 259.077L100.679 259.161L100.805 256.185L98.8066 256.1ZM98.4288 265.029L96.4306 264.945L96.1786 270.898L98.1769 270.982L100.175 271.067L100.427 265.114L98.4288 265.029ZM97.925 276.935L95.9268 276.85L95.6749 282.803L97.6731 282.888L99.6713 282.972L99.9232 277.019L97.925 276.935ZM97.4212 288.84L95.423 288.756L95.171 294.708L97.1693 294.793L99.1675 294.878L99.4194 288.925L97.4212 288.84ZM96.9174 300.746L94.9191 300.661L94.7932 303.638L96.7914 303.722L98.7896 303.807L98.9156 300.83L96.9174 300.746ZM96.7914 303.722L94.8531 304.215L95.2976 305.962L97.2358 305.469L99.1741 304.976L98.7297 303.229L96.7914 303.722ZM98.1247 308.963L96.1864 309.456L96.6308 311.203L98.5691 310.71L100.507 310.217L100.063 308.47L98.1247 308.963ZM98.5691 310.71H96.5691V312.814H98.5691H100.569V310.71H98.5691ZM98.5691 317.02H96.5691V319.124H98.5691H100.569V317.02H98.5691ZM98.5691 319.124L96.7831 320.024L98.5895 323.608L100.375 322.708L102.161 321.807L100.355 318.223L98.5691 319.124ZM103.988 329.876L102.202 330.776L104.009 334.36L105.795 333.46L107.581 332.56L105.774 328.976L103.988 329.876ZM105.795 333.46L105.162 331.562L104.007 331.948L104.64 333.845L105.272 335.742L106.427 335.357L105.795 333.46ZM102.329 334.615L101.697 332.718L100.542 333.103L101.174 335L101.807 336.897L102.962 336.512L102.329 334.615ZM101.174 335V333H98.4503V335V337H101.174V335ZM93.0023 335V333H90.2784V335V337H93.0023V335ZM90.2784 335L92.0281 334.031L91.5531 333.173L89.8033 334.142L88.0535 335.11L88.5286 335.969L90.2784 335ZM88.8531 332.425L90.6029 331.457L90.1278 330.599L88.3781 331.567L86.6283 332.536L87.1034 333.394L88.8531 332.425ZM88.3781 331.567L89.9671 332.782L90.7372 331.774L89.1481 330.56L87.5591 329.345L86.789 330.353L88.3781 331.567ZM90.6883 328.544L92.2773 329.759L93.0474 328.751L91.4584 327.537L89.8693 326.322L89.0992 327.33L90.6883 328.544ZM91.4584 327.537L93.4462 327.317L93.2987 325.984L91.3109 326.204L89.323 326.423L89.4705 327.757L91.4584 327.537ZM91.0158 323.537L93.0037 323.317L92.8562 321.984L90.8683 322.204L88.8805 322.424L89.028 323.757L91.0158 323.537ZM90.8683 322.204L92.5828 321.174L91.9602 320.138L90.2458 321.167L88.5313 322.197L89.1539 323.234L90.8683 322.204ZM89.0006 319.095L90.7151 318.065L90.0925 317.029L88.3781 318.058L86.6636 319.088L87.2862 320.125L89.0006 319.095ZM88.3781 318.058L90.3776 318.013L90.3201 315.466L88.3206 315.511L86.3211 315.556L86.3786 318.104L88.3781 318.058ZM88.2057 310.415L90.2052 310.37L90.1477 307.822L88.1482 307.867L86.1487 307.913L86.2062 310.46L88.2057 310.415ZM88.1482 307.867L90.1482 307.863L90.1405 304.76L88.1405 304.765L86.1405 304.77L86.1482 307.872L88.1482 307.867ZM88.1252 298.561L90.1252 298.556L90.1099 292.351L88.1099 292.356L86.1099 292.361L86.1252 298.565L88.1252 298.561ZM88.0946 286.151L90.0946 286.146L90.0792 279.942L88.0792 279.947L86.0793 279.952L86.0946 286.156L88.0946 286.151ZM88.0639 273.742L90.0639 273.737L90.0486 267.532L88.0486 267.537L86.0486 267.542L86.0639 273.747L88.0639 273.742ZM88.0333 261.333L90.0333 261.328L90.0256 258.226L88.0256 258.23L86.0256 258.235L86.0333 261.338L88.0333 261.333ZM88.0256 258.23L89.9612 257.727L89.6068 256.365L87.6712 256.868L85.7357 257.372L86.0901 258.734L88.0256 258.23ZM86.9624 254.144L88.898 253.641L88.5436 252.279L86.608 252.783L84.6725 253.286L85.0269 254.648L86.9624 254.144ZM86.608 252.783L88.6063 252.866L88.7169 250.23L86.7187 250.147L84.7204 250.063L84.6098 252.699L86.608 252.783ZM86.9399 244.875L88.9382 244.959L89.1594 239.687L87.1612 239.603L85.1629 239.519L84.9417 244.791L86.9399 244.875ZM87.3824 234.331L89.3807 234.415L89.6019 229.144L87.6037 229.06L85.6054 228.976L85.3842 234.248L87.3824 234.331ZM87.8249 223.788L89.8232 223.872L90.0444 218.6L88.0462 218.516L86.0479 218.432L85.8267 223.704L87.8249 223.788ZM88.2674 213.244L90.2657 213.328L90.3763 210.693L88.3781 210.609L86.3798 210.525L86.2692 213.161L88.2674 213.244ZM88.3781 210.609L90.3766 210.686L90.526 206.805L88.5275 206.728L86.529 206.651L86.3795 210.532L88.3781 210.609ZM88.8263 198.966L90.8248 199.043L90.9743 195.162L88.9758 195.085L86.9772 195.008L86.8278 198.889L88.8263 198.966ZM88.9758 195.085L89.2187 193.099L87.2935 192.864L87.0506 194.849L86.8076 196.834L88.7328 197.07L88.9758 195.085ZM83.2002 194.378L83.4432 192.393L81.518 192.157L81.275 194.142L81.0321 196.127L82.9573 196.363L83.2002 194.378ZM81.275 194.142L80.5338 192.285L79.3481 192.758L80.0893 194.615L80.8305 196.473L82.0163 196L81.275 194.142ZM77.7178 195.562L76.9765 193.704L75.7908 194.177L76.532 196.035L77.2733 197.892L78.459 197.419L77.7178 195.562ZM76.532 196.035L76.5092 194.035L73.9921 194.064L74.0149 196.064L74.0378 198.063L76.5548 198.035L76.532 196.035ZM68.9807 196.121L68.9579 194.121L66.4408 194.15L66.4636 196.15L66.4865 198.15L69.0035 198.121L68.9807 196.121ZM66.4636 196.15L67.1496 194.271L64.7206 193.384L64.0346 195.263L63.3487 197.141L65.7776 198.028L66.4636 196.15ZM59.1767 193.489L59.8627 191.61L57.4337 190.723L56.7477 192.602L56.0617 194.481L58.4907 195.368L59.1767 193.489ZM56.7477 192.602L54.8253 192.05L54.1453 194.42L56.0677 194.972L57.9901 195.523L58.6701 193.154L56.7477 192.602ZM54.7076 199.711L52.7852 199.159L52.1051 201.529L54.0275 202.08L55.9499 202.632L56.63 200.262L54.7076 199.711ZM54.0275 202.08L52.2743 201.118L50.4373 204.465L52.1905 205.427L53.9437 206.389L55.7808 203.043L54.0275 202.08ZM48.5164 212.12L46.7632 211.158L44.9261 214.504L46.6793 215.467L48.4325 216.429L50.2696 213.082L48.5164 212.12ZM46.6793 215.467L44.7801 214.84L43.8615 217.623L45.7608 218.25L47.66 218.877L48.5786 216.093L46.6793 215.467ZM43.9237 223.817L42.0245 223.19L40.1874 228.757L42.0867 229.383L43.9859 230.01L45.823 224.443L43.9237 223.817ZM40.2496 234.95L38.3503 234.323L37.4318 237.107L39.3311 237.734L41.2303 238.36L42.1489 235.577L40.2496 234.95ZM39.3311 237.734L37.356 237.419L36.676 241.685L38.651 242L40.6261 242.314L41.3061 238.048L39.3311 237.734ZM37.291 250.532L35.3159 250.217L34.6359 254.483L36.6109 254.798L38.586 255.113L39.266 250.847L37.291 250.532ZM36.6109 254.798L34.6441 255.16L35.2365 258.374L37.2033 258.011L39.1702 257.649L38.5778 254.435L36.6109 254.798ZM38.3881 264.438L36.4213 264.801L37.6061 271.227L39.5729 270.865L41.5398 270.502L40.355 264.075L38.3881 264.438ZM40.7577 277.292L38.7909 277.654L39.9757 284.081L41.9425 283.718L43.9094 283.356L42.7246 276.929L40.7577 277.292ZM43.1273 290.145L41.1605 290.508L42.3453 296.935L44.3121 296.572L46.279 296.21L45.0942 289.783L43.1273 290.145ZM45.4969 302.999L43.5301 303.362L44.1225 306.575L46.0893 306.212L48.0562 305.85L47.4638 302.636L45.4969 302.999ZM46.0893 306.212L44.2357 306.964L44.7395 308.207L46.5931 307.456L48.4467 306.704L47.9429 305.461L46.0893 306.212ZM47.6007 309.942L45.7471 310.693L46.2509 311.936L48.1045 311.185L49.9581 310.434L49.4543 309.191L47.6007 309.942ZM48.1045 311.185H46.1045V312.164H48.1045H50.1045V311.185H48.1045ZM48.1045 314.122H46.1045V315.101H48.1045H50.1045V314.122H48.1045ZM48.1045 315.101L46.3488 316.059L48.4809 319.966L50.2366 319.009L51.9923 318.051L49.8602 314.143L48.1045 315.101ZM54.5007 326.824L52.745 327.782L54.8771 331.69L56.6328 330.732L58.3885 329.774L56.2564 325.866L54.5007 326.824ZM56.6328 330.732L55.8074 328.91L54.8899 329.326L55.7152 331.148L56.5405 332.97L57.4581 332.554L56.6328 330.732ZM53.8801 331.979L53.0547 330.157L52.1372 330.573L52.9625 332.395L53.7878 334.217L54.7054 333.801L53.8801 331.979ZM52.9625 332.395V330.395H50.3554V332.395V334.395H52.9625V332.395ZM45.1411 332.395V330.395H42.534V332.395V334.395H45.1411V332.395ZM42.534 332.395L44.1987 331.286L43.7256 330.576L42.0608 331.684L40.396 332.792L40.8692 333.503L42.534 332.395ZM41.1145 330.263L42.7793 329.154L42.3061 328.444L40.6413 329.552L38.9766 330.66L39.4497 331.371L41.1145 330.263ZM40.6413 329.552L42.5592 330.119L43.0323 328.52L41.1145 327.953L39.1966 327.385L38.7235 328.985L40.6413 329.552ZM42.0608 324.753L43.9786 325.321L44.4518 323.721L42.534 323.154L40.6161 322.587L40.1429 324.186L42.0608 324.753ZM42.534 323.154L44.216 322.072L42.8827 319.999L41.2007 321.081L39.5186 322.163L40.8519 324.236L42.534 323.154ZM38.5342 316.936L40.2162 315.854L38.883 313.781L37.2009 314.863L35.5189 315.945L36.8521 318.018L38.5342 316.936ZM37.2009 314.863L39.1607 314.464L38.5803 311.615L36.6205 312.014L34.6608 312.413L35.2412 315.262L37.2009 314.863ZM35.4596 306.315L37.4194 305.916L36.2585 300.218L34.2988 300.617L32.339 301.016L33.4999 306.715L35.4596 306.315ZM33.1379 294.918L35.0977 294.519L33.9368 288.821L31.9771 289.22L30.0173 289.619L31.1782 295.318L33.1379 294.918ZM30.8162 283.521L32.776 283.122L31.6151 277.424L29.6554 277.823L27.6956 278.222L28.8565 283.921L30.8162 283.521ZM28.4945 272.124L30.4543 271.725L29.2934 266.027L27.3337 266.426L25.3739 266.825L26.5348 272.523L28.4945 272.124ZM26.1728 260.727L28.1326 260.328L27.5522 257.479L25.5924 257.878L23.6327 258.277L24.2131 261.126L26.1728 260.727ZM25.5924 257.878L27.3883 256.998L25.9075 253.977L24.1116 254.857L22.3158 255.737L23.7965 258.758L25.5924 257.878ZM21.1501 248.815L22.946 247.935L21.4652 244.914L19.6694 245.794L17.8735 246.675L19.3543 249.696L21.1501 248.815ZM19.6694 245.794L17.774 245.156L16.707 248.324L18.6024 248.963L20.4978 249.601L21.5648 246.433L19.6694 245.794ZM16.4684 255.3L14.573 254.661L13.506 257.83L15.4014 258.468L17.2968 259.106L18.3638 255.938L16.4684 255.3ZM15.4014 258.468L13.4118 258.265L13.0933 261.382L15.0829 261.585L17.0726 261.788L17.391 258.671L15.4014 258.468ZM14.446 267.819L12.4564 267.616L11.8194 273.85L13.8091 274.054L15.7987 274.257L16.4356 268.023L14.446 267.819ZM13.1721 280.288L11.1825 280.085L10.5455 286.319L12.5352 286.522L14.5248 286.726L15.1618 280.491L13.1721 280.288ZM11.8983 292.757L9.90861 292.553L9.27167 298.788L11.2613 298.991L13.251 299.194L13.8879 292.96L11.8983 292.757ZM10.6244 305.225L8.63474 305.022L8.31627 308.139L10.3059 308.343L12.2956 308.546L12.614 305.429L10.6244 305.225ZM10.3059 308.343L8.36581 308.828L8.66273 310.014L10.6028 309.528L12.5429 309.042L12.246 307.857L10.3059 308.343ZM11.1967 311.9L9.25657 312.386L9.5535 313.571L11.4936 313.086L13.4337 312.6L13.1368 311.414L11.1967 311.9ZM11.4936 313.086L9.49531 313.168L9.52596 313.908L11.5242 313.825L13.5225 313.742L13.4919 313.003L11.4936 313.086ZM11.5855 315.304L9.58724 315.387L9.61789 316.126L11.6162 316.043L13.6145 315.96L13.5838 315.221L11.5855 315.304ZM11.6162 316.043L9.79628 316.873L11.4839 320.576L13.3038 319.746L15.1237 318.917L13.4361 315.214L11.6162 316.043ZM16.6791 327.152L14.8592 327.981L16.5468 331.684L18.3667 330.855L20.1866 330.025L18.499 326.322L16.6791 327.152ZM18.3667 330.855L16.579 329.958L16.2821 330.55L18.0698 331.447L19.8575 332.343L20.1544 331.751L18.3667 330.855ZM17.476 332.63L15.6883 331.734L15.3914 332.326L17.1791 333.222L18.9668 334.119L19.2637 333.527L17.476 332.63ZM17.1791 333.222L17.1062 331.224L13.8497 331.342L13.9226 333.341L13.9955 335.34L17.252 335.221L17.1791 333.222ZM7.40953 333.579L7.33663 331.58L4.08011 331.699L4.15301 333.697L4.2259 335.696L7.48242 335.577L7.40953 333.579ZM4.15301 333.697L5.82665 332.602L5.32285 331.832L3.6492 332.927L1.97556 334.022L2.47936 334.792L4.15301 333.697ZM2.6416 331.387L4.31524 330.292L3.81144 329.522L2.13779 330.617L0.464145 331.712L0.967948 332.482L2.6416 331.387ZM2.13779 330.617L3.89957 331.564L4.52023 330.409L2.75845 329.462L0.996669 328.515L0.376011 329.67L2.13779 330.617ZM3.99977 327.152L5.76155 328.098L6.38221 326.943L4.62042 325.997L2.85864 325.05L2.23799 326.205L3.99977 327.152ZM4.62042 325.997L6.47471 325.247L5.46902 322.759L3.61473 323.508L1.76045 324.258L2.76614 326.746L4.62042 325.997ZM1.60336 318.532L3.45764 317.782L2.45195 315.294L0.597666 316.043L-1.25662 316.793L-0.250928 319.281L1.60336 318.532ZM0.597666 316.043L2.58192 315.793L2.43251 314.609L0.44825 314.859L-1.53601 315.11L-1.38659 316.294L0.597666 316.043ZM0.149417 312.492L2.13367 312.241L1.98426 311.057L0 311.308L-1.98426 311.558L-1.83484 312.742L0.149417 312.492ZM0 311.308L1.90935 311.903L2.32503 310.57L0.415682 309.975L-1.49367 309.379L-1.90935 310.713L0 311.308ZM1.24705 307.308L3.1564 307.903L3.57208 306.57L1.66273 305.975L-0.246625 305.38L-0.662307 306.713L1.24705 307.308ZM1.66273 305.975L3.65347 306.167L3.94943 303.102L1.95869 302.909L-0.0320565 302.717L-0.328016 305.783L1.66273 305.975ZM2.55061 296.779L4.54135 296.971L5.13327 290.84L3.14253 290.648L1.15178 290.455L0.559863 296.586L2.55061 296.779ZM3.73445 284.517L5.72519 284.709L6.31711 278.578L4.32636 278.386L2.33562 278.194L1.7437 284.325L3.73445 284.517ZM4.91828 272.255L6.90903 272.447L7.50095 266.316L5.5102 266.124L3.51946 265.932L2.92754 272.063L4.91828 272.255ZM6.10212 259.993L8.09287 260.185L8.38883 257.12L6.39808 256.928L4.40734 256.736L4.11138 259.801L6.10212 259.993ZM6.39808 256.928L8.36644 256.573L7.95363 254.28L5.98527 254.635L4.01692 254.989L4.42973 257.282L6.39808 256.928ZM5.15965 250.049L7.128 249.695L6.30238 245.109L4.33403 245.463L2.36567 245.817L3.19129 250.403L5.15965 250.049ZM3.5084 240.877L5.47676 240.523L5.06395 238.23L3.09559 238.584L1.12724 238.938L1.54005 241.231L3.5084 240.877ZM3.09559 238.584L4.88445 239.478L4.96873 239.31L3.17988 238.415L1.39102 237.521L1.30674 237.69L3.09559 238.584ZM3.34845 238.078L5.13731 238.973L5.22159 238.804L3.43274 237.91L1.64388 237.015L1.5596 237.184L3.34845 238.078ZM3.43274 237.91L5.23231 238.782L5.26296 238.719L3.46339 237.847L1.66381 236.974L1.63316 237.037L3.43274 237.91ZM3.52469 237.72L5.32426 238.593L5.35491 238.53L3.55534 237.657L1.75577 236.784L1.72512 236.847L3.52469 237.72Z" fill="#2DFEBB" mask="url(#path-1-inside-1_483_845)"/>
</svg>
