<svg width="356" height="233" viewBox="0 0 356 233" fill="none" xmlns="http://www.w3.org/2000/svg">
<mask id="mask0_758_154" style="mask-type:alpha" maskUnits="userSpaceOnUse" x="0" y="0" width="356" height="233">
<path d="M222.252 220.29C223.151 223.07 221.669 232.796 221.669 232.796L261.013 232.407C260.721 230.793 262.422 225.972 257.596 220.013C253.353 214.774 242.714 215.799 242.884 206.672C242.986 201.252 262.335 181.617 285.581 168.163C305.193 156.815 331.151 151.323 332.814 151.376C336.172 151.483 348.964 152.824 351.341 150.448C358.024 143.765 356.362 129.305 351.229 121.369C348.726 117.5 337.81 116.936 334.427 113.806C321.251 101.612 315.317 60.1339 299.982 50.7973C276.473 36.4886 216.069 39.6672 189.931 48.2748C169.741 54.9237 143.831 102.87 122.723 100.362C114.708 99.4099 101.77 83.1911 102.562 75.1619C104.259 57.9565 152.512 35.8811 157.736 24.3185C160.074 19.152 164.691 8.78985 160.089 3.1422C154.781 -3.37058 136.366 1.56747 129.24 6.01949C116.691 13.864 95.4858 54.462 80.7203 63.4C77.7118 65.2178 57.6047 67.4972 40.55 77.2324C18.3871 89.8837 -1.36025 111.308 0.0735358 121.369C1.55106 131.75 25.4248 140.688 35.3592 144.052C47.9668 148.319 75.5441 145.038 88.4238 148.392C119.214 156.406 189.552 159.187 203.467 202.288C205.095 207.333 190.952 212.888 186.665 214.55C180.959 216.757 167.015 225.393 171.078 229.967C175.457 234.9 205.902 232.261 205.902 232.261C206.932 231.182 207.122 223.648 209.936 219.104C210.932 217.495 213.479 215.512 216.526 215.391C218.062 215.333 220.721 215.532 222.261 220.29H222.252Z" fill="url(#paint0_linear_758_154)"/>
</mask>
<g mask="url(#mask0_758_154)">
<line x1="345.457" y1="-45.1821" x2="345.457" y2="250.182" stroke="#F0F0F0" stroke-width="2"/>
<line x1="333.641" y1="-45.1821" x2="333.641" y2="250.182" stroke="#F0F0F0" stroke-width="2"/>
<line x1="321.822" y1="-45.1821" x2="321.822" y2="250.182" stroke="#F0F0F0" stroke-width="2"/>
<line x1="310.004" y1="-45.1821" x2="310.004" y2="250.182" stroke="#F0F0F0" stroke-width="2"/>
<line x1="298.186" y1="-45.1821" x2="298.186" y2="250.182" stroke="#F0F0F0" stroke-width="2"/>
<line x1="286.369" y1="-45.1821" x2="286.369" y2="250.182" stroke="#F0F0F0" stroke-width="2"/>
<line x1="274.551" y1="-45.1821" x2="274.551" y2="250.182" stroke="#F0F0F0" stroke-width="2"/>
<line x1="262.732" y1="-45.1821" x2="262.732" y2="250.182" stroke="#F0F0F0" stroke-width="2"/>
<line x1="250.916" y1="-45.1821" x2="250.916" y2="250.182" stroke="#F0F0F0" stroke-width="2"/>
<line x1="239.098" y1="-45.1821" x2="239.098" y2="250.182" stroke="#F0F0F0" stroke-width="2"/>
<line x1="227.279" y1="-45.1821" x2="227.279" y2="250.182" stroke="#F0F0F0" stroke-width="2"/>
<line x1="215.461" y1="-45.1821" x2="215.461" y2="250.182" stroke="#F0F0F0" stroke-width="2"/>
<line x1="203.645" y1="-45.1821" x2="203.645" y2="250.182" stroke="#F0F0F0" stroke-width="2"/>
<line x1="191.826" y1="-45.1821" x2="191.826" y2="250.182" stroke="#F0F0F0" stroke-width="2"/>
<line x1="180.008" y1="-45.1821" x2="180.008" y2="250.182" stroke="#F0F0F0" stroke-width="2"/>
<line x1="168.191" y1="-45.1821" x2="168.191" y2="250.182" stroke="#F0F0F0" stroke-width="2"/>
<line x1="156.373" y1="-45.1821" x2="156.373" y2="250.182" stroke="#F0F0F0" stroke-width="2"/>
<line x1="144.555" y1="-45.1821" x2="144.555" y2="250.182" stroke="#F0F0F0" stroke-width="2"/>
<line x1="132.736" y1="-45.1821" x2="132.736" y2="250.182" stroke="#F0F0F0" stroke-width="2"/>
<line x1="120.92" y1="-45.1821" x2="120.92" y2="250.182" stroke="#F0F0F0" stroke-width="2"/>
<line x1="109.102" y1="-45.1821" x2="109.102" y2="250.182" stroke="#F0F0F0" stroke-width="2"/>
<line x1="97.2832" y1="-45.1821" x2="97.2832" y2="250.182" stroke="#F0F0F0" stroke-width="2"/>
<line x1="85.4648" y1="-45.1821" x2="85.4648" y2="250.182" stroke="#F0F0F0" stroke-width="2"/>
<line x1="73.6484" y1="-45.1821" x2="73.6484" y2="250.182" stroke="#F0F0F0" stroke-width="2"/>
<line x1="61.8301" y1="-45.1821" x2="61.8301" y2="250.182" stroke="#F0F0F0" stroke-width="2"/>
<line x1="50.0117" y1="-45.1821" x2="50.0117" y2="250.182" stroke="#F0F0F0" stroke-width="2"/>
<line x1="38.1953" y1="-45.1821" x2="38.1953" y2="250.182" stroke="#F0F0F0" stroke-width="2"/>
<line x1="26.377" y1="-45.1821" x2="26.377" y2="250.182" stroke="#F0F0F0" stroke-width="2"/>
<line x1="14.5586" y1="-45.1821" x2="14.5586" y2="250.182" stroke="#F0F0F0" stroke-width="2"/>
<line x1="2.74023" y1="-45.1821" x2="2.74023" y2="250.182" stroke="#F0F0F0" stroke-width="2"/>
</g>
<defs>
<linearGradient id="paint0_linear_758_154" x1="177.868" y1="-0.00240191" x2="177.868" y2="232.961" gradientUnits="userSpaceOnUse">
<stop offset="0.07" stop-color="#57BBE2"/>
<stop offset="0.3" stop-color="#B455D9"/>
<stop offset="0.48" stop-color="#EC208F"/>
<stop offset="0.71" stop-color="#EE713C"/>
<stop offset="0.86" stop-color="#F48735"/>
<stop offset="1" stop-color="#FF475B"/>
</linearGradient>
</defs>
</svg>
