<svg width="713" height="458" viewBox="0 0 713 458" fill="none" xmlns="http://www.w3.org/2000/svg">
<line x1="1" y1="457" x2="712" y2="457" stroke="#2DFEBB" stroke-width="2"/>
<line x1="439.274" y1="278.582" x2="712.274" y2="457.582" stroke="#2DFEBB"/>
<line x1="414.327" y1="278.622" x2="621.327" y2="457.622" stroke="#2DFEBB"/>
<line x1="389.39" y1="278.687" x2="531.39" y2="455.687" stroke="#2DFEBB"/>
<line x1="364.457" y1="277.797" x2="443.457" y2="455.797" stroke="#2DFEBB"/>
<line x1="340.498" y1="277.955" x2="356.498" y2="455.955" stroke="#2DFEBB"/>
<line x1="314.483" y1="278.13" x2="266.483" y2="456.13" stroke="#2DFEBB"/>
<line x1="290.424" y1="278.265" x2="179.424" y2="456.265" stroke="#2DFEBB"/>
<line x1="263.36" y1="278.347" x2="91.3596" y2="456.347" stroke="#2DFEBB"/>
<line x1="240.299" y1="278.401" x2="0.298913" y2="457.401" stroke="#2DFEBB"/>
<line x1="130" y1="360.5" x2="564" y2="360.5" stroke="#2DFEBB"/>
<line x1="188" y1="317.55" x2="499" y2="317.55" stroke="#2DFEBB" stroke-width="0.9"/>
<line x1="219" y1="294.65" x2="464" y2="294.65" stroke="#2DFEBB" stroke-width="0.7"/>
<line x1="240" y1="278.5" x2="440" y2="278.5" stroke="#2DFEBB"/>
<line y1="-1" x2="711" y2="-1" transform="matrix(1 0 0 -1 1 0)" stroke="#2DFEBB" stroke-width="2"/>
<line y1="-0.5" x2="326.451" y2="-0.5" transform="matrix(0.836267 -0.548322 -0.548322 -0.836267 439 179)" stroke="#2DFEBB"/>
<line y1="-0.5" x2="273.66" y2="-0.5" transform="matrix(0.756412 -0.654095 -0.654095 -0.756412 414 179)" stroke="#2DFEBB"/>
<line y1="-0.5" x2="226.921" y2="-0.5" transform="matrix(0.625769 -0.780008 -0.780008 -0.625769 389 179)" stroke="#2DFEBB"/>
<line y1="-0.5" x2="194.743" y2="-0.5" transform="matrix(0.405662 -0.914023 -0.914023 -0.405662 364 180)" stroke="#2DFEBB"/>
<line y1="-0.5" x2="178.718" y2="-0.5" transform="matrix(0.0895267 -0.995984 -0.995984 -0.0895267 340 180)" stroke="#2DFEBB"/>
<line y1="-0.5" x2="184.358" y2="-0.5" transform="matrix(-0.260363 -0.965511 -0.965511 0.260363 314 180)" stroke="#2DFEBB"/>
<line y1="-0.5" x2="209.774" y2="-0.5" transform="matrix(-0.529142 -0.848534 -0.848534 0.529142 290 180)" stroke="#2DFEBB"/>
<line y1="-0.5" x2="247.524" y2="-0.5" transform="matrix(-0.694883 -0.719123 -0.719123 0.694883 263 180)" stroke="#2DFEBB"/>
<line y1="-0.5" x2="299.401" y2="-0.5" transform="matrix(-0.8016 -0.59786 -0.59786 0.8016 240 180)" stroke="#2DFEBB"/>
<line y1="-0.5" x2="434" y2="-0.5" transform="matrix(1 0 0 -1 130 97)" stroke="#2DFEBB"/>
<line y1="-0.45" x2="311" y2="-0.45" transform="matrix(1 0 0 -1 188 140)" stroke="#2DFEBB" stroke-width="0.9"/>
<line y1="-0.35" x2="245" y2="-0.35" transform="matrix(1 0 0 -1 219 163)" stroke="#2DFEBB" stroke-width="0.7"/>
<line y1="-0.5" x2="200" y2="-0.5" transform="matrix(1 0 0 -1 240 179)" stroke="#2DFEBB"/>
</svg>
