<svg width="128" height="115" viewBox="0 0 128 115" fill="none" xmlns="http://www.w3.org/2000/svg">
<path d="M35.5686 5.59927C34.5981 6.03026 32.3734 5.66867 31.3127 5.59927C29.4545 5.47874 25.727 5.59927 23.8651 5.59927C21.7748 5.59927 17.3292 6.61099 15.5041 5.59927C14.4912 5.03863 13.9848 2.39063 13.0714 1.68024C12.0032 0.847489 9.24813 -0.162405 7.90374 0.0220412C6.95347 0.151702 5.29967 1.38074 4.71219 2.13313C4.12472 2.88553 3.5833 4.68617 3.49675 5.59927C3.29601 7.6848 4.74166 11.7956 4.71219 13.8902C4.68825 15.6489 3.6496 19.0712 3.49675 20.8243C3.2647 23.4906 3.02529 28.8925 3.49675 31.5259C3.70853 32.7111 5.05105 34.8496 5.16891 36.0476C5.4249 38.6682 3.57041 43.8163 3.49675 46.4478C3.3752 50.8398 5.31994 63.9319 5.31994 63.9319L-0.000495312 80.512L1.51885 88.803L11.854 98.9019L19.8872 101.694L22.2039 102.273L24.0143 101.013L21.5907 101.117L20.8227 100.259L21.331 99.1959L22.9775 99.5374L25.5815 99.1959L22.6938 98.6937L21.7896 97.9158L22.2058 97.2127L23.738 97.7276L25.8725 97.1305L23.2131 96.5991L22.4563 95.8101L22.9977 94.7765L24.7049 93.9091L24.8706 93.3302L23.204 93.7429L21.7454 92.6691L22.1211 89.4056C22.1211 89.4056 20.7472 90.1617 19.239 89.5316C17.3973 88.761 15.3863 86.5074 15.8301 85.6053C16.3421 84.5662 18.6625 85.3734 19.819 85.2273C22.5318 84.8876 25.5281 81.0635 27.3513 79.0456C28.2924 78.0046 29.8209 74.586 31.1819 74.9457C32.8062 75.3749 32.6 79.7797 32.6939 81.4452C32.9186 85.388 30.8799 97.1414 30.8799 97.1414C30.8799 97.1414 29.3715 101.364 29.0658 102.823C28.8688 103.761 29.0658 105.767 28.6625 106.64C28.2187 107.606 26.6902 109.255 25.7381 109.739C24.1782 110.533 18.7804 110.639 18.7804 110.639L17.0658 112.239L19.6865 114.238H39.6496C39.6496 114.238 43.1358 109.311 44.4876 107.24C47.0696 103.285 49.1156 90.6675 53.8633 90.8447C57.3459 90.9743 59.8118 103.341 59.8118 103.341L59.1064 105.341L56.8891 106.74L52.6552 106.44L51.5466 109.039L52.3532 111.039L60.519 111.738L74.7473 109.298C74.7473 109.298 74.6811 99.552 75.0365 96.1425C75.298 93.6278 76.3661 88.5802 77.5577 86.3449C79.1599 83.339 83.2078 76.3081 86.6314 76.1474C92.1176 75.8899 98.9058 87.0699 102.663 91.0437C105.431 93.9712 111.582 99.6634 112.946 103.442C113.32 104.477 112.946 107.841 112.946 107.841L108.107 109.041L108.005 110.741L116.072 112.241L127.061 110.14C127.061 110.14 125.941 103.897 125.447 101.842C124.615 98.3796 122.585 91.5441 121.515 88.1456C118.471 78.4758 111.631 59.328 107.3 50.1532C105.28 45.8744 100.933 37.3351 97.8229 33.7575C95.5375 31.1296 89.8781 26.8691 86.8339 25.1597C82.7529 22.8679 73.9076 19.3853 69.2906 18.5617C65.495 17.8842 57.7197 18.5617 53.8652 18.6621C52.2004 18.7041 48.7731 19.5314 47.2114 18.9616C45.9425 18.4996 43.7804 16.5401 43.2574 15.3056C43.0162 14.7358 43.1432 13.4282 43.3145 12.8347C43.6515 11.6769 45.506 9.86346 45.8062 8.69651C46.0862 7.60992 46.1727 5.19933 45.6331 4.21318C45.0585 3.16129 42.8946 1.53779 41.692 1.45379C40.4894 1.36978 38.2151 2.88371 37.2869 3.69454C36.8025 4.11822 36.1524 5.3436 35.5613 5.60475L35.5686 5.59927Z" fill="#2DFEBB"/>
</svg>
