<svg width="140" height="123" viewBox="0 0 140 123" fill="none" xmlns="http://www.w3.org/2000/svg">
<path d="M15.2484 0H20.0877L23.021 2.63016V6.4275L35.0432 23.0758H38.7108L45.7491 32.865V35.9308L48.9754 37.6856V41.335L52.346 42.6501L54.1076 45.5721L56.5995 47.4707H59.8258L78.8862 56.0887L90.471 60.3217L99.8527 66.6053L109.531 76.9741L115.105 80.1878L118.917 86.9071L124.487 92.0195L127.569 96.5484L137.392 99.1745L139.884 100.346L138.856 102.828L133.138 103.851H125.807L120.382 100.781L119.944 105.018L111.73 114.66L105.278 118.457L86.366 121.671H68.4772L47.9481 119.332H32.8442L19.9433 120.791L15.2484 122.398L12.7565 120.208L17.1544 116.41L20.822 113.053L25.22 112.321L32.4068 108.232H38.2694L40.1754 105.458L43.6946 106.625L47.7996 104.143L52.4945 105.894L55.1309 103.12L69.6489 97.2759L68.6217 88.9537L61.4389 86.4674L58.7985 84.7167L60.7046 83.5455L53.9592 78.1413L50.2955 77.5577L44.4289 84.4249L35.926 93.7703L30.7937 93.0428L22.4352 92.6031L20.6736 90.7045L24.7786 88.8058L32.4068 86.6153L34.8987 84.5688L35.7775 80.1878L39.1482 77.5577L40.031 67.6286L32.4068 61.2011L27.2745 57.9874L24.4857 50.2448H22.1422L4.98381 25.706L0 16.6523L2.05452 15.0455L3.51916 13.4386L4.98381 15.1894L7.1868 15.3373L8.06558 17.9674L10.7019 16.7962L9.6787 18.4031L12.612 22.2005L15.5413 24.247L16.6689 23.4676V24.9785L18.8678 25.4142L19.4056 24.0991L20.1359 25.9978L21.7008 25.0744L22.4833 22.9799L20.822 22.4922L21.8493 20.6935L20.1359 19.2785L17.9369 19.5223L19.4056 17.9674L18.5749 16.2126L17.0581 16.0168L18.5228 14.7017L17.2026 14.0701L18.6231 12.5632L18.278 11.2961H16.8133L18.2298 9.54132L16.4723 6.23163L14.5662 7.45078L15.6898 5.30828L14.2211 4.67273L15.2965 3.89327L14.8591 1.51094L15.2484 0Z" fill="#2DFEBB"/>
</svg>
