<svg width="122" height="132" viewBox="0 0 122 132" fill="none" xmlns="http://www.w3.org/2000/svg">
<path d="M23.5709 56.9516L24.352 42.4449L23.4039 39.6468L18.5669 39.4091L14.2847 31.8519L15.3162 31.1362L20.3929 33.1241L24.7559 35.6683L24.9148 33.6508L8.33807 26.6014L3.33407 20.9429L3.58185 15.7383L2.59343 12.5998L3.58185 13.5505L1.3761 9.96369L-0.000137043 8.5106L2.70116 9.57476L4.47869 7.99742L2.59343 0L6.99954 11.6869L10.9936 5.82318L7.98795 14.1231L8.72859 17.0131L12.93 23.868L13.4229 21.0186L14.3278 24.8593L19.4341 28.5757H23.0996L23.4713 19.6546L24.3358 22.7931L24.8286 28.1625L27.8343 32.4164L31.9926 33.2024L35.8224 32.6649L36.9347 31.4684L40.312 26.3475L41.4243 20.8133V26.8417L39.6952 30.2692L45.9543 28.7405L49.9079 26.0558L50.9798 21.5533L51.5158 24.4028L56.3339 17.3831L56.9103 11.6842L56.2504 4.82924L53.7377 0.948023L56.0431 2.51726V0.545586L58.4723 4.51054L59.6654 8.72397L59.3773 14.6714L60.5704 15.5789L61.5184 12.0272L61.89 15.4952L65.5959 10.6632L65.7602 6.78201L65.7198 2.07431L66.8321 5.79077L67.1203 11.7787L65.3912 15.2062L61.2329 19.0469L60.3684 21.5668L56.6221 25.9018L51.68 28.9566L45.728 31.5008L40.3631 33.0268L38.1224 35.1714L39.1566 35.7818L43.5573 33.2402L50.0345 31.5035L49.6898 34.1477L44.7558 39.5226L41.6882 40.1924L39.1539 43.4011L44.2198 53.5619L48.0873 55.3013L66.6193 56.1035L71.9519 57.8429L82.7517 55.3013H97.0177L109.953 68.263L111.028 93.6355L117.077 102.886L117.626 111.094L119.032 112.504L118.911 120.529L121.232 127.88V131.065H115.736L115.431 128.858L116.105 127.327L114.394 113.971L111.89 109.193L106.027 101.965L102.116 98.0434L96.1289 91.5504L98.3885 96.7577L103.519 100.739L104.427 102.973L98.6929 125.098L98.1946 131.724H92.7085L93.8316 129.974L95.8273 122.222L97.1981 110.47L95.9512 105.844L88.3482 100.218L84.1091 96.0933L63.6326 95.988L61.8416 113.536L61.9735 125.833L62.7034 129.158L58.6555 129.042L59.2561 126.897L58.2623 118.986L56.2747 113.668L54.419 96.0528L52.962 98.9104L52.1002 107.418L48.6529 126.695V130.084L43.2826 130.484V128.823L44.675 127.094L45.5368 105.158L44.0798 92.5929L37.3844 85.9459L33.9021 83.796L24.7909 74.7803C22.9946 72.2469 21.6102 65.0084 21.6102 65.0084L23.579 56.9381L23.5709 56.9516Z" fill="#2DFEBB"/>
</svg>
