<svg width="145" height="108" viewBox="0 0 145 108" fill="none" xmlns="http://www.w3.org/2000/svg">
<path d="M110.579 104.261L107.618 102.39L111.463 97.1716L112.046 92.2616L110.495 87.9221L109.724 83.2272L105.568 75.0999L100.144 68.1698L90.2158 66.8417L81.4913 63.9051L80.5042 71.5366L82.1212 85.4063L86.6997 100.389L89.3791 101.792L90.4321 106.524H72.6258L73.6788 103.4L76.424 101.231L75.8599 98.8457L70.0216 86.1732L64.8414 73.7906L64.3432 73.3697L60.3758 81.9646L56.9067 98.2004L57.4708 102.4L59.5391 104.728C59.5391 104.728 59.6519 106.833 59.163 107.244H41.902L42.0901 105.187L45.3711 102.942L47.2514 100.697L46.4053 97.0594L48.2856 82.4042L48.3796 63.9238L49.5078 58.1346L48.9437 47.5851L45.9446 44.7887L44.1584 44.6017L43.5003 43.0118L40.0406 45.8643L35.7065 41.1132L34.804 45.5182L32.9425 46.3412L31.8425 58.5274L27.2923 69.1985L24.1428 73.1453L22.2813 88.9228L20.8805 97.3867L22.1591 100.632L26.5872 101.212L28.223 105.617L26.5872 106.431L20.8711 105.037L16.9037 102.372L13.9893 90.5408V80.2157L6.75961 84.5085L0 84.9761L2.6794 82.0768L14.2243 74.5388L13.2936 51.111L15.973 28.609L19.1224 15.3847L22.2719 8.79127L30.0375 4.39564H39.1756L47.5523 1.21581L57.6024 0L68.5644 5.45246L76.7906 6.81791L87.6022 9.69846H94.3054L107.101 6.369L117.762 7.27618L128.574 13.4862L138.624 25.7566L143.494 38.3262L142.271 57.2649L139.526 78.3172L144.547 104.523L143.785 106.496H125.057L125.819 103.466L129.777 99.9774L130.238 94.5249L129.015 83.1617L126.731 76.4934L120.187 72.0978L120.488 81.0387L123.271 89.1379L126.402 99.4536L124.004 104.298" fill="#2DFEBB"/>
</svg>
