<svg width="131" height="131" viewBox="0 0 131 131" fill="none" xmlns="http://www.w3.org/2000/svg">
<g clip-path="url(#clip0_834_276)">
<path d="M128.27 73.6878V57.3128H113.287C112.028 50.791 109.466 44.5904 105.755 39.082L116.344 28.5201L102.48 14.6559L91.9177 25.2451C86.4093 21.5335 80.2086 18.9715 73.6868 17.7126V2.72949H57.3118V17.7126C50.7901 18.9715 44.5894 21.5335 39.081 25.2451L28.5191 14.6559L14.655 28.5201L25.2441 39.082C21.5325 44.5904 18.9705 50.791 17.7116 57.3128H2.72852V73.6878H17.7116C18.9705 80.2096 21.5325 86.4103 25.2441 91.9186L14.655 102.481L28.5191 116.345L39.081 105.756C44.5894 109.467 50.7901 112.029 57.3118 113.288V128.271H73.6868V113.288C80.2086 112.029 86.4093 109.467 91.9177 105.756L102.48 116.345L116.344 102.481L105.755 91.9186C109.466 86.4103 112.028 80.2096 113.287 73.6878H128.27Z" fill="#061E2A" stroke="#2DFEBB" stroke-width="4" stroke-linecap="round" stroke-linejoin="round"/>
<path d="M65.5 90.0625C79.0655 90.0625 90.0625 79.0655 90.0625 65.5C90.0625 51.9345 79.0655 40.9375 65.5 40.9375C51.9345 40.9375 40.9375 51.9345 40.9375 65.5C40.9375 79.0655 51.9345 90.0625 65.5 90.0625Z" fill="#061E2A" stroke="#2DFEBB" stroke-width="4" stroke-linecap="round" stroke-linejoin="round"/>
</g>
<defs>
<clipPath id="clip0_834_276">
<rect width="131" height="131" fill="white"/>
</clipPath>
</defs>
</svg>
