<svg width="401" height="271" viewBox="0 0 401 271" fill="none" xmlns="http://www.w3.org/2000/svg">
<mask id="mask0_758_153" style="mask-type:alpha" maskUnits="userSpaceOnUse" x="0" y="0" width="401" height="271">
<path d="M5.26617 108.368C1.16895 91.1528 36.615 64.6011 56.6928 59.7214C64.2895 57.8744 87.6869 55.5512 87.6869 55.5512C87.6869 55.5512 122.822 10.5596 139.843 3.52188C147.643 0.294648 167.643 -2.44655 173.612 3.52188C176.397 6.30682 175.4 15.7747 173.612 19.2886C164.732 36.7322 121.014 48.9655 110.297 65.3398C108.401 68.2414 109.534 75.8867 110.55 79.1965C113.826 89.8843 129.558 108.431 139.716 113.092C146.525 116.217 162.336 114.609 169.67 113.092C178.919 111.182 195.114 100.062 204.358 98.1128C228.655 92.99 281.418 86.3363 303.688 97.3254C318.074 104.426 328.995 139.624 342.317 148.567C345.53 150.725 354.93 149.442 357.297 152.509C360.786 157.034 361.7 171.727 357.297 175.372C350.162 181.277 324.616 167.207 320.247 175.372C317.228 181.01 330.312 191.766 334.439 196.655C344.232 208.271 365.452 230.794 378.585 238.434C383.27 241.161 396.271 240.893 399.08 245.53C401.89 250.167 399.056 264.485 394.351 267.601C385.652 273.36 362.133 265.365 353.36 259.717C340.67 251.547 321.894 215.353 307.639 220.3C301.758 222.342 307.654 240.714 302.91 244.738C297.243 249.545 261.85 244.957 249.729 240.49C239.819 236.84 234.283 214.837 224.868 210.05C206.599 200.762 161.471 200.626 142.885 209.263C124.538 217.788 99.9494 252.655 82.9724 263.654C74.6613 269.039 51.0403 274.079 43.5555 267.596C40.1241 264.626 40.1144 253.146 42.7681 249.467C53.903 234.006 97.5338 219.926 101.894 201.379C102.438 199.061 99.9542 193.996 97.9518 192.708C91.3224 188.441 78.0052 188.786 70.1558 192.893C66.6662 194.721 60.8581 200.077 55.1035 202.599C46.9528 206.176 9.05719 208.67 5.28075 207.688C-1.20287 205.997 -2.29643 190.934 5.28075 187.979C10.9673 185.763 51.1521 182.171 60.897 171.425C66.9237 164.781 66.3697 143.206 61.6844 135.556C53.5045 122.21 8.90166 123.59 5.27589 108.358L5.26617 108.368Z" fill="url(#paint0_linear_758_153)"/>
</mask>
<g mask="url(#mask0_758_153)">
<line x1="389.91" y1="-62.1821" x2="389.91" y2="287.182" stroke="#F0F0F0" stroke-width="2"/>
<line x1="378.094" y1="-62.1821" x2="378.094" y2="287.182" stroke="#F0F0F0" stroke-width="2"/>
<line x1="366.275" y1="-62.1821" x2="366.275" y2="287.182" stroke="#F0F0F0" stroke-width="2"/>
<line x1="354.457" y1="-62.1821" x2="354.457" y2="287.182" stroke="#F0F0F0" stroke-width="2"/>
<line x1="342.641" y1="-62.1821" x2="342.641" y2="287.182" stroke="#F0F0F0" stroke-width="2"/>
<line x1="330.822" y1="-62.1821" x2="330.822" y2="287.182" stroke="#F0F0F0" stroke-width="2"/>
<line x1="319.004" y1="-62.1821" x2="319.004" y2="287.182" stroke="#F0F0F0" stroke-width="2"/>
<line x1="307.186" y1="-62.1821" x2="307.186" y2="287.182" stroke="#F0F0F0" stroke-width="2"/>
<line x1="295.369" y1="-62.1821" x2="295.369" y2="287.182" stroke="#F0F0F0" stroke-width="2"/>
<line x1="283.551" y1="-62.1821" x2="283.551" y2="287.182" stroke="#F0F0F0" stroke-width="2"/>
<line x1="271.732" y1="-62.1821" x2="271.732" y2="287.182" stroke="#F0F0F0" stroke-width="2"/>
<line x1="259.916" y1="-62.1821" x2="259.916" y2="287.182" stroke="#F0F0F0" stroke-width="2"/>
<line x1="248.098" y1="-62.1821" x2="248.098" y2="287.182" stroke="#F0F0F0" stroke-width="2"/>
<line x1="236.279" y1="-62.1821" x2="236.279" y2="287.182" stroke="#F0F0F0" stroke-width="2"/>
<line x1="224.461" y1="-62.1821" x2="224.461" y2="287.182" stroke="#F0F0F0" stroke-width="2"/>
<line x1="212.645" y1="-62.1821" x2="212.645" y2="287.182" stroke="#F0F0F0" stroke-width="2"/>
<line x1="200.826" y1="-62.1821" x2="200.826" y2="287.182" stroke="#F0F0F0" stroke-width="2"/>
<line x1="189.008" y1="-62.1821" x2="189.008" y2="287.182" stroke="#F0F0F0" stroke-width="2"/>
<line x1="177.191" y1="-62.1821" x2="177.191" y2="287.182" stroke="#F0F0F0" stroke-width="2"/>
<line x1="165.373" y1="-62.1821" x2="165.373" y2="287.182" stroke="#F0F0F0" stroke-width="2"/>
<line x1="153.555" y1="-62.1821" x2="153.555" y2="287.182" stroke="#F0F0F0" stroke-width="2"/>
<line x1="141.736" y1="-62.1821" x2="141.736" y2="287.182" stroke="#F0F0F0" stroke-width="2"/>
<line x1="129.92" y1="-62.1821" x2="129.92" y2="287.182" stroke="#F0F0F0" stroke-width="2"/>
<line x1="118.102" y1="-62.1821" x2="118.102" y2="287.182" stroke="#F0F0F0" stroke-width="2"/>
<line x1="106.283" y1="-62.1821" x2="106.283" y2="287.182" stroke="#F0F0F0" stroke-width="2"/>
<line x1="94.4648" y1="-62.1821" x2="94.4648" y2="287.182" stroke="#F0F0F0" stroke-width="2"/>
<line x1="82.6484" y1="-62.1821" x2="82.6484" y2="287.182" stroke="#F0F0F0" stroke-width="2"/>
<line x1="70.8301" y1="-62.1821" x2="70.8301" y2="287.182" stroke="#F0F0F0" stroke-width="2"/>
<line x1="59.0117" y1="-62.1821" x2="59.0117" y2="287.182" stroke="#F0F0F0" stroke-width="2"/>
<line x1="47.1953" y1="-62.1821" x2="47.1953" y2="287.182" stroke="#F0F0F0" stroke-width="2"/>
<line x1="35.377" y1="-62.1821" x2="35.377" y2="287.182" stroke="#F0F0F0" stroke-width="2"/>
<line x1="23.5586" y1="-62.1821" x2="23.5586" y2="287.182" stroke="#F0F0F0" stroke-width="2"/>
<line x1="11.7402" y1="-62.1821" x2="11.7402" y2="287.182" stroke="#F0F0F0" stroke-width="2"/>
<line x1="-0.0761719" y1="-62.1821" x2="-0.0761719" y2="287.182" stroke="#F0F0F0" stroke-width="2"/>
</g>
<defs>
<linearGradient id="paint0_linear_758_153" x1="200.115" y1="-0.00182992" x2="200.115" y2="270.663" gradientUnits="userSpaceOnUse">
<stop offset="0.07" stop-color="#57BBE2"/>
<stop offset="0.3" stop-color="#B455D9"/>
<stop offset="0.48" stop-color="#EC208F"/>
<stop offset="0.71" stop-color="#EE713C"/>
<stop offset="0.86" stop-color="#F48735"/>
<stop offset="1" stop-color="#FF475B"/>
</linearGradient>
</defs>
</svg>
