<svg width="127" height="115" viewBox="0 0 127 115" fill="none" xmlns="http://www.w3.org/2000/svg">
<path d="M36.7959 4.20898C36.5451 4.53936 36.2708 4.93362 35.998 5.2334L35.999 5.23535L36.7393 5.9082C36.5474 6.11898 36.2647 6.39556 35.9053 6.55566L35.9043 6.55273C35.467 6.74619 34.9578 6.81232 34.5107 6.83496L34.46 5.83691V5.83496C33.7921 5.86877 33.0058 5.80174 32.3232 5.73438L32.3223 5.73633L32.2246 6.73145C31.7982 6.68936 31.456 6.65125 31.1914 6.63379L31.1924 6.63281C30.7164 6.60167 30.0947 6.58833 29.3936 6.58398L29.3994 5.58398C28.2193 5.57668 26.8635 5.59843 25.6826 5.61621L25.6963 6.61621C24.9906 6.62684 24.3384 6.63672 23.8232 6.63672C23.3259 6.63672 22.6496 6.70267 21.832 6.79199L21.7236 5.79785C20.377 5.94497 18.8252 6.12817 17.5205 6.07617L17.5195 6.08008L17.4795 7.0791C16.6216 7.04483 15.7123 6.91145 14.9912 6.50879L14.9902 6.50977C14.4493 6.20785 14.0919 5.66981 13.8535 5.24512L14.7256 4.75488L14.7275 4.75293C14.3719 4.11888 14.0627 3.2955 13.7256 2.63672L12.8359 3.0918C12.6848 2.79648 12.5698 2.62751 12.4941 2.54004L12.4316 2.47852L12.4307 2.47754C12.2212 2.31291 11.8788 2.10791 11.4355 1.89746L11.8643 0.995117C11.0723 0.619123 10.1092 0.283577 9.25879 0.115234L9.06543 1.0957C8.5907 1.00171 8.23782 0.983574 8.02734 1.0127C7.92936 1.02618 7.73056 1.08881 7.43945 1.23926L6.98145 0.351562C6.43909 0.631797 5.85293 1.04745 5.38574 1.4541L6.04102 2.20898C5.78671 2.43042 5.6001 2.62417 5.49512 2.75977C5.40513 2.8761 5.28762 3.07873 5.15918 3.36523L4.24805 2.95605C4.0059 3.49618 3.79688 4.14573 3.6582 4.7207L4.62891 4.95508C4.55234 5.27257 4.50505 5.5411 4.4873 5.72949V5.73145C4.44493 6.17555 4.4961 6.80116 4.62109 7.58105L3.63574 7.73828C3.84708 9.05716 4.2173 10.5661 4.46289 11.8857H4.46387L5.44629 11.7031C5.57718 12.4065 5.68387 13.1136 5.70215 13.7354L5.70508 13.9961C5.69737 14.5643 5.60289 15.2385 5.48145 15.917L4.49707 15.7412L4.49512 15.7402C4.29719 16.8461 4.00054 18.1087 3.77637 19.2129L4.75488 19.4121C4.62133 20.07 4.5246 20.6287 4.48828 21.0488C4.45495 21.4351 4.42131 21.8818 4.38965 22.3711L3.39355 22.3066C3.34102 23.1185 3.29388 24.0426 3.2627 25.002L4.25977 25.0342C4.23117 25.9138 4.21675 26.8213 4.22266 27.6943L3.22363 27.7002C3.23013 28.6619 3.26321 29.5865 3.33008 30.3965L4.32422 30.3145C4.36341 30.789 4.41422 31.2084 4.47656 31.5596V31.5605C4.51415 31.7723 4.61893 32.0848 4.79297 32.5049L3.87207 32.8867C4.16718 33.599 4.55826 34.4026 4.83496 35.1182H4.83594L5.76855 34.7578C5.92157 35.1536 6.06874 35.5913 6.13379 36.0107L6.15625 36.1895C6.20204 36.6622 6.1898 37.1754 6.14453 37.6982L5.14844 37.6123L5.14746 37.6113C5.07878 38.4049 4.92033 39.3031 4.72754 40.2344L4.72852 40.2354L5.70801 40.4375C5.52847 41.3047 5.31749 42.2047 5.12695 43.0498L4.15234 42.8301C3.94394 43.7545 3.75408 44.6467 3.63086 45.4355L4.61523 45.5898C4.54316 46.0513 4.50043 46.4511 4.49121 46.7832C4.48055 47.1721 4.48716 47.6459 4.50879 48.1904L3.50977 48.2295C3.54394 49.09 3.61534 50.0933 3.70898 51.1709L4.7041 51.0859C4.78489 52.0154 4.88291 53.0027 4.99121 54.0029L3.99805 54.1094C4.10431 55.0908 4.22018 56.0827 4.33691 57.043L5.32812 56.9229C5.4528 57.9485 5.57875 58.9387 5.69727 59.8408L4.70703 59.9697C4.85905 61.1269 4.999 62.1395 5.10547 62.8994L6.09375 62.7617C6.15715 63.2142 6.20926 63.5772 6.24512 63.8262C6.26302 63.9504 6.27668 64.0465 6.28613 64.1113C6.29083 64.1435 6.29446 64.1681 6.29688 64.1846C6.29805 64.1926 6.2992 64.199 6.2998 64.2031C6.30011 64.2052 6.30063 64.207 6.30078 64.208V64.209L6.33496 64.4385L6.26465 64.6582L5.82227 66.0488L4.86914 65.7461V65.7451L3.98438 68.5273L4.93652 68.8311L4.05176 71.6123L3.09961 71.3096L2.21387 74.0898V74.0908L3.16602 74.3945L2.28125 77.1758L1.3291 76.873L0.444336 79.6543H0.443359L1.39648 79.957L1.0293 81.1123L1.36328 82.9531L0.380859 83.1309L1.13867 87.3037L2.12207 87.126L2.44531 88.9004L3.50879 89.9492L2.80762 90.6602L5.38672 93.2021L6.08789 92.4912L8.66699 95.0322L7.96582 95.7432L10.5449 98.2852L11.2461 97.5732L12.377 98.6865L14.1689 99.3154L13.8398 100.259L17.8486 101.664L18.1787 100.721L19.7637 101.276L19.5996 101.092L19.8828 100.494L20.0098 100.227L20.9131 100.655L21.167 100.12L20.2637 99.6914L20.3896 99.4238L20.6318 98.916L20.4678 98.7744L20.8887 98.0576L20.9932 97.8809L21.8555 98.3857L22.0635 98.0332H22.0625L21.2002 97.5273L21.3047 97.3496L21.5312 96.9639L21.2002 96.6172L21.5293 95.9834L21.665 95.7236L22.5527 96.1846L22.8223 95.6631L21.9346 95.2031L22.0703 94.9434L22.2168 94.6592L22.4785 94.5244L22.7988 94.0928L22.0723 93.5518L22.0713 93.5527L21.4756 94.3555L21.1113 94.0859L20.6484 93.7422L20.7139 93.1689L20.8076 92.3477L21.8008 92.4609L21.9531 91.1309C21.8582 91.1626 21.7539 91.1952 21.6406 91.2246L21.5215 90.7646L20.9951 90.7051L21.0381 90.3291C20.7116 90.3818 20.3289 90.3973 19.918 90.3281L19.917 90.3311L19.751 91.3174C19.449 91.2665 19.135 91.1797 18.8174 91.0459H18.8164C18.3341 90.8424 17.8617 90.5626 17.4268 90.249L18.0117 89.4375L18.0137 89.4355C17.2248 88.8669 16.5152 88.1286 16.1064 87.4648L16.1035 87.4668L15.252 87.9912C15.0608 87.6807 14.8941 87.3368 14.8066 86.9824C14.7211 86.6358 14.6878 86.1771 14.9043 85.7334L14.9766 85.5986C15.3585 84.9556 16.0208 84.7392 16.5195 84.668L16.6611 85.6572L16.6621 85.6602C17.2592 85.575 18.0435 85.6938 18.7432 85.7646L18.8438 84.7705C19.235 84.8101 19.4945 84.8207 19.6582 84.7998H19.6592C20.1844 84.7335 20.7983 84.4668 21.4883 83.999L22.0488 84.8252C23.3278 83.958 24.5819 82.6503 25.665 81.4346L24.918 80.7705C25.2176 80.4343 25.5049 80.1045 25.7793 79.7891C26.0521 79.4755 26.3153 79.1729 26.5586 78.9014L26.7041 78.7227C26.8617 78.5141 27.0565 78.2173 27.2988 77.8369L28.1426 78.373C28.6587 77.5626 29.2485 76.6069 29.8496 76.0059H29.8486L29.1416 75.2988C29.5667 74.8737 30.2982 74.291 31.2012 74.4365L31.3838 74.4756C32.4181 74.7512 32.8853 75.732 33.1152 76.4658L32.1611 76.7646C32.4668 77.74 32.5513 79.0807 32.5869 80.2334L33.5859 80.2031C33.6085 80.9353 33.6111 81.5046 33.6348 81.9277C33.668 82.5155 33.6545 83.2349 33.6123 84.0234L32.6143 83.9707L32.6133 83.9697C32.551 85.1322 32.4186 86.5088 32.2539 87.9355L32.2559 87.9365L33.249 88.0518C33.0957 89.3796 32.9138 90.748 32.7324 92.0264L31.7422 91.8857L31.7402 91.8848C31.5267 93.3897 31.3159 94.7738 31.1484 95.8223H31.1475L32.1357 95.9805C32.0395 96.5832 31.9584 97.0757 31.9014 97.418C31.8729 97.5888 31.8504 97.7225 31.835 97.8135C31.8273 97.859 31.8214 97.8944 31.8174 97.918C31.8154 97.9295 31.8135 97.9383 31.8125 97.9443C31.812 97.9471 31.8118 97.9496 31.8115 97.9512L31.8105 97.9531V97.9541L31.7959 98.0381L31.7676 98.1182V98.1201C31.7672 98.1212 31.7664 98.1229 31.7656 98.125L31.7314 98.2227C31.7076 98.2905 31.6724 98.39 31.6289 98.5146C31.5418 98.7644 31.4202 99.1164 31.2812 99.5244L30.3369 99.2021C30.049 100.048 29.6869 101.132 29.4072 102.057H29.4062L30.3633 102.346C30.2328 102.777 30.1259 103.154 30.0537 103.445L29.9932 103.707C29.9581 103.876 29.9361 104.139 29.9209 104.509L28.9229 104.468C28.8975 105.085 28.8957 105.798 28.8291 106.403V106.404L29.8232 106.514C29.7795 106.91 29.7009 107.37 29.5215 107.762V107.761C29.3579 108.12 29.1082 108.503 28.8379 108.861L28.04 108.259L28.0391 108.258C27.6267 108.805 27.0859 109.39 26.5693 109.838V109.839L27.2246 110.594C26.8838 110.889 26.5107 111.17 26.1484 111.355V111.354C25.6227 111.624 24.8843 111.797 24.1738 111.92L24.0039 110.935V110.934C22.8972 111.125 21.5564 111.235 20.5059 111.297L20.5635 112.296C20.0473 112.326 19.5997 112.345 19.2812 112.356C19.2371 112.358 19.1954 112.359 19.1562 112.36L19.0049 112.502L18.8799 112.368C18.8485 112.369 18.8232 112.37 18.8047 112.37C18.793 112.37 18.7836 112.371 18.7773 112.371H18.7676L18.7656 112.247L18.3193 111.774V111.773L17.7744 112.287L18.2998 112.692L17.9727 113.118L18.1494 113.308L17.8398 113.599L18.998 114.491L19.6084 113.699L19.9932 113.995H21.3125V114.995H24.6338V113.995H27.9551V114.995H31.2764V113.995H34.5977V114.995H37.9189V113.995H39.0586C39.0735 113.974 39.0886 113.951 39.1045 113.929C39.3209 113.619 39.6259 113.182 39.9795 112.674L40.7988 113.243C41.5162 112.211 42.4352 110.886 43.2236 109.725L42.3965 109.164C42.8563 108.487 43.2687 107.872 43.5693 107.407L43.7373 107.131C43.9077 106.837 44.0829 106.489 44.2637 106.09L45.1738 106.502C45.5736 105.62 45.9688 104.571 46.3711 103.443L45.4287 103.108C45.8005 102.066 46.1189 101.131 46.5176 100.01L47.46 100.345H47.4629C47.8336 99.3025 48.2182 98.2589 48.627 97.2725H48.625L47.7012 96.8896C48.1569 95.7899 48.6518 94.7337 49.1982 93.8115L50.0576 94.3213H50.0596C50.7068 93.229 51.4157 92.3647 52.21 91.8789L52.208 91.8779L51.6865 91.0254C52.2372 90.6884 52.8496 90.4756 53.5156 90.4473H53.8047C54.7228 90.4817 55.4694 91.0124 56.0361 91.6201L55.3047 92.3018C55.9766 93.0223 56.5906 94.1347 57.1338 95.3926H57.1348L58.0527 94.9961C58.536 96.1154 58.9601 97.334 59.3174 98.4902L58.3623 98.7861H58.3613C58.7629 100.086 59.084 101.324 59.3115 102.27H59.3125L60.2842 102.036C60.4139 102.575 60.5144 103.022 60.582 103.335C60.6158 103.491 60.6418 103.614 60.6592 103.698C60.6679 103.741 60.6742 103.773 60.6787 103.796C60.6809 103.807 60.6824 103.815 60.6836 103.821C60.6841 103.824 60.6852 103.826 60.6855 103.828V103.831L59.7051 104.025L60.6855 103.832L60.7383 104.099L60.6484 104.355L60.4727 104.859L59.5293 104.528V104.527L59.1777 105.535H59.1768L60.1211 105.865L59.9443 106.368L59.8301 106.696L59.5371 106.882L58.9844 107.234L58.4473 106.391V106.39L57.3408 107.094V107.095L57.8779 107.938L57.3242 108.29L57.0459 108.468L56.7168 108.444L55.6602 108.369L55.7305 107.371L55.7314 107.37L53.6182 107.221L53.5469 108.218L52.4902 108.143L52.5088 107.893L52.2852 107.799L51.7314 109.106V109.107L52.6523 109.497L52.5361 109.771L52.584 109.893L52.4648 109.939L52.376 110.15L52.165 110.061L51.6562 110.265L52.0586 111.271L52.3125 111.169L52.3457 110.777L54.3838 110.954L54.2979 111.95L58.373 112.302L58.459 111.306L60.3682 111.47L62.0156 111.186L62.1865 112.171H62.1875L65.7373 111.557H65.7363L65.5664 110.571L69.1172 109.958L69.2871 110.943H69.2881L72.8389 110.329H72.8379L72.668 109.344L73.6113 109.181C73.6107 108.949 73.6086 108.676 73.6084 108.369L74.6084 108.368C74.608 107.486 74.6123 106.321 74.623 105.055H74.6211L73.6211 105.046C73.6302 103.975 73.6457 102.83 73.6699 101.719L74.6699 101.74H74.6729C74.6987 100.552 74.7332 99.4038 74.7842 98.4287H74.7822L73.7842 98.377C73.8178 97.7331 73.8581 97.1513 73.9072 96.6758C73.9476 96.284 74.0062 95.8398 74.0791 95.3623L75.0674 95.5137H75.0684C75.1845 94.7528 75.3412 93.8903 75.5293 93.001H75.5283L74.5498 92.7939C74.7277 91.9532 74.9338 91.0861 75.1602 90.2539L76.125 90.5156H76.127C76.3662 89.6363 76.6293 88.8005 76.9043 88.083H76.9014L75.9678 87.7246C76.1453 87.2613 76.3341 86.8277 76.5342 86.4492L76.9268 85.7178C77.07 85.4549 77.2256 85.1746 77.3916 84.8809L78.2627 85.3721H78.2646C78.7828 84.4552 79.4057 83.4068 80.0986 82.3633H80.0977L79.2646 81.8105C79.9313 80.8066 80.6693 79.7928 81.4463 78.8896L82.2041 79.541C83.0534 78.5538 83.9421 77.7195 84.8213 77.2041L84.8203 77.2031L84.3145 76.3408C84.9644 75.9598 85.6784 75.6879 86.4287 75.6523C87.1812 75.6167 87.9256 75.7556 88.6455 76.0117L88.3105 76.9541C89.3519 77.3246 90.4191 78.012 91.4893 78.8984L91.4912 78.8965L92.1299 78.127C93.0771 78.9117 94.0128 79.836 94.9199 80.8213L94.1846 81.499C95.0144 82.4004 95.829 83.3688 96.6201 84.3447L96.6221 84.3428L97.3994 83.7129C98.2109 84.7139 98.9936 85.7235 99.7305 86.6758L98.9404 87.2871C99.7691 88.358 100.548 89.3672 101.256 90.2324L102.028 89.5996C102.35 89.9921 102.652 90.3478 102.934 90.6621L103.208 90.9629C103.605 91.3867 104.077 91.8723 104.602 92.4092L103.887 93.1064C104.742 93.9814 105.72 94.9767 106.713 96.0264L107.439 95.3389C108.37 96.3233 109.32 97.3642 110.194 98.4053L109.429 99.0479L109.427 99.0488C110.363 100.164 111.208 101.273 111.841 102.312H111.842L112.696 101.791C113.056 102.381 113.364 102.97 113.592 103.544L113.685 103.789V103.79C113.831 104.198 113.88 104.724 113.898 105.183L112.899 105.224C112.929 105.933 112.888 106.783 112.841 107.446V107.447L113.838 107.519C113.814 107.848 113.79 108.132 113.771 108.335C113.761 108.436 113.753 108.518 113.747 108.574C113.744 108.602 113.742 108.624 113.74 108.64C113.739 108.647 113.739 108.653 113.738 108.657C113.738 108.659 113.737 108.661 113.737 108.662V108.665L113.661 109.356L112.986 109.525L111.778 109.827L111.535 108.857V108.856L109.12 109.46V109.461L109.362 110.431L108.64 110.611L110.009 110.869L109.824 111.852L113.851 112.605L114.034 111.623L115.86 111.966L117.045 111.737L117.234 112.719L119.978 112.19H119.977L119.787 111.209L122.529 110.681L122.719 111.661L125.461 111.133L125.271 110.152L125.674 110.074C125.616 109.757 125.547 109.377 125.47 108.957L126.451 108.776C126.223 107.532 125.928 105.938 125.661 104.596L124.681 104.791C124.514 103.952 124.363 103.226 124.249 102.748C124.129 102.245 123.983 101.666 123.817 101.033L124.783 100.78C124.524 99.7921 124.221 98.6795 123.896 97.5244L123.839 97.3213L122.877 97.5928C122.557 96.4593 122.219 95.2885 121.888 94.1572L122.848 93.876C122.489 92.6523 122.138 91.4751 121.823 90.4404L120.866 90.7314L120.343 89.0273C120.183 88.5168 120.013 87.9791 119.833 87.418L120.785 87.1133C120.462 86.1053 120.108 85.0219 119.729 83.8789L118.781 84.1934C118.44 83.1655 118.08 82.0891 117.701 80.9766L118.646 80.6543C118.291 79.6094 117.923 78.5321 117.541 77.4336L117.54 77.4346L116.596 77.7627C116.231 76.7127 115.855 75.6428 115.472 74.5615L116.414 74.2275C116.038 73.1678 115.654 72.0977 115.266 71.0244L114.326 71.3643C113.942 70.3013 113.553 69.2358 113.161 68.1758L114.098 67.8291C113.702 66.7585 113.305 65.6932 112.908 64.6416L111.974 64.9951C111.568 63.9223 111.163 62.8634 110.762 61.8281L111.694 61.4668C111.274 60.3825 110.854 59.3242 110.443 58.2998L109.518 58.6709C109.081 57.5818 108.652 56.5333 108.235 55.5371L109.155 55.1523C108.69 54.0413 108.241 52.9933 107.81 52.0264L106.897 52.4346C106.778 52.1671 106.661 51.9056 106.545 51.6514L106.201 50.9092C105.998 50.4762 105.772 49.999 105.525 49.4873L106.425 49.0527C106.006 48.1854 105.532 47.2203 105.017 46.2041L104.125 46.6562C103.667 45.7519 103.177 44.8067 102.669 43.8545L103.552 43.3838C103.055 42.4527 102.539 41.5146 102.019 40.5986L101.15 41.0928C100.618 40.1556 100.08 39.2452 99.5498 38.3945L100.396 37.8672C99.7934 36.8993 99.1996 36.0028 98.6299 35.2266L97.8242 35.8174C97.5794 35.4838 97.342 35.1774 97.1143 34.9004L96.8896 34.6338C96.5787 34.2732 96.1913 33.8695 95.7422 33.4355L96.4355 32.7188C95.6766 31.9855 94.774 31.1916 93.8096 30.3984L93.1758 31.1699C92.2982 30.4482 91.3675 29.7255 90.4512 29.0479L91.0459 28.2441C90.043 27.5025 89.0566 26.8157 88.1709 26.2412L87.627 27.0791C87.0975 26.7357 86.6111 26.4372 86.1855 26.1963C85.7877 25.971 85.3384 25.732 84.8467 25.4824L85.2979 24.5918C84.4521 24.1626 83.4943 23.7098 82.4688 23.2529L82.0615 24.1641C81.1552 23.7603 80.1942 23.3535 79.2109 22.9561L79.5859 22.0293C78.6225 21.6399 77.6385 21.2603 76.6631 20.9033L76.3193 21.8418C75.3236 21.4774 74.339 21.1378 73.3975 20.8359L73.7021 19.8857C72.6323 19.5428 71.6151 19.2451 70.6943 19.0166L70.4531 19.9873C70.1879 19.9215 69.9327 19.8617 69.6885 19.8086L68.9893 19.6689C68.4779 19.5769 67.8708 19.5088 67.1865 19.4629L67.2539 18.4688C66.0963 18.391 64.7748 18.3739 63.4004 18.3945L63.4141 19.3936C62.1597 19.4124 60.8572 19.4609 59.5908 19.5186L59.5459 18.5205C58.1755 18.5829 56.8547 18.6537 55.6934 18.709V18.71L55.7412 19.709C55.0298 19.7429 54.371 19.77 53.7949 19.7852H53.7939C53.4055 19.7951 52.8788 19.8568 52.2363 19.9414L52.1064 18.9502C51.045 19.0899 49.8241 19.267 48.7783 19.2842V19.2871L48.7949 20.2861C48.1169 20.2973 47.3914 20.2495 46.7822 20.0254C46.3151 19.8538 45.8175 19.5568 45.3545 19.2246L45.9375 18.4121L45.9395 18.4092C45.2332 17.9025 44.4869 17.2143 43.9316 16.5488L43.9297 16.5508L43.1611 17.1914C42.7946 16.7521 42.4575 16.267 42.2588 15.7939C42.1305 15.4883 42.0808 15.1473 42.0605 14.8633L43.0586 14.792L43.0605 14.791C43.0325 14.3968 43.0596 13.9337 43.1152 13.5361H43.1143L42.124 13.3975C42.1616 13.129 42.2132 12.8652 42.2764 12.6445V12.6426L42.334 12.4658C42.4819 12.0534 42.7238 11.6464 42.9561 11.292L43.792 11.8398H43.7939C44.2164 11.1953 44.7742 10.4883 45.1895 9.8418L44.3486 9.30273C44.5912 8.92518 44.7154 8.66553 44.7559 8.50684L44.7988 8.31543C44.8405 8.10542 44.8774 7.83895 44.9043 7.53516L45.9004 7.62305C45.9648 6.89452 45.9651 6.04778 45.8633 5.33691L44.875 5.47852C44.8332 5.18645 44.7776 4.97368 44.7246 4.83398L44.6729 4.71777C44.5847 4.55505 44.3885 4.30338 44.0801 4.00391L44.7764 3.28711C44.2143 2.74138 43.4727 2.19726 42.7822 1.84668L42.3301 2.7373C41.9522 2.54542 41.6857 2.47072 41.5479 2.46094C41.4346 2.45296 41.1783 2.49144 40.7676 2.6543L40.4004 1.72559C39.6774 2.01216 38.8764 2.49047 38.2148 2.95215L38.7861 3.77148C38.4131 4.03184 38.0969 4.27931 37.8818 4.46875C37.833 4.51185 37.7424 4.61504 37.5918 4.81348L36.7959 4.20898ZM107.888 110.19L107.837 111.046V111.047L107.892 111.05L107.995 110.491L108.1 110.511L108.021 110.198L107.888 110.19ZM21.5234 102.788L21.5879 102.804L21.5918 102.785L21.5234 102.788ZM20.9775 101.139L20.5557 101.513L20.6748 101.543L20.4307 102.513L20.9844 102.652L20.8047 102.45L20.6133 102.234L21.3613 101.57L20.9785 101.138L20.9775 101.139ZM22.1572 101.76V101.761L22.165 101.918L22.4092 101.98L22.3438 102.242L22.6172 102.632L23.3848 102.094L23.3711 101.785L23.3174 101.709L22.1572 101.76ZM23.5879 100.11L24.7764 99.9521L24.8154 99.7266L24.8164 99.7256L23.5059 99.4961L23.5879 100.11ZM21.8193 98.9404L21.9092 98.96L21.7051 99.9375L21.8447 99.9668L21.7734 99.9062L22.4287 99.1514L22.4297 99.1504L22.1436 98.9033L21.918 98.8271L21.8193 98.9404ZM24.0029 97.4219L24.0176 97.4277L24.0107 97.4492L24.2285 98.2246H24.2295L25.0947 97.9795L25.1631 97.6396L25.1641 97.6387L23.998 97.4043L24.0029 97.4219ZM22.6055 96.6426L22.3682 96.8682L22.4883 96.9092L22.8701 97.0391L22.8164 97.1992L22.9834 97.04L22.9844 97.0391L22.6064 96.6416L22.6055 96.6426ZM23.5791 94.2588V94.2598L23.7627 94.9912L24.2363 94.749H24.2354L24.0322 94.3516L23.6992 94.2578L23.708 94.2266L23.5791 94.2588Z" stroke="#2DFEBB" stroke-width="2" stroke-dasharray="3.33 3.33"/>
</svg>
