<svg width="122" height="133" viewBox="0 0 122 133" fill="none" xmlns="http://www.w3.org/2000/svg">
<mask id="path-1-inside-1_629_51" fill="white">
<path d="M23.7202 57.1488L24.5061 42.5919L23.5521 39.7841L18.6845 39.5456L14.3751 31.9622L15.4132 31.244L20.522 33.2388L24.9127 35.7918L25.0726 33.7673L8.39086 26.6935L3.35518 21.0154L3.60453 15.7927L2.60985 12.6434L3.60453 13.5974L1.38482 9.99819L-0.000137437 8.54006L2.71826 9.60791L4.50704 8.02511L2.60985 0L7.04385 11.7273L11.0632 5.84334L8.03853 14.172L8.78385 17.072L13.0119 23.9507L13.5079 21.0913L14.4185 24.9453L19.5572 28.6747H23.2459L23.6199 19.7226L24.4899 22.872L24.9859 28.26L28.0105 32.5287L32.1952 33.3174L36.0492 32.778L37.1685 31.5774L40.5672 26.4387L41.6865 20.8853V26.9347L39.9465 30.374L46.2452 28.84L50.2239 26.146L51.3026 21.628L51.8419 24.4873L56.6906 17.4433L57.2706 11.7246L56.6066 4.84596L54.0779 0.951305L56.3979 2.52597V0.547475L58.8426 4.52615L60.0432 8.75417L59.7532 14.7222L60.9539 15.6328L61.9079 12.0688L62.2819 15.5488L66.0112 10.7001L66.1766 6.80549L66.1359 2.08149L67.2552 5.81082L67.5452 11.8195L65.8052 15.2588L61.6206 19.1128L60.7506 21.6415L56.9806 25.9915L52.0073 29.0568L46.0176 31.6099L40.6187 33.1412L38.3638 35.2931L39.4045 35.9057L43.8331 33.3553L50.3513 31.6126L50.0044 34.2659L45.0391 39.6594L41.9521 40.3315L39.4018 43.5513L44.4998 53.7474L48.3918 55.4928L67.0411 56.2977L72.4075 58.0431L83.2757 55.4928H97.632L110.649 68.4994L111.731 93.9596L117.818 103.242L118.371 111.479L119.786 112.894L119.664 120.946L122 128.323V131.519H116.468L116.162 129.304L116.84 127.768L115.119 114.365L112.598 109.571L106.698 102.318L102.762 98.3828L96.7376 91.8673L99.0115 97.0927L104.175 101.088L105.088 103.329L99.3177 125.532L98.8163 132.18H93.2955L94.4257 130.424L96.434 122.645L97.8135 110.853L96.5587 106.21L88.9076 100.565L84.6416 96.426L64.0354 96.3203L62.2331 113.929L62.3659 126.269L63.1004 129.605L59.0269 129.489L59.6312 127.337L58.6312 119.398L56.631 114.062L54.7636 96.3853L53.2973 99.2528L52.4301 107.79L48.9609 127.133V130.535L43.5566 130.936V129.269L44.9578 127.534L45.8251 105.522L44.3589 92.9135L37.6211 86.2435L34.1168 84.0861L24.9479 75.0393C23.1402 72.497 21.7471 65.2335 21.7471 65.2335L23.7283 57.1352L23.7202 57.1488Z"/>
</mask>
<path d="M23.7202 57.1488L24.5061 42.5919L23.5521 39.7841L18.6845 39.5456L14.3751 31.9622L15.4132 31.244L20.522 33.2388L24.9127 35.7918L25.0726 33.7673L8.39086 26.6935L3.35518 21.0154L3.60453 15.7927L2.60985 12.6434L3.60453 13.5974L1.38482 9.99819L-0.000137437 8.54006L2.71826 9.60791L4.50704 8.02511L2.60985 0L7.04385 11.7273L11.0632 5.84334L8.03853 14.172L8.78385 17.072L13.0119 23.9507L13.5079 21.0913L14.4185 24.9453L19.5572 28.6747H23.2459L23.6199 19.7226L24.4899 22.872L24.9859 28.26L28.0105 32.5287L32.1952 33.3174L36.0492 32.778L37.1685 31.5774L40.5672 26.4387L41.6865 20.8853V26.9347L39.9465 30.374L46.2452 28.84L50.2239 26.146L51.3026 21.628L51.8419 24.4873L56.6906 17.4433L57.2706 11.7246L56.6066 4.84596L54.0779 0.951305L56.3979 2.52597V0.547475L58.8426 4.52615L60.0432 8.75417L59.7532 14.7222L60.9539 15.6328L61.9079 12.0688L62.2819 15.5488L66.0112 10.7001L66.1766 6.80549L66.1359 2.08149L67.2552 5.81082L67.5452 11.8195L65.8052 15.2588L61.6206 19.1128L60.7506 21.6415L56.9806 25.9915L52.0073 29.0568L46.0176 31.6099L40.6187 33.1412L38.3638 35.2931L39.4045 35.9057L43.8331 33.3553L50.3513 31.6126L50.0044 34.2659L45.0391 39.6594L41.9521 40.3315L39.4018 43.5513L44.4998 53.7474L48.3918 55.4928L67.0411 56.2977L72.4075 58.0431L83.2757 55.4928H97.632L110.649 68.4994L111.731 93.9596L117.818 103.242L118.371 111.479L119.786 112.894L119.664 120.946L122 128.323V131.519H116.468L116.162 129.304L116.84 127.768L115.119 114.365L112.598 109.571L106.698 102.318L102.762 98.3828L96.7376 91.8673L99.0115 97.0927L104.175 101.088L105.088 103.329L99.3177 125.532L98.8163 132.18H93.2955L94.4257 130.424L96.434 122.645L97.8135 110.853L96.5587 106.21L88.9076 100.565L84.6416 96.426L64.0354 96.3203L62.2331 113.929L62.3659 126.269L63.1004 129.605L59.0269 129.489L59.6312 127.337L58.6312 119.398L56.631 114.062L54.7636 96.3853L53.2973 99.2528L52.4301 107.79L48.9609 127.133V130.535L43.5566 130.936V129.269L44.9578 127.534L45.8251 105.522L44.3589 92.9135L37.6211 86.2435L34.1168 84.0861L24.9479 75.0393C23.1402 72.497 21.7471 65.2335 21.7471 65.2335L23.7283 57.1352L23.7202 57.1488Z" stroke="#2DFEBB" stroke-width="4" stroke-dasharray="3.81 3.81" mask="url(#path-1-inside-1_629_51)"/>
</svg>
