<svg width="145" height="108" viewBox="0 0 145 108" fill="none" xmlns="http://www.w3.org/2000/svg">
<mask id="path-1-inside-1_629_54" fill="white">
<path d="M110.696 104.917L107.731 103.035L111.58 97.7835L112.164 92.8425L110.611 88.4757L109.839 83.7512L105.68 75.5728L100.249 68.599L90.3109 67.2626L81.5772 64.3075L80.589 71.9871L82.2078 85.944L86.7911 101.021L89.4733 102.433L90.5274 107.195H72.7023L73.7564 104.051L76.5045 101.868L75.9398 99.4681L70.0954 86.7158L64.9098 74.2552L64.411 73.8317L60.4394 82.4807L56.9666 98.8187L57.5313 103.044L59.6018 105.388C59.6018 105.388 59.7147 107.505 59.2253 107.919H41.9462L42.1344 105.849L45.419 103.59L47.3012 101.332L46.4542 97.6705L48.3365 82.923L48.4306 64.3263L49.5599 58.5007L48.9953 47.8847L45.9931 45.0707L44.2049 44.8825L43.5461 43.2826L40.0828 46.153L35.7441 41.3721L34.8407 45.8048L32.9772 46.633L31.8761 58.8959L27.321 69.6342L24.1682 73.6058L22.3048 89.4827L20.9025 97.9999L22.1824 101.266L26.6152 101.849L28.2527 106.282L26.6152 107.101L20.8931 105.698L16.9215 103.016L14.004 91.1108V80.7208L6.76673 85.0406L0 85.5111L2.68222 82.5936L14.2393 75.0081L13.3076 51.4328L15.9898 28.7892L19.1426 15.4816L22.2954 8.84663L30.0691 4.42331H39.2169L47.6024 1.22347L57.6631 0L68.6367 5.48679L76.8715 6.86084L87.6945 9.75952H94.4048L107.214 6.4091L117.886 7.322L128.709 13.5711L138.77 25.9187L143.645 38.5675L142.421 57.6254L139.673 78.8103L144.699 105.181L143.937 107.167H125.189L125.952 104.117L129.914 100.607L130.375 95.1201L129.151 83.6853L126.864 76.9751L120.314 72.5517L120.615 81.549L123.401 89.6991L126.535 100.08L124.135 104.955"/>
</mask>
<path d="M107.731 103.035L106.925 102.444L106.293 103.306L107.195 103.879L107.731 103.035ZM111.58 97.7835L112.387 98.3746L112.543 98.1623L112.574 97.9007L111.58 97.7835ZM112.164 92.8425L113.157 92.9598L113.184 92.7277L113.106 92.5075L112.164 92.8425ZM110.611 88.4757L109.624 88.6369L109.639 88.7258L109.669 88.8107L110.611 88.4757ZM109.839 83.7512L110.826 83.59L110.801 83.4365L110.731 83.2978L109.839 83.7512ZM105.68 75.5728L106.571 75.1194L106.527 75.034L106.469 74.9584L105.68 75.5728ZM100.249 68.599L101.038 67.9846L100.787 67.6624L100.382 67.6079L100.249 68.599ZM90.3109 67.2626L89.9904 68.2098L90.0819 68.2408L90.1776 68.2537L90.3109 67.2626ZM81.5772 64.3075L81.8977 63.3602L80.7412 62.9689L80.5854 64.1798L81.5772 64.3075ZM80.589 71.9871L79.5972 71.8594L79.5816 71.9808L79.5957 72.1023L80.589 71.9871ZM82.2078 85.944L81.2144 86.0592L81.2248 86.1487L81.251 86.2349L82.2078 85.944ZM86.7911 101.021L85.8343 101.312L85.9558 101.711L86.3253 101.906L86.7911 101.021ZM89.4733 102.433L90.4497 102.217L90.3494 101.764L89.939 101.548L89.4733 102.433ZM90.5274 107.195V108.195H91.7729L91.5037 106.979L90.5274 107.195ZM72.7023 107.195L71.7542 106.877L71.3123 108.195H72.7023V107.195ZM73.7564 104.051L73.1343 103.268L72.9025 103.453L72.8083 103.733L73.7564 104.051ZM76.5045 101.868L77.1266 102.651L77.6232 102.256L77.4779 101.639L76.5045 101.868ZM75.9398 99.4681L76.9132 99.239L76.8904 99.142L76.8489 99.0515L75.9398 99.4681ZM70.0954 86.7158L69.1722 87.1L69.179 87.1163L69.1863 87.1324L70.0954 86.7158ZM64.9098 74.2552L65.833 73.871L65.7405 73.6487L65.557 73.4929L64.9098 74.2552ZM64.411 73.8317L65.0582 73.0694L64.0527 72.2156L63.5022 73.4144L64.411 73.8317ZM60.4394 82.4807L59.5306 82.0634L59.4843 82.1642L59.4613 82.2728L60.4394 82.4807ZM56.9666 98.8187L55.9885 98.6108L55.9526 98.7798L55.9754 98.9512L56.9666 98.8187ZM57.5313 103.044L56.5401 103.177L56.5804 103.478L56.7819 103.706L57.5313 103.044ZM59.6018 105.388L60.6004 105.335L60.5818 104.987L60.3512 104.726L59.6018 105.388ZM59.2253 107.919V108.919H59.5917L59.8713 108.683L59.2253 107.919ZM41.9462 107.919L40.9503 107.829L40.8512 108.919H41.9462V107.919ZM42.1344 105.849L41.5678 105.025L41.181 105.291L41.1385 105.758L42.1344 105.849ZM45.419 103.59L45.9856 104.414L46.099 104.336L46.1872 104.23L45.419 103.59ZM47.3012 101.332L48.0694 101.972L48.3875 101.59L48.2755 101.106L47.3012 101.332ZM46.4542 97.6705L45.4623 97.5439L45.4396 97.7215L45.4799 97.8959L46.4542 97.6705ZM48.3365 82.923L49.3284 83.0496L49.3361 82.9891L49.3365 82.9281L48.3365 82.923ZM48.4306 64.3263L47.4489 64.136L47.4311 64.2277L47.4306 64.3212L48.4306 64.3263ZM49.5599 58.5007L50.5417 58.691L50.5651 58.5703L50.5585 58.4476L49.5599 58.5007ZM48.9953 47.8847L49.9938 47.8316L49.9725 47.4301L49.6791 47.1551L48.9953 47.8847ZM45.9931 45.0707L46.6769 44.3411L46.4318 44.1114L46.0977 44.0762L45.9931 45.0707ZM44.2049 44.8825L43.2802 45.2633L43.5072 45.8146L44.1002 45.877L44.2049 44.8825ZM43.5461 43.2826L44.4708 42.9018L43.9537 41.646L42.908 42.5127L43.5461 43.2826ZM40.0828 46.153L39.3422 46.8251L39.9847 47.5331L40.7209 46.923L40.0828 46.153ZM35.7441 41.3721L36.4847 40.7001L35.1584 39.2386L34.7643 41.1724L35.7441 41.3721ZM34.8407 45.8048L35.2468 46.7186L35.7176 46.5094L35.8205 46.0045L34.8407 45.8048ZM32.9772 46.633L32.5711 45.7192L32.0338 45.958L31.9812 46.5436L32.9772 46.633ZM31.8761 58.8959L32.7967 59.2865L32.858 59.1418L32.8721 58.9854L31.8761 58.8959ZM27.321 69.6342L28.1042 70.256L28.1886 70.1497L28.2416 70.0248L27.321 69.6342ZM24.1682 73.6058L23.385 72.9841L23.2082 73.2068L23.1751 73.4892L24.1682 73.6058ZM22.3048 89.4827L23.2915 89.6451L23.2953 89.6223L23.298 89.5993L22.3048 89.4827ZM20.9025 97.9999L19.9158 97.8375L19.8711 98.1088L19.9715 98.3648L20.9025 97.9999ZM22.1824 101.266L21.2514 101.631L21.4668 102.18L22.0519 102.257L22.1824 101.266ZM26.6152 101.849L27.5532 101.503L27.3441 100.936L26.7457 100.858L26.6152 101.849ZM28.2527 106.282L28.7 107.176L29.5012 106.776L29.1908 105.935L28.2527 106.282ZM26.6152 107.101L26.3772 108.072L26.7339 108.159L27.0624 107.995L26.6152 107.101ZM20.8931 105.698L20.3334 106.527L20.4815 106.627L20.6551 106.67L20.8931 105.698ZM16.9215 103.016L15.9503 103.254L16.0421 103.629L16.3619 103.845L16.9215 103.016ZM14.004 91.1108H13.004V91.2316L13.0328 91.3489L14.004 91.1108ZM14.004 80.7208H15.004V78.9593L13.4915 79.8621L14.004 80.7208ZM6.76673 85.0406L6.8361 86.0381L7.07426 86.0216L7.27925 85.8992L6.76673 85.0406ZM0 85.5111L-0.736167 84.8343L-2.43568 86.6829L0.0693735 86.5087L0 85.5111ZM2.68222 82.5936L2.13351 81.7576L2.02992 81.8256L1.94605 81.9168L2.68222 82.5936ZM14.2393 75.0081L14.788 75.8441L15.2609 75.5338L15.2385 74.9686L14.2393 75.0081ZM13.3076 51.4328L12.3145 51.3151L12.3053 51.3935L12.3084 51.4723L13.3076 51.4328ZM15.9898 28.7892L15.0167 28.5586L15.0035 28.6145L14.9968 28.6716L15.9898 28.7892ZM19.1426 15.4816L18.2394 15.0524L18.1939 15.148L18.1695 15.2511L19.1426 15.4816ZM22.2954 8.84663L21.8008 7.97748L21.5273 8.13314L21.3922 8.41744L22.2954 8.84663ZM30.0691 4.42331V3.42331H29.8045L29.5746 3.55417L30.0691 4.42331ZM39.2169 4.42331V5.42331H39.4012L39.5734 5.3576L39.2169 4.42331ZM47.6024 1.22347L47.4817 0.230783L47.3602 0.245555L47.2459 0.289181L47.6024 1.22347ZM57.6631 0L58.1103 -0.894427L57.8411 -1.02902L57.5424 -0.992687L57.6631 0ZM68.6367 5.48679L68.1894 6.38122L68.3238 6.44842L68.4721 6.47315L68.6367 5.48679ZM76.8715 6.86084L77.1303 5.89489L77.0837 5.88241L77.0361 5.87448L76.8715 6.86084ZM87.6945 9.75952L87.4358 10.7255L87.563 10.7595H87.6945V9.75952ZM94.4048 9.75952V10.7595H94.5334L94.6579 10.727L94.4048 9.75952ZM107.214 6.4091L107.299 5.41274L107.127 5.39806L106.961 5.44165L107.214 6.4091ZM117.886 7.322L118.386 6.45599L118.193 6.34462L117.971 6.32563L117.886 7.322ZM128.709 13.5711L129.484 12.9394L129.368 12.797L129.209 12.7051L128.709 13.5711ZM138.77 25.9187L139.703 25.5591L139.646 25.4105L139.545 25.2871L138.77 25.9187ZM143.645 38.5675L144.643 38.6316L144.657 38.4126L144.578 38.2079L143.645 38.5675ZM142.421 57.6254L143.413 57.7541L143.417 57.7219L143.419 57.6895L142.421 57.6254ZM139.673 78.8103L138.682 78.6816L138.661 78.8403L138.691 78.9975L139.673 78.8103ZM144.699 105.181L145.632 105.539L145.734 105.273L145.681 104.994L144.699 105.181ZM143.937 107.167V108.167H144.624L144.87 107.525L143.937 107.167ZM125.189 107.167L124.219 106.924L123.908 108.167H125.189V107.167ZM125.952 104.117L125.288 103.369L125.056 103.574L124.981 103.875L125.952 104.117ZM129.914 100.607L130.577 101.355L130.877 101.09L130.91 100.691L129.914 100.607ZM130.375 95.1201L131.371 95.2038L131.379 95.1086L131.369 95.0137L130.375 95.1201ZM129.151 83.6853L130.146 83.5789L130.134 83.4682L130.098 83.3627L129.151 83.6853ZM126.864 76.9751L127.811 76.6525L127.703 76.3344L127.424 76.1463L126.864 76.9751ZM120.314 72.5517L120.874 71.723L119.249 70.6259L119.315 72.5852L120.314 72.5517ZM120.615 81.549L119.616 81.5824L119.621 81.7314L119.669 81.8724L120.615 81.549ZM123.401 89.6991L124.358 89.4101L124.353 89.3928L124.347 89.3757L123.401 89.6991ZM126.535 100.08L127.432 100.521L127.606 100.168L127.492 99.7908L126.535 100.08ZM110.696 104.917L111.232 104.073L110.491 103.602L109.955 104.447L109.419 105.291L110.16 105.761L110.696 104.917ZM108.472 103.506L109.008 102.661L108.267 102.191L107.731 103.035L107.195 103.879L107.936 104.35L108.472 103.506ZM107.731 103.035L108.538 103.626L109.5 102.313L108.694 101.722L107.887 101.131L106.925 102.444L107.731 103.035ZM110.618 99.0963L111.425 99.6875L112.387 98.3746L111.58 97.7835L110.774 97.1923L109.812 98.5052L110.618 99.0963ZM111.58 97.7835L112.574 97.9007L112.719 96.6655L111.726 96.5482L110.733 96.4309L110.587 97.6662L111.58 97.7835ZM112.018 94.0778L113.011 94.195L113.157 92.9598L112.164 92.8425L111.171 92.7252L111.025 93.9605L112.018 94.0778ZM112.164 92.8425L113.106 92.5075L112.718 91.4158L111.776 91.7508L110.834 92.0859L111.222 93.1776L112.164 92.8425ZM110.999 89.5674L111.941 89.2323L111.553 88.1406L110.611 88.4757L109.669 88.8107L110.057 89.9024L110.999 89.5674ZM110.611 88.4757L111.598 88.3145L111.405 87.1334L110.418 87.2946L109.431 87.4558L109.624 88.6369L110.611 88.4757ZM110.032 84.9323L111.019 84.7711L110.826 83.59L109.839 83.7512L108.852 83.9124L109.045 85.0935L110.032 84.9323ZM109.839 83.7512L110.731 83.2978L109.691 81.2532L108.799 81.7066L107.908 82.16L108.948 84.2046L109.839 83.7512ZM106.72 77.6174L107.611 77.164L106.571 75.1194L105.68 75.5728L104.788 76.0261L105.828 78.0707L106.72 77.6174ZM105.68 75.5728L106.469 74.9584L105.111 73.2149L104.322 73.8293L103.533 74.4437L104.891 76.1872L105.68 75.5728ZM101.607 70.3424L102.396 69.7281L101.038 67.9846L100.249 68.599L99.4602 69.2134L100.818 70.9568L101.607 70.3424ZM100.249 68.599L100.382 67.6079L97.8979 67.2738L97.7646 68.2649L97.6314 69.256L100.116 69.5901L100.249 68.599ZM92.7955 67.5967L92.9287 66.6056L90.4442 66.2715L90.3109 67.2626L90.1776 68.2537L92.6622 68.5878L92.7955 67.5967ZM90.3109 67.2626L90.6314 66.3154L88.448 65.5766L88.1275 66.5238L87.807 67.4711L89.9904 68.2098L90.3109 67.2626ZM83.7606 65.0462L84.0811 64.099L81.8977 63.3602L81.5772 64.3075L81.2567 65.2547L83.4401 65.9935L83.7606 65.0462ZM81.5772 64.3075L80.5854 64.1798L80.3383 66.0997L81.3302 66.2274L82.322 66.355L82.569 64.4351L81.5772 64.3075ZM80.8361 70.0672L79.8442 69.9395L79.5972 71.8594L80.589 71.9871L81.5808 72.1147L81.8279 70.1948L80.8361 70.0672ZM80.589 71.9871L79.5957 72.1023L79.798 73.8469L80.7914 73.7317L81.7847 73.6165L81.5824 71.8719L80.589 71.9871ZM81.196 77.2209L80.2027 77.3361L80.6074 80.8254L81.6007 80.7102L82.5941 80.595L82.1894 77.1057L81.196 77.2209ZM82.0054 84.1994L81.0121 84.3146L81.2144 86.0592L82.2078 85.944L83.2011 85.8288L82.9988 84.0842L82.0054 84.1994ZM82.2078 85.944L81.251 86.2349L81.8239 88.1195L82.7807 87.8287L83.7374 87.5378L83.1645 85.6532L82.2078 85.944ZM83.9265 91.5979L82.9697 91.8887L84.1156 95.658L85.0723 95.3671L86.0291 95.0763L84.8833 91.307L83.9265 91.5979ZM86.2181 99.1363L85.2614 99.4272L85.8343 101.312L86.7911 101.021L87.7478 100.73L87.1749 98.8455L86.2181 99.1363ZM86.7911 101.021L86.3253 101.906L86.9959 102.259L87.4616 101.374L87.9274 100.489L87.2568 100.136L86.7911 101.021ZM88.8027 102.08L88.337 102.965L89.0075 103.318L89.4733 102.433L89.939 101.548L89.2685 101.195L88.8027 102.08ZM89.4733 102.433L88.4969 102.649L88.7604 103.839L89.7368 103.623L90.7132 103.407L90.4497 102.217L89.4733 102.433ZM90.2638 106.004L89.2875 106.22L89.551 107.411L90.5274 107.195L91.5037 106.979L91.2402 105.788L90.2638 106.004ZM90.5274 107.195V106.195H88.2992V107.195V108.195H90.5274V107.195ZM83.843 107.195V106.195H79.3867V107.195V108.195H83.843V107.195ZM74.9305 107.195V106.195H72.7023V107.195V108.195H74.9305V107.195ZM72.7023 107.195L73.6505 107.513L73.914 106.727L72.9659 106.409L72.0177 106.091L71.7542 106.877L72.7023 107.195ZM73.4929 104.837L74.441 105.155L74.7045 104.369L73.7564 104.051L72.8083 103.733L72.5448 104.519L73.4929 104.837ZM73.7564 104.051L74.3785 104.834L75.0655 104.288L74.4434 103.506L73.8214 102.723L73.1343 103.268L73.7564 104.051ZM75.8175 102.414L76.4396 103.197L77.1266 102.651L76.5045 101.868L75.8824 101.085L75.1954 101.631L75.8175 102.414ZM76.5045 101.868L77.4779 101.639L77.3368 101.039L76.3633 101.268L75.3899 101.497L75.5311 102.097L76.5045 101.868ZM76.081 100.068L77.0544 99.839L76.9132 99.239L75.9398 99.4681L74.9664 99.6971L75.1076 100.297L76.081 100.068ZM75.9398 99.4681L76.8489 99.0515L76.1184 97.4574L75.2093 97.874L74.3002 98.2907L75.0308 99.8847L75.9398 99.4681ZM73.7482 94.686L74.6572 94.2693L73.1961 91.0813L72.2871 91.4979L71.378 91.9145L72.8391 95.1026L73.7482 94.686ZM70.826 88.3098L71.735 87.8932L71.0045 86.2991L70.0954 86.7158L69.1863 87.1324L69.9169 88.7264L70.826 88.3098ZM70.0954 86.7158L71.0187 86.3315L70.3704 84.774L69.4472 85.1582L68.524 85.5424L69.1722 87.1L70.0954 86.7158ZM68.1508 82.0431L69.074 81.6588L67.7776 78.5437L66.8544 78.9279L65.9311 79.3121L67.2276 82.4273L68.1508 82.0431ZM65.558 75.8128L66.4812 75.4286L65.833 73.871L64.9098 74.2552L63.9865 74.6394L64.6347 76.197L65.558 75.8128ZM64.9098 74.2552L65.557 73.4929L65.4323 73.387L64.7851 74.1493L64.1378 74.9116L64.2625 75.0175L64.9098 74.2552ZM64.5357 73.9376L65.1829 73.1753L65.0582 73.0694L64.411 73.8317L63.7637 74.594L63.8884 74.6999L64.5357 73.9376ZM64.411 73.8317L63.5022 73.4144L62.5093 75.5766L63.4181 75.9939L64.3269 76.4112L65.3197 74.249L64.411 73.8317ZM61.4323 80.3184L60.5235 79.9011L59.5306 82.0634L60.4394 82.4807L61.3482 82.898L62.3411 80.7357L61.4323 80.3184ZM60.4394 82.4807L59.4613 82.2728L59.0272 84.315L60.0053 84.5229L60.9835 84.7308L61.4176 82.6886L60.4394 82.4807ZM59.1371 88.6074L58.159 88.3995L57.2908 92.484L58.2689 92.6919L59.2471 92.8999L60.1153 88.8154L59.1371 88.6074ZM57.4007 96.7765L56.4226 96.5685L55.9885 98.6108L56.9666 98.8187L57.9448 99.0266L58.3789 96.9844L57.4007 96.7765ZM56.9666 98.8187L55.9754 98.9512L56.1166 100.008L57.1078 99.8751L58.099 99.7427L57.9578 98.6863L56.9666 98.8187ZM57.3901 101.988L56.399 102.12L56.5401 103.177L57.5313 103.044L58.5225 102.912L58.3813 101.856L57.3901 101.988ZM57.5313 103.044L56.7819 103.706L57.2995 104.292L58.0489 103.63L58.7983 102.968L58.2807 102.382L57.5313 103.044ZM59.0842 104.802L58.3348 105.464L58.8524 106.05L59.6018 105.388L60.3512 104.726L59.8336 104.14L59.0842 104.802ZM59.6018 105.388C58.6032 105.441 58.6032 105.441 58.6032 105.441C58.6032 105.441 58.6032 105.441 58.6032 105.441C58.6032 105.441 58.6032 105.441 58.6032 105.441C58.6032 105.441 58.6032 105.441 58.6032 105.441C58.6032 105.44 58.6032 105.44 58.6032 105.44C58.6032 105.441 58.6032 105.441 58.6032 105.441C58.6033 105.443 58.6034 105.445 58.6036 105.448C58.6039 105.454 58.6043 105.465 58.6049 105.478C58.606 105.506 58.6076 105.548 58.609 105.6C58.6119 105.707 58.6143 105.856 58.6123 106.027L59.6123 106.039L60.6122 106.051C60.6145 105.848 60.6117 105.672 60.6083 105.546C60.6066 105.483 60.6047 105.432 60.6032 105.396C60.6024 105.378 60.6018 105.363 60.6013 105.353C60.6011 105.348 60.6008 105.344 60.6007 105.341C60.6006 105.339 60.6005 105.338 60.6005 105.337C60.6005 105.336 60.6004 105.336 60.6004 105.335C60.6004 105.335 60.6004 105.335 60.6004 105.335C60.6004 105.335 60.6004 105.335 60.6004 105.335C60.6004 105.335 60.6004 105.335 60.6004 105.335C60.6004 105.335 60.6004 105.335 59.6018 105.388ZM59.4936 107.336L58.5173 107.119C58.5076 107.163 58.498 107.199 58.4891 107.228C58.4801 107.257 58.4732 107.274 58.4699 107.282C58.4663 107.29 58.4695 107.281 58.483 107.261C58.4962 107.241 58.5264 107.201 58.5794 107.156L59.2253 107.919L59.8713 108.683C60.0942 108.494 60.2228 108.263 60.2986 108.092C60.3785 107.911 60.432 107.723 60.4698 107.553L59.4936 107.336ZM59.2253 107.919V106.919H57.0655V107.919V108.919H59.2253V107.919ZM52.7457 107.919V106.919H48.4259V107.919V108.919H52.7457V107.919ZM44.1061 107.919V106.919H41.9462V107.919V108.919H44.1061V107.919ZM41.9462 107.919L42.9421 108.01L42.9891 107.492L41.9932 107.402L40.9974 107.311L40.9503 107.829L41.9462 107.919ZM42.0874 106.367L43.0833 106.457L43.1303 105.939L42.1344 105.849L41.1385 105.758L41.0915 106.276L42.0874 106.367ZM42.1344 105.849L42.701 106.673L43.5222 106.108L42.9556 105.284L42.3889 104.46L41.5678 105.025L42.1344 105.849ZM44.5978 104.155L45.1645 104.979L45.9856 104.414L45.419 103.59L44.8523 102.766L44.0312 103.331L44.5978 104.155ZM45.419 103.59L46.1872 104.23L46.6577 103.666L45.8895 103.026L45.1213 102.385L44.6507 102.95L45.419 103.59ZM46.8307 101.896L47.5989 102.536L48.0694 101.972L47.3012 101.332L46.533 100.691L46.0624 101.256L46.8307 101.896ZM47.3012 101.332L48.2755 101.106L48.0637 100.191L47.0895 100.416L46.1152 100.642L46.327 101.557L47.3012 101.332ZM46.666 98.5858L47.6402 98.3604L47.4285 97.4451L46.4542 97.6705L45.4799 97.8959L45.6917 98.8112L46.666 98.5858ZM46.4542 97.6705L47.4462 97.7971L47.6814 95.9537L46.6895 95.8271L45.6975 95.7005L45.4623 97.5439L46.4542 97.6705ZM47.1601 92.1402L48.152 92.2668L48.6226 88.5799L47.6306 88.4533L46.6387 88.3267L46.1681 92.0136L47.1601 92.1402ZM48.1012 84.7664L49.0931 84.8931L49.3284 83.0496L48.3365 82.923L47.3445 82.7964L47.1092 84.6398L48.1012 84.7664ZM48.3365 82.923L49.3365 82.9281L49.3482 80.6035L48.3482 80.5984L47.3482 80.5934L47.3365 82.918L48.3365 82.923ZM48.3718 75.9492L49.3717 75.9543L49.3953 71.3051L48.3953 71.3L47.3953 71.295L47.3718 75.9442L48.3718 75.9492ZM48.4188 66.6509L49.4188 66.6559L49.4306 64.3313L48.4306 64.3263L47.4306 64.3212L47.4188 66.6458L48.4188 66.6509ZM48.4306 64.3263L49.4123 64.5166L49.6946 63.0602L48.7129 62.8699L47.7312 62.6796L47.4489 64.136L48.4306 64.3263ZM49.2776 59.9571L50.2593 60.1474L50.5417 58.691L49.5599 58.5007L48.5782 58.3104L48.2959 59.7668L49.2776 59.9571ZM49.5599 58.5007L50.5585 58.4476L50.4174 55.7936L49.4188 55.8467L48.4202 55.8998L48.5613 58.5538L49.5599 58.5007ZM49.1364 50.5387L50.135 50.4856L49.9938 47.8316L48.9953 47.8847L47.9967 47.9378L48.1378 50.5918L49.1364 50.5387ZM48.9953 47.8847L49.6791 47.1551L48.9286 46.4516L48.2447 47.1812L47.5608 47.9108L48.3114 48.6143L48.9953 47.8847ZM46.7436 45.7742L47.4275 45.0446L46.6769 44.3411L45.9931 45.0707L45.3092 45.8003L46.0597 46.5038L46.7436 45.7742ZM45.9931 45.0707L46.0977 44.0762L45.6507 44.0292L45.546 45.0237L45.4413 46.0182L45.8884 46.0652L45.9931 45.0707ZM44.6519 44.9296L44.7566 43.9351L44.3096 43.888L44.2049 44.8825L44.1002 45.877L44.5473 45.9241L44.6519 44.9296ZM44.2049 44.8825L45.1296 44.5018L44.9649 44.1018L44.0402 44.4825L43.1155 44.8633L43.2802 45.2633L44.2049 44.8825ZM43.7108 43.6826L44.6355 43.3018L44.4708 42.9018L43.5461 43.2826L42.6214 43.6633L42.7861 44.0633L43.7108 43.6826ZM43.5461 43.2826L42.908 42.5127L42.0421 43.2303L42.6803 44.0002L43.3184 44.7701L44.1842 44.0525L43.5461 43.2826ZM40.9486 45.4354L40.3105 44.6655L39.4446 45.3831L40.0828 46.153L40.7209 46.923L41.5867 46.2054L40.9486 45.4354ZM40.0828 46.153L40.8233 45.481L39.7386 44.2858L38.9981 44.9578L38.2576 45.6298L39.3422 46.8251L40.0828 46.153ZM36.8288 42.5673L37.5693 41.8953L36.4847 40.7001L35.7441 41.3721L35.0036 42.0441L36.0883 43.2394L36.8288 42.5673ZM35.7441 41.3721L34.7643 41.1724L34.5384 42.2806L35.5183 42.4803L36.4981 42.68L36.724 41.5718L35.7441 41.3721ZM35.0665 44.6966L34.0867 44.4969L33.8608 45.6051L34.8407 45.8048L35.8205 46.0045L36.0464 44.8964L35.0665 44.6966ZM34.8407 45.8048L34.4345 44.891L33.9687 45.0981L34.3748 46.0119L34.7809 46.9257L35.2468 46.7186L34.8407 45.8048ZM33.4431 46.426L33.0369 45.5122L32.5711 45.7192L32.9772 46.633L33.3834 47.5468L33.8492 47.3398L33.4431 46.426ZM32.9772 46.633L31.9812 46.5436L31.8436 48.0764L32.8396 48.1659L33.8356 48.2553L33.9732 46.7224L32.9772 46.633ZM32.5643 51.2316L31.5683 51.1422L31.293 54.2079L32.289 54.2973L33.285 54.3868L33.5603 51.321L32.5643 51.2316ZM32.0137 57.3631L31.0177 57.2736L30.8801 58.8065L31.8761 58.8959L32.8721 58.9854L33.0097 57.4525L32.0137 57.3631ZM31.8761 58.8959L30.9555 58.5054L30.3861 59.8477L31.3067 60.2382L32.2273 60.6287L32.7967 59.2865L31.8761 58.8959ZM30.1679 62.9228L29.2473 62.5323L28.1086 65.2169L29.0292 65.6074L29.9498 65.9979L31.0885 63.3133L30.1679 62.9228ZM27.8904 68.292L26.9698 67.9014L26.4004 69.2437L27.321 69.6342L28.2416 70.0248L28.811 68.6825L27.8904 68.292ZM27.321 69.6342L26.5378 69.0125L25.7496 70.0054L26.5328 70.6271L27.316 71.2489L28.1042 70.256L27.321 69.6342ZM24.9564 72.6129L24.1732 71.9912L23.385 72.9841L24.1682 73.6058L24.9515 74.2276L25.7396 73.2347L24.9564 72.6129ZM24.1682 73.6058L23.1751 73.4892L22.9421 75.4739L23.9353 75.5904L24.9285 75.707L25.1614 73.7224L24.1682 73.6058ZM23.4694 79.5596L22.4763 79.4431L22.0104 83.4123L23.0036 83.5289L23.9968 83.6454L24.4626 79.6762L23.4694 79.5596ZM22.5377 87.4981L21.5445 87.3815L21.3116 89.3661L22.3048 89.4827L23.298 89.5993L23.5309 87.6147L22.5377 87.4981ZM22.3048 89.4827L21.3181 89.3202L20.9675 91.4495L21.9542 91.612L22.9409 91.7745L23.2915 89.6451L22.3048 89.4827ZM21.2531 95.8706L20.2664 95.7082L19.9158 97.8375L20.9025 97.9999L21.8892 98.1624L22.2398 96.0331L21.2531 95.8706ZM20.9025 97.9999L19.9715 98.3648L20.2914 99.1813L21.2225 98.8163L22.1535 98.4514L21.8336 97.635L20.9025 97.9999ZM21.8625 100.449L20.9314 100.814L21.2514 101.631L22.1824 101.266L23.1135 100.901L22.7935 100.084L21.8625 100.449ZM22.1824 101.266L22.0519 102.257L23.1601 102.403L23.2906 101.412L23.4211 100.42L22.313 100.274L22.1824 101.266ZM25.507 101.703L25.3765 102.695L26.4847 102.841L26.6152 101.849L26.7457 100.858L25.6375 100.712L25.507 101.703ZM26.6152 101.849L25.6771 102.196L26.0865 103.304L27.0246 102.957L27.9626 102.611L27.5532 101.503L26.6152 101.849ZM27.8433 105.174L26.9053 105.52L27.3147 106.628L28.2527 106.282L29.1908 105.935L28.7814 104.827L27.8433 105.174ZM28.2527 106.282L27.8055 105.387L27.3961 105.592L27.8433 106.487L28.2906 107.381L28.7 107.176L28.2527 106.282ZM27.0246 106.896L26.5774 106.002L26.168 106.206L26.6152 107.101L27.0624 107.995L27.4718 107.79L27.0246 106.896ZM26.6152 107.101L26.8532 106.129L25.4227 105.779L25.1847 106.75L24.9466 107.721L26.3772 108.072L26.6152 107.101ZM22.3236 106.049L22.5616 105.078L21.1311 104.727L20.8931 105.698L20.6551 106.67L22.0856 107.02L22.3236 106.049ZM20.8931 105.698L21.4528 104.87L20.4599 104.199L19.9002 105.028L19.3405 105.857L20.3334 106.527L20.8931 105.698ZM17.9144 103.687L18.4741 102.858L17.4812 102.187L16.9215 103.016L16.3619 103.845L17.3547 104.515L17.9144 103.687ZM16.9215 103.016L17.8928 102.778L17.5281 101.29L16.5568 101.528L15.5856 101.766L15.9503 103.254L16.9215 103.016ZM15.8275 98.5517L16.7987 98.3136L16.0693 95.3373L15.0981 95.5753L14.1268 95.8133L14.8562 98.7897L15.8275 98.5517ZM14.3687 92.599L15.34 92.361L14.9753 90.8728L14.004 91.1108L13.0328 91.3489L13.3975 92.837L14.3687 92.599ZM14.004 91.1108H15.004V88.5133H14.004H13.004V91.1108H14.004ZM14.004 83.3183H15.004V80.7208H14.004H13.004V83.3183H14.004ZM14.004 80.7208L13.4915 79.8621L11.6822 80.942L12.1947 81.8007L12.7072 82.6594L14.5165 81.5794L14.004 80.7208ZM8.57605 83.9606L8.06353 83.1019L6.2542 84.1819L6.76673 85.0406L7.27925 85.8992L9.08858 84.8193L8.57605 83.9606ZM6.76673 85.0406L6.69736 84.043L5.00567 84.1606L5.07505 85.1582L5.14442 86.1558L6.8361 86.0381L6.76673 85.0406ZM1.69168 85.3935L1.62231 84.3959L-0.0693735 84.5135L0 85.5111L0.0693735 86.5087L1.76106 86.3911L1.69168 85.3935ZM0 85.5111L0.736167 86.1879L1.40672 85.4585L0.670556 84.7817L-0.0656119 84.1049L-0.736167 84.8343L0 85.5111ZM2.01167 83.323L2.74783 83.9998L3.41839 83.2704L2.68222 82.5936L1.94605 81.9168L1.2755 82.6462L2.01167 83.323ZM2.68222 82.5936L3.23094 83.4296L4.67557 82.4814L4.12686 81.6454L3.57814 80.8094L2.13351 81.7576L2.68222 82.5936ZM7.01613 79.749L7.56484 80.5851L10.4541 78.6887L9.9054 77.8527L9.35668 77.0167L6.46741 78.913L7.01613 79.749ZM12.7947 75.9563L13.3434 76.7923L14.788 75.8441L14.2393 75.0081L13.6906 74.1721L12.246 75.1203L12.7947 75.9563ZM14.2393 75.0081L15.2385 74.9686L15.1609 73.004L14.1617 73.0435L13.1624 73.083L13.2401 75.0476L14.2393 75.0081ZM14.0064 69.1143L15.0056 69.0748L14.8503 65.1456L13.8511 65.1851L12.8519 65.2245L13.0072 69.1538L14.0064 69.1143ZM13.6958 61.2558L14.695 61.2163L14.5397 57.2871L13.5405 57.3266L12.5413 57.3661L12.6966 61.2953L13.6958 61.2558ZM13.3852 53.3974L14.3844 53.3579L14.3068 51.3933L13.3076 51.4328L12.3084 51.4723L12.386 53.4369L13.3852 53.3974ZM13.3076 51.4328L14.3006 51.5504L14.5242 49.6634L13.5311 49.5458L12.538 49.4282L12.3145 51.3151L13.3076 51.4328ZM13.9781 45.7719L14.9712 45.8895L15.4182 42.1156L14.4252 41.9979L13.4321 41.8803L12.9851 45.6542L13.9781 45.7719ZM14.8722 38.224L15.8653 38.3416L16.3123 34.5677L15.3193 34.4501L14.3262 34.3325L13.8792 38.1064L14.8722 38.224ZM15.7663 30.6761L16.7593 30.7938L16.9829 28.9068L15.9898 28.7892L14.9968 28.6716L14.7732 30.5585L15.7663 30.6761ZM15.9898 28.7892L16.9629 29.0197L17.357 27.3563L16.3839 27.1257L15.4108 26.8952L15.0167 28.5586L15.9898 28.7892ZM17.1721 23.7988L18.1452 24.0294L18.9334 20.7025L17.9603 20.4719L16.9872 20.2414L16.199 23.5683L17.1721 23.7988ZM18.7485 17.145L19.7216 17.3756L20.1157 15.7121L19.1426 15.4816L18.1695 15.2511L17.7754 16.9145L18.7485 17.145ZM19.1426 15.4816L20.0458 15.9108L20.834 14.252L19.9308 13.8229L19.0276 13.3937L18.2394 15.0524L19.1426 15.4816ZM21.5072 10.5054L22.4104 10.9346L23.1986 9.27581L22.2954 8.84663L21.3922 8.41744L20.604 10.0762L21.5072 10.5054ZM22.2954 8.84663L22.7899 9.71577L24.7334 8.60995L24.2388 7.7408L23.7443 6.87165L21.8008 7.97748L22.2954 8.84663ZM28.1257 5.52914L28.6202 6.39829L30.5637 5.29246L30.0691 4.42331L29.5746 3.55417L27.6311 4.65999L28.1257 5.52914ZM30.0691 4.42331V5.42331H32.3561V4.42331V3.42331H30.0691V4.42331ZM36.93 4.42331V5.42331H39.2169V4.42331V3.42331H36.93V4.42331ZM39.2169 4.42331L39.5734 5.3576L41.6698 4.55764L41.3133 3.62335L40.9568 2.68906L38.8604 3.48903L39.2169 4.42331ZM45.506 2.02343L45.8625 2.95772L47.9589 2.15776L47.6024 1.22347L47.2459 0.289181L45.1495 1.08914L45.506 2.02343ZM47.6024 1.22347L47.7231 2.21616L50.2383 1.91029L50.1176 0.917602L49.9968 -0.0750844L47.4817 0.230783L47.6024 1.22347ZM55.1479 0.305867L55.2686 1.29855L57.7838 0.992687L57.6631 0L57.5424 -0.992687L55.0272 -0.686819L55.1479 0.305867ZM57.6631 0L57.2159 0.894427L58.5876 1.58028L59.0348 0.685849L59.482 -0.208578L58.1103 -0.894427L57.6631 0ZM61.7782 2.05755L61.331 2.95197L64.0743 4.32367L64.5216 3.42924L64.9688 2.53482L62.2254 1.16312L61.7782 2.05755ZM67.265 4.80094L66.8177 5.69537L68.1894 6.38122L68.6367 5.48679L69.0839 4.59236L67.7122 3.90652L67.265 4.80094ZM68.6367 5.48679L68.4721 6.47315L70.5308 6.81667L70.6954 5.8303L70.86 4.84394L68.8012 4.50043L68.6367 5.48679ZM74.8128 6.51733L74.6482 7.50369L76.707 7.84721L76.8715 6.86084L77.0361 5.87448L74.9774 5.53097L74.8128 6.51733ZM76.8715 6.86084L76.6128 7.8268L79.3186 8.55147L79.5773 7.58551L79.836 6.61956L77.1303 5.89489L76.8715 6.86084ZM84.9888 9.03485L84.7301 10.0008L87.4358 10.7255L87.6945 9.75952L87.9533 8.79357L85.2475 8.0689L84.9888 9.03485ZM87.6945 9.75952V10.7595H89.3721V9.75952V8.75952H87.6945V9.75952ZM92.7272 9.75952V10.7595H94.4048V9.75952V8.75952H92.7272V9.75952ZM94.4048 9.75952L94.6579 10.727L96.259 10.3082L96.0059 9.34072L95.7528 8.37327L94.1517 8.79207L94.4048 9.75952ZM99.2081 8.50311L99.4612 9.47057L102.663 8.63296L102.41 7.66551L102.157 6.69806L98.955 7.53566L99.2081 8.50311ZM105.612 6.8279L105.866 7.79535L107.467 7.37655L107.214 6.4091L106.961 5.44165L105.359 5.86045L105.612 6.8279ZM107.214 6.4091L107.128 7.40546L109.796 7.63368L109.882 6.63732L109.967 5.64096L107.299 5.41274L107.214 6.4091ZM115.218 7.09377L115.133 8.09013L117.801 8.31836L117.886 7.322L117.971 6.32563L115.303 6.09741L115.218 7.09377ZM117.886 7.322L117.386 8.18801L118.739 8.96914L119.239 8.10313L119.739 7.23712L118.386 6.45599L117.886 7.322ZM121.945 9.66541L121.445 10.5314L124.15 12.0937L124.65 11.2277L125.15 10.3617L122.445 8.7994L121.945 9.66541ZM127.356 12.79L126.856 13.656L128.209 14.4371L128.709 13.5711L129.209 12.7051L127.856 11.924L127.356 12.79ZM128.709 13.5711L127.934 14.2028L129.191 15.7462L129.967 15.1146L130.742 14.4829L129.484 12.9394L128.709 13.5711ZM132.482 18.2015L131.707 18.8331L134.222 21.92L134.997 21.2884L135.772 20.6567L133.257 17.5698L132.482 18.2015ZM137.512 24.3753L136.737 25.0069L137.994 26.5504L138.77 25.9187L139.545 25.2871L138.287 23.7436L137.512 24.3753ZM138.77 25.9187L137.837 26.2784L138.446 27.8595L139.379 27.4998L140.312 27.1402L139.703 25.5591L138.77 25.9187ZM140.598 30.662L139.665 31.0217L140.884 34.1839L141.817 33.8242L142.75 33.4646L141.531 30.3024L140.598 30.662ZM143.035 36.9864L142.102 37.3461L142.712 38.9272L143.645 38.5675L144.578 38.2079L143.968 36.6268L143.035 36.9864ZM143.645 38.5675L142.647 38.5035L142.545 40.0916L143.543 40.1557L144.541 40.2198L144.643 38.6316L143.645 38.5675ZM143.339 43.332L142.341 43.2679L142.137 46.4443L143.135 46.5083L144.133 46.5724L144.337 43.3961L143.339 43.332ZM142.931 49.6846L141.933 49.6206L141.729 52.7969L142.727 52.8609L143.725 52.925L143.929 49.7487L142.931 49.6846ZM142.523 56.0373L141.525 55.9732L141.423 57.5614L142.421 57.6254L143.419 57.6895L143.521 56.1013L142.523 56.0373ZM142.421 57.6254L141.43 57.4968L141.201 59.2622L142.192 59.3908L143.184 59.5195L143.413 57.7541L142.421 57.6254ZM141.734 62.9216L140.743 62.793L140.285 66.3238L141.276 66.4524L142.268 66.5811L142.726 63.0503L141.734 62.9216ZM140.818 69.9832L139.827 69.8546L139.369 73.3854L140.36 73.5141L141.352 73.6427L141.81 70.1119L140.818 69.9832ZM139.902 77.0449L138.911 76.9162L138.682 78.6816L139.673 78.8103L140.665 78.9389L140.894 77.1735L139.902 77.0449ZM139.673 78.8103L138.691 78.9975L139.005 80.6456L139.987 80.4584L140.97 80.2712L140.656 78.6231L139.673 78.8103ZM140.615 83.7547L139.633 83.9419L140.261 87.2383L141.244 87.051L142.226 86.8638L141.598 83.5675L140.615 83.7547ZM141.872 90.3474L140.89 90.5346L141.518 93.8309L142.5 93.6437L143.482 93.4565L142.854 90.1601L141.872 90.3474ZM143.128 96.94L142.146 97.1272L142.774 100.423L143.757 100.236L144.739 100.049L144.111 96.7528L143.128 96.94ZM144.385 103.533L143.402 103.72L143.717 105.368L144.699 105.181L145.681 104.994L145.367 103.345L144.385 103.533ZM144.699 105.181L143.765 104.822L143.575 105.319L144.508 105.677L145.442 106.036L145.632 105.539L144.699 105.181ZM144.127 106.67L143.194 106.312L143.003 106.808L143.937 107.167L144.87 107.525L145.061 107.028L144.127 106.67ZM143.937 107.167V106.167H141.593V107.167V108.167H143.937V107.167ZM136.906 107.167V106.167H132.219V107.167V108.167H136.906V107.167ZM127.533 107.167V106.167H125.189V107.167V108.167H127.533V107.167ZM125.189 107.167L126.159 107.409L126.35 106.647L125.38 106.404L124.41 106.162L124.219 106.924L125.189 107.167ZM125.761 104.88L126.731 105.122L126.922 104.36L125.952 104.117L124.981 103.875L124.791 104.637L125.761 104.88ZM125.952 104.117L126.615 104.866L127.605 103.988L126.942 103.24L126.279 102.491L125.288 103.369L125.952 104.117ZM128.923 101.484L129.586 102.233L130.577 101.355L129.914 100.607L129.251 99.8584L128.26 100.736L128.923 101.484ZM129.914 100.607L130.91 100.691L131.025 99.3189L130.029 99.2352L129.032 99.1514L128.917 100.523L129.914 100.607ZM130.26 96.4918L131.256 96.5755L131.371 95.2038L130.375 95.1201L129.378 95.0363L129.263 96.408L130.26 96.4918ZM130.375 95.1201L131.369 95.0137L131.216 93.5843L130.222 93.6907L129.228 93.7971L129.38 95.2265L130.375 95.1201ZM129.916 90.832L130.91 90.7256L130.604 87.867L129.61 87.9734L128.616 88.0797L128.922 90.9384L129.916 90.832ZM129.304 85.1147L130.299 85.0083L130.146 83.5789L129.151 83.6853L128.157 83.7917L128.31 85.2211L129.304 85.1147ZM129.151 83.6853L130.098 83.3627L129.526 81.6852L128.58 82.0078L127.633 82.3304L128.205 84.0079L129.151 83.6853ZM127.436 78.6526L128.383 78.33L127.811 76.6525L126.864 76.9751L125.918 77.2977L126.49 78.9752L127.436 78.6526ZM126.864 76.9751L127.424 76.1463L125.786 75.0405L125.227 75.8692L124.667 76.698L126.305 77.8038L126.864 76.9751ZM121.952 73.6576L122.511 72.8288L120.874 71.723L120.314 72.5517L119.754 73.3805L121.392 74.4863L121.952 73.6576ZM120.314 72.5517L119.315 72.5852L119.39 74.8345L120.389 74.8011L121.389 74.7676L121.314 72.5183L120.314 72.5517ZM120.54 79.2997L119.541 79.3331L119.616 81.5824L120.615 81.549L121.615 81.5155L121.539 79.2662L120.54 79.2997ZM120.615 81.549L119.669 81.8724L120.365 83.9099L121.312 83.5865L122.258 83.2631L121.562 81.2255L120.615 81.549ZM122.705 87.6616L121.758 87.985L122.455 90.0226L123.401 89.6991L124.347 89.3757L123.651 87.3382L122.705 87.6616ZM123.401 89.6991L122.444 89.9882L123.227 92.5833L124.185 92.2943L125.142 92.0053L124.358 89.4101L123.401 89.6991ZM125.752 97.4846L124.794 97.7737L125.578 100.369L126.535 100.08L127.492 99.7908L126.709 97.1956L125.752 97.4846ZM126.535 100.08L125.638 99.6382L125.038 100.857L125.935 101.299L126.832 101.74L127.432 100.521L126.535 100.08ZM124.735 103.736L123.838 103.294L123.238 104.513L124.135 104.955L125.032 105.397L125.632 104.178L124.735 103.736ZM107.731 103.035L106.118 101.853L104.854 103.577L106.659 104.723L107.731 103.035ZM111.58 97.7835L113.194 98.9658L113.505 98.541L113.567 98.018L111.58 97.7835ZM112.164 92.8425L114.15 93.0771L114.205 92.6129L114.048 92.1724L112.164 92.8425ZM110.611 88.4757L108.637 88.7981L108.666 88.976L108.727 89.1458L110.611 88.4757ZM109.839 83.7512L111.813 83.4288L111.763 83.1218L111.622 82.8445L109.839 83.7512ZM105.68 75.5728L107.462 74.6661L107.375 74.4952L107.258 74.344L105.68 75.5728ZM100.249 68.599L101.827 67.3702L101.325 66.7257L100.516 66.6168L100.249 68.599ZM90.3109 67.2626L89.6699 69.1571L89.8529 69.219L90.0443 69.2448L90.3109 67.2626ZM81.5772 64.3075L82.2182 62.413L79.9052 61.6303L79.5936 64.0522L81.5772 64.3075ZM80.589 71.9871L78.6054 71.7318L78.5741 71.9745L78.6023 72.2175L80.589 71.9871ZM82.2078 85.944L80.2211 86.1745L80.2418 86.3534L80.2942 86.5257L82.2078 85.944ZM86.7911 101.021L84.8775 101.603L85.1205 102.402L85.8596 102.791L86.7911 101.021ZM89.4733 102.433L91.426 102L91.2256 101.095L90.4048 100.663L89.4733 102.433ZM90.5274 107.195V109.195H93.0184L92.4801 106.763L90.5274 107.195ZM72.7023 107.195L70.8061 106.559L69.9222 109.195H72.7023V107.195ZM73.7564 104.051L72.5123 102.485L72.0485 102.854L71.8602 103.416L73.7564 104.051ZM76.5045 101.868L77.7487 103.434L78.7419 102.645L78.4513 101.41L76.5045 101.868ZM75.9398 99.4681L77.8867 99.01L77.841 98.816L77.758 98.6348L75.9398 99.4681ZM70.0954 86.7158L68.2489 87.4842L68.2625 87.5169L68.2773 87.549L70.0954 86.7158ZM64.9098 74.2552L66.7563 73.4868L66.5713 73.0422L66.2042 72.7306L64.9098 74.2552ZM64.411 73.8317L65.7055 72.3071L63.6944 70.5996L62.5934 72.9971L64.411 73.8317ZM60.4394 82.4807L58.6219 81.6461L58.5293 81.8478L58.4831 82.0649L60.4394 82.4807ZM56.9666 98.8187L55.0103 98.4029L54.9385 98.741L54.9843 99.0836L56.9666 98.8187ZM57.5313 103.044L55.5489 103.309L55.6295 103.913L56.0325 104.369L57.5313 103.044ZM59.6018 105.388L61.599 105.281L61.5619 104.586L61.1006 104.064L59.6018 105.388ZM59.2253 107.919V109.919H59.958L60.5172 109.446L59.2253 107.919ZM41.9462 107.919L39.9544 107.738L39.7561 109.919H41.9462V107.919ZM42.1344 105.849L41.0012 104.201L40.2276 104.733L40.1426 105.668L42.1344 105.849ZM45.419 103.59L46.5522 105.238L46.7791 105.082L46.9554 104.871L45.419 103.59ZM47.3012 101.332L48.8377 102.612L49.4737 101.849L49.2498 100.881L47.3012 101.332ZM46.4542 97.6705L44.4703 97.4173L44.425 97.7725L44.5057 98.1213L46.4542 97.6705ZM48.3365 82.923L50.3204 83.1762L50.3358 83.0552L50.3364 82.9331L48.3365 82.923ZM48.4306 64.3263L46.4671 63.9456L46.4316 64.1292L46.4306 64.3161L48.4306 64.3263ZM49.5599 58.5007L51.5234 58.8813L51.5702 58.6399L51.5571 58.3944L49.5599 58.5007ZM48.9953 47.8847L50.9924 47.7785L50.9497 46.9754L50.363 46.4255L48.9953 47.8847ZM45.9931 45.0707L47.3608 43.6115L46.8706 43.1521L46.2024 43.0817L45.9931 45.0707ZM44.2049 44.8825L42.3555 45.644L42.8096 46.7467L43.9955 46.8715L44.2049 44.8825ZM43.5461 43.2826L45.3955 42.5211L44.3612 40.0094L42.2699 41.7427L43.5461 43.2826ZM40.0828 46.153L38.6017 47.4971L39.8867 48.9131L41.359 47.6929L40.0828 46.153ZM35.7441 41.3721L37.2252 40.0281L34.5727 37.1051L33.7844 40.9727L35.7441 41.3721ZM34.8407 45.8048L35.6529 47.6324L36.5946 47.2139L36.8004 46.2043L34.8407 45.8048ZM32.9772 46.633L32.1649 44.8054L31.0904 45.283L30.9852 46.4542L32.9772 46.633ZM31.8761 58.8959L33.7173 59.677L33.84 59.3877L33.8681 59.0748L31.8761 58.8959ZM27.321 69.6342L28.8875 70.8777L29.0562 70.6651L29.1622 70.4153L27.321 69.6342ZM24.1682 73.6058L22.6018 72.3623L22.2482 72.8078L22.1819 73.3727L24.1682 73.6058ZM22.3048 89.4827L24.2782 89.8076L24.2858 89.7619L24.2912 89.7158L22.3048 89.4827ZM20.9025 97.9999L18.9291 97.675L18.8397 98.2177L19.0404 98.7297L20.9025 97.9999ZM22.1824 101.266L20.3204 101.995L20.7511 103.094L21.9214 103.249L22.1824 101.266ZM26.6152 101.849L28.4912 101.156L28.0729 100.024L26.8762 99.8663L26.6152 101.849ZM28.2527 106.282L29.1472 108.071L30.7497 107.269L30.1288 105.589L28.2527 106.282ZM26.6152 107.101L26.1391 109.043L26.8526 109.218L27.5096 108.89L26.6152 107.101ZM20.8931 105.698L19.7737 107.356L20.0699 107.556L20.4171 107.641L20.8931 105.698ZM16.9215 103.016L14.979 103.492L15.1627 104.242L15.8022 104.674L16.9215 103.016ZM14.004 91.1108H12.004V91.3523L12.0615 91.5869L14.004 91.1108ZM14.004 80.7208H16.004V77.1978L12.979 79.0034L14.004 80.7208ZM6.76673 85.0406L6.90548 87.0357L7.38179 87.0026L7.79178 86.7579L6.76673 85.0406ZM0 85.5111L-1.47233 84.1575L-4.87137 87.8547L0.138747 87.5063L0 85.5111ZM2.68222 82.5936L1.58479 80.9216L1.37761 81.0576L1.20989 81.24L2.68222 82.5936ZM14.2393 75.0081L15.3367 76.6801L16.2824 76.0594L16.2377 74.9291L14.2393 75.0081ZM13.3076 51.4328L11.3215 51.1975L11.3029 51.3542L11.3091 51.5118L13.3076 51.4328ZM15.9898 28.7892L14.0437 28.3281L14.0172 28.4399L14.0037 28.5539L15.9898 28.7892ZM19.1426 15.4816L17.3362 14.6232L17.2453 14.8145L17.1965 15.0205L19.1426 15.4816ZM22.2954 8.84663L21.3063 7.10833L20.7591 7.41966L20.489 7.98825L22.2954 8.84663ZM30.0691 4.42331V2.42331H29.5399L29.08 2.68502L30.0691 4.42331ZM39.2169 4.42331V6.42331H39.5855L39.9299 6.29189L39.2169 4.42331ZM47.6024 1.22347L47.3609 -0.761904L47.118 -0.732359L46.8893 -0.645107L47.6024 1.22347ZM57.6631 0L58.5575 -1.78885L58.0191 -2.05804L57.4216 -1.98537L57.6631 0ZM68.6367 5.48679L67.7422 7.27565L68.011 7.41005L68.3075 7.45952L68.6367 5.48679ZM76.8715 6.86084L77.389 4.92893L77.2958 4.90398L77.2007 4.88812L76.8715 6.86084ZM87.6945 9.75952L87.1771 11.6914L87.4314 11.7595H87.6945V9.75952ZM94.4048 9.75952V11.7595H94.6621L94.9109 11.6944L94.4048 9.75952ZM107.214 6.4091L107.384 4.41638L107.041 4.38701L106.707 4.4742L107.214 6.4091ZM117.886 7.322L118.886 5.58998L118.5 5.36724L118.056 5.32927L117.886 7.322ZM128.709 13.5711L130.26 12.3078L130.027 12.0229L129.709 11.8391L128.709 13.5711ZM138.77 25.9187L140.636 25.1995L140.521 24.9023L140.32 24.6554L138.77 25.9187ZM143.645 38.5675L145.641 38.6957L145.669 38.2577L145.511 37.8483L143.645 38.5675ZM142.421 57.6254L144.405 57.8827L144.413 57.8183L144.417 57.7536L142.421 57.6254ZM139.673 78.8103L137.69 78.553L137.649 78.8703L137.709 79.1847L139.673 78.8103ZM144.699 105.181L146.566 105.898L146.77 105.366L146.663 104.806L144.699 105.181ZM143.937 107.167V109.167H145.311L145.804 107.883L143.937 107.167ZM125.189 107.167L123.249 106.681L122.628 109.167H125.189V107.167ZM125.952 104.117L124.625 102.62L124.161 103.031L124.011 103.632L125.952 104.117ZM129.914 100.607L131.24 102.104L131.84 101.573L131.907 100.774L129.914 100.607ZM130.375 95.1201L132.368 95.2876L132.384 95.0972L132.363 94.9073L130.375 95.1201ZM129.151 83.6853L131.14 83.4725L131.116 83.251L131.044 83.0401L129.151 83.6853ZM126.864 76.9751L128.757 76.3299L128.541 75.6937L127.984 75.3176L126.864 76.9751ZM120.314 72.5517L121.433 70.8943L118.184 68.7L118.315 72.6187L120.314 72.5517ZM120.615 81.549L118.616 81.6159L118.626 81.9138L118.723 82.1958L120.615 81.549ZM123.401 89.6991L125.316 89.1211L125.305 89.0865L125.294 89.0523L123.401 89.6991ZM126.535 100.08L128.329 100.963L128.677 100.256L128.45 99.5018L126.535 100.08ZM110.696 104.917L111.768 103.229L111.027 102.758L109.955 104.447L108.883 106.135L109.624 106.606L110.696 104.917ZM108.472 103.506L109.544 101.817L108.803 101.347L107.731 103.035L106.659 104.723L107.4 105.194L108.472 103.506ZM107.731 103.035L109.344 104.217L110.307 102.904L108.694 101.722L107.08 100.54L106.118 101.853L107.731 103.035ZM110.618 99.0963L112.231 100.279L113.194 98.9658L111.58 97.7835L109.967 96.6011L109.005 97.914L110.618 99.0963ZM111.58 97.7835L113.567 98.018L113.713 96.7828L111.726 96.5482L109.74 96.3137L109.594 97.5489L111.58 97.7835ZM112.018 94.0778L114.004 94.3123L114.15 93.0771L112.164 92.8425L110.178 92.608L110.032 93.8432L112.018 94.0778ZM112.164 92.8425L114.048 92.1724L113.66 91.0807L111.776 91.7508L109.891 92.4209L110.28 93.5126L112.164 92.8425ZM110.999 89.5674L112.884 88.8973L112.495 87.8056L110.611 88.4757L108.727 89.1458L109.115 90.2375L110.999 89.5674ZM110.611 88.4757L112.585 88.1533L112.392 86.9721L110.418 87.2946L108.444 87.617L108.637 88.7981L110.611 88.4757ZM110.032 84.9323L112.006 84.6099L111.813 83.4288L109.839 83.7512L107.866 84.0736L108.058 85.2547L110.032 84.9323ZM109.839 83.7512L111.622 82.8445L110.582 80.7999L108.799 81.7066L107.017 82.6133L108.057 84.6579L109.839 83.7512ZM106.72 77.6174L108.502 76.7107L107.462 74.6661L105.68 75.5728L103.897 76.4795L104.937 78.5241L106.72 77.6174ZM105.68 75.5728L107.258 74.344L105.9 72.6006L104.322 73.8293L102.744 75.0581L104.102 76.8015L105.68 75.5728ZM101.607 70.3424L103.185 69.1137L101.827 67.3702L100.249 68.599L98.6712 69.8278L100.029 71.5712L101.607 70.3424ZM100.249 68.599L100.516 66.6168L98.0312 66.2827L97.7646 68.2649L97.4981 70.2471L99.9827 70.5812L100.249 68.599ZM92.7955 67.5967L93.062 65.6145L90.5774 65.2804L90.3109 67.2626L90.0443 69.2448L92.5289 69.5789L92.7955 67.5967ZM90.3109 67.2626L90.9519 65.3681L88.7685 64.6293L88.1275 66.5238L87.4864 68.4183L89.6699 69.1571L90.3109 67.2626ZM83.7606 65.0462L84.4016 63.1517L82.2182 62.413L81.5772 64.3075L80.9362 66.2019L83.1196 66.9407L83.7606 65.0462ZM81.5772 64.3075L79.5936 64.0522L79.3465 65.9721L81.3302 66.2274L83.3138 66.4826L83.5608 64.5627L81.5772 64.3075ZM80.8361 70.0672L78.8524 69.8119L78.6054 71.7318L80.589 71.9871L82.5727 72.2423L82.8197 70.3224L80.8361 70.0672ZM80.589 71.9871L78.6023 72.2175L78.8047 73.9621L80.7914 73.7317L82.778 73.5013L82.5757 71.7567L80.589 71.9871ZM81.196 77.2209L79.2094 77.4514L79.614 80.9406L81.6007 80.7102L83.5874 80.4798L83.1827 76.9905L81.196 77.2209ZM82.0054 84.1994L80.0187 84.4298L80.2211 86.1745L82.2078 85.944L84.1944 85.7136L83.9921 83.969L82.0054 84.1994ZM82.2078 85.944L80.2942 86.5257L80.8671 88.4104L82.7807 87.8287L84.6942 87.2469L84.1213 85.3623L82.2078 85.944ZM83.9265 91.5979L82.013 92.1796L83.1588 95.9488L85.0723 95.3671L86.9859 94.7854L85.84 91.0162L83.9265 91.5979ZM86.2181 99.1363L84.3046 99.718L84.8775 101.603L86.7911 101.021L88.7046 100.439L88.1317 98.5546L86.2181 99.1363ZM86.7911 101.021L85.8596 102.791L86.5301 103.144L87.4616 101.374L88.3931 99.604L87.7226 99.2511L86.7911 101.021ZM88.8027 102.08L87.8712 103.85L88.5418 104.202L89.4733 102.433L90.4048 100.663L89.7342 100.31L88.8027 102.08ZM89.4733 102.433L87.5205 102.865L87.7841 104.055L89.7368 103.623L91.6895 103.191L91.426 102L89.4733 102.433ZM90.2638 106.004L88.3111 106.436L88.5746 107.627L90.5274 107.195L92.4801 106.763L92.2166 105.572L90.2638 106.004ZM90.5274 107.195V105.195H88.2992V107.195V109.195H90.5274V107.195ZM83.843 107.195V105.195H79.3867V107.195V109.195H83.843V107.195ZM74.9305 107.195V105.195H72.7023V107.195V109.195H74.9305V107.195ZM72.7023 107.195L74.5986 107.831L74.8621 107.045L72.9659 106.409L71.0696 105.773L70.8061 106.559L72.7023 107.195ZM73.4929 104.837L75.3891 105.473L75.6526 104.687L73.7564 104.051L71.8602 103.416L71.5967 104.201L73.4929 104.837ZM73.7564 104.051L75.0006 105.617L75.6876 105.071L74.4434 103.506L73.1993 101.94L72.5123 102.485L73.7564 104.051ZM75.8175 102.414L77.0616 103.98L77.7487 103.434L76.5045 101.868L75.2604 100.302L74.5733 100.848L75.8175 102.414ZM76.5045 101.868L78.4513 101.41L78.3102 100.81L76.3633 101.268L74.4165 101.726L74.5577 102.326L76.5045 101.868ZM76.081 100.068L78.0278 99.61L77.8867 99.01L75.9398 99.4681L73.993 99.9262L74.1342 100.526L76.081 100.068ZM75.9398 99.4681L77.758 98.6348L77.0274 97.0408L75.2093 97.874L73.3911 98.7073L74.1217 100.301L75.9398 99.4681ZM73.7482 94.686L75.5663 93.8527L74.1052 90.6646L72.2871 91.4979L70.4689 92.3311L71.93 95.5192L73.7482 94.686ZM70.826 88.3098L72.6441 87.4765L71.9136 85.8825L70.0954 86.7158L68.2773 87.549L69.0078 89.1431L70.826 88.3098ZM70.0954 86.7158L71.9419 85.9473L71.2937 84.3898L69.4472 85.1582L67.6007 85.9266L68.2489 87.4842L70.0954 86.7158ZM68.1508 82.0431L69.9973 81.2746L68.7009 78.1595L66.8544 78.9279L65.0079 79.6964L66.3043 82.8115L68.1508 82.0431ZM65.558 75.8128L67.4045 75.0443L66.7563 73.4868L64.9098 74.2552L63.0633 75.0236L63.7115 76.5812L65.558 75.8128ZM64.9098 74.2552L66.2042 72.7306L66.0795 72.6247L64.7851 74.1493L63.4906 75.6739L63.6153 75.7798L64.9098 74.2552ZM64.5357 73.9376L65.8301 72.413L65.7055 72.3071L64.411 73.8317L63.1165 75.3563L63.2412 75.4621L64.5357 73.9376ZM64.411 73.8317L62.5934 72.9971L61.6005 75.1593L63.4181 75.9939L65.2356 76.8285L66.2285 74.6663L64.411 73.8317ZM61.4323 80.3184L59.6148 79.4838L58.6219 81.6461L60.4394 82.4807L62.2569 83.3153L63.2498 81.153L61.4323 80.3184ZM60.4394 82.4807L58.4831 82.0649L58.049 84.1071L60.0053 84.5229L61.9616 84.9388L62.3957 82.8965L60.4394 82.4807ZM59.1371 88.6074L57.1808 88.1916L56.3126 92.2761L58.2689 92.6919L60.2252 93.1078L61.0934 89.0233L59.1371 88.6074ZM57.4007 96.7765L55.4444 96.3606L55.0103 98.4029L56.9666 98.8187L58.9229 99.2345L59.357 97.1923L57.4007 96.7765ZM56.9666 98.8187L54.9843 99.0836L55.1254 100.14L57.1078 99.8751L59.0902 99.6102L58.949 98.5538L56.9666 98.8187ZM57.3901 101.988L55.4078 102.253L55.5489 103.309L57.5313 103.044L59.5137 102.779L59.3725 101.723L57.3901 101.988ZM57.5313 103.044L56.0325 104.369L56.5501 104.954L58.0489 103.63L59.5477 102.306L59.0301 101.72L57.5313 103.044ZM59.0842 104.802L57.5854 106.126L58.103 106.712L59.6018 105.388L61.1006 104.064L60.583 103.478L59.0842 104.802ZM59.6018 105.388C57.6046 105.494 57.6046 105.494 57.6046 105.494C57.6046 105.494 57.6046 105.494 57.6046 105.494C57.6046 105.494 57.6046 105.494 57.6046 105.494C57.6046 105.493 57.6046 105.493 57.6046 105.493C57.6046 105.493 57.6045 105.493 57.6045 105.492C57.6045 105.492 57.6045 105.492 57.6045 105.492C57.6045 105.492 57.6046 105.493 57.6047 105.496C57.6049 105.5 57.6053 105.508 57.6058 105.52C57.6067 105.543 57.6081 105.58 57.6094 105.628C57.612 105.724 57.6142 105.86 57.6124 106.016L59.6123 106.039L61.6121 106.062C61.6147 105.844 61.6116 105.655 61.6079 105.519C61.6061 105.45 61.604 105.395 61.6023 105.354C61.6015 105.334 61.6007 105.318 61.6002 105.305C61.5999 105.299 61.5996 105.294 61.5994 105.29C61.5993 105.288 61.5992 105.286 61.5992 105.285C61.5991 105.284 61.5991 105.283 61.599 105.283C61.599 105.283 61.599 105.282 61.599 105.282C61.599 105.282 61.599 105.282 61.599 105.282C61.599 105.282 61.599 105.281 61.599 105.281C61.599 105.281 61.599 105.281 59.6018 105.388ZM59.4936 107.336L57.5411 106.903C57.5292 106.956 57.5283 106.938 57.5555 106.877C57.5704 106.843 57.601 106.78 57.6544 106.701C57.7074 106.623 57.7963 106.509 57.9335 106.393L59.2253 107.919L60.5172 109.446C60.9008 109.122 61.1056 108.739 61.2129 108.497C61.3285 108.236 61.3996 107.979 61.446 107.77L59.4936 107.336ZM59.2253 107.919V105.919H57.0655V107.919V109.919H59.2253V107.919ZM52.7457 107.919V105.919H48.4259V107.919V109.919H52.7457V107.919ZM44.1061 107.919V105.919H41.9462V107.919V109.919H44.1061V107.919ZM41.9462 107.919L43.938 108.101L43.985 107.583L41.9932 107.402L40.0015 107.221L39.9544 107.738L41.9462 107.919ZM42.0874 106.367L44.0791 106.548L44.1262 106.03L42.1344 105.849L40.1426 105.668L40.0956 106.185L42.0874 106.367ZM42.1344 105.849L43.2677 107.497L44.0888 106.932L42.9556 105.284L41.8223 103.636L41.0012 104.201L42.1344 105.849ZM44.5978 104.155L45.7311 105.803L46.5522 105.238L45.419 103.59L44.2857 101.942L43.4646 102.507L44.5978 104.155ZM45.419 103.59L46.9554 104.871L47.426 104.306L45.8895 103.026L44.3531 101.745L43.8825 102.31L45.419 103.59ZM46.8307 101.896L48.3671 103.177L48.8377 102.612L47.3012 101.332L45.7648 100.051L45.2942 100.616L46.8307 101.896ZM47.3012 101.332L49.2498 100.881L49.038 99.9655L47.0895 100.416L45.1409 100.867L45.3527 101.782L47.3012 101.332ZM46.666 98.5858L48.6145 98.135L48.4027 97.2197L46.4542 97.6705L44.5057 98.1213L44.7174 99.0366L46.666 98.5858ZM46.4542 97.6705L48.4381 97.9237L48.6734 96.0803L46.6895 95.8271L44.7056 95.5739L44.4703 97.4173L46.4542 97.6705ZM47.1601 92.1402L49.144 92.3934L49.6145 88.7065L47.6306 88.4533L45.6467 88.2001L45.1761 91.887L47.1601 92.1402ZM48.1012 84.7664L50.0851 85.0197L50.3204 83.1762L48.3365 82.923L46.3526 82.6698L46.1173 84.5132L48.1012 84.7664ZM48.3365 82.923L50.3364 82.9331L50.3482 80.6085L48.3482 80.5984L46.3483 80.5883L46.3365 82.9129L48.3365 82.923ZM48.3718 75.9492L50.3717 75.9594L50.3953 71.3102L48.3953 71.3L46.3953 71.2899L46.3718 75.9391L48.3718 75.9492ZM48.4188 66.6509L50.4188 66.661L50.4306 64.3364L48.4306 64.3263L46.4306 64.3161L46.4188 66.6407L48.4188 66.6509ZM48.4306 64.3263L50.394 64.7069L50.6764 63.2505L48.7129 62.8699L46.7495 62.4892L46.4671 63.9456L48.4306 64.3263ZM49.2776 59.9571L51.241 60.3377L51.5234 58.8813L49.5599 58.5007L47.5965 58.12L47.3142 59.5764L49.2776 59.9571ZM49.5599 58.5007L51.5571 58.3944L51.4159 55.7405L49.4188 55.8467L47.4216 55.9529L47.5628 58.6069L49.5599 58.5007ZM49.1364 50.5387L51.1336 50.4325L50.9924 47.7785L48.9953 47.8847L46.9981 47.991L47.1393 50.6449L49.1364 50.5387ZM48.9953 47.8847L50.363 46.4255L49.6124 45.722L48.2447 47.1812L46.877 48.6404L47.6275 49.3439L48.9953 47.8847ZM46.7436 45.7742L48.1113 44.315L47.3608 43.6115L45.9931 45.0707L44.6253 46.53L45.3759 47.2335L46.7436 45.7742ZM45.9931 45.0707L46.2024 43.0817L45.7554 43.0347L45.546 45.0237L45.3366 47.0127L45.7837 47.0598L45.9931 45.0707ZM44.6519 44.9296L44.8613 42.9406L44.4143 42.8935L44.2049 44.8825L43.9955 46.8715L44.4426 46.9186L44.6519 44.9296ZM44.2049 44.8825L46.0543 44.121L45.8896 43.721L44.0402 44.4825L42.1909 45.244L42.3555 45.644L44.2049 44.8825ZM43.7108 43.6826L45.5602 42.9211L45.3955 42.5211L43.5461 43.2826L41.6968 44.0441L41.8615 44.4441L43.7108 43.6826ZM43.5461 43.2826L42.2699 41.7427L41.404 42.4603L42.6803 44.0002L43.9565 45.5401L44.8224 44.8225L43.5461 43.2826ZM40.9486 45.4354L39.6723 43.8956L38.8065 44.6132L40.0828 46.153L41.359 47.6929L42.2248 46.9753L40.9486 45.4354ZM40.0828 46.153L41.5638 44.809L40.4792 43.6138L38.9981 44.9578L37.517 46.3018L38.6017 47.4971L40.0828 46.153ZM36.8288 42.5673L38.3099 41.2233L37.2252 40.0281L35.7441 41.3721L34.2631 42.7161L35.3477 43.9114L36.8288 42.5673ZM35.7441 41.3721L33.7844 40.9727L33.5586 42.0808L35.5183 42.4803L37.478 42.8797L37.7038 41.7715L35.7441 41.3721ZM35.0665 44.6966L33.1068 44.2972L32.8809 45.4054L34.8407 45.8048L36.8004 46.2043L37.0262 45.0961L35.0665 44.6966ZM34.8407 45.8048L34.0284 43.9772L33.5625 44.1842L34.3748 46.0119L35.1871 47.8395L35.6529 47.6324L34.8407 45.8048ZM33.4431 46.426L32.6308 44.5983L32.1649 44.8054L32.9772 46.633L33.7895 48.4606L34.2554 48.2536L33.4431 46.426ZM32.9772 46.633L30.9852 46.4542L30.8476 47.987L32.8396 48.1659L34.8316 48.3447L34.9692 46.8119L32.9772 46.633ZM32.5643 51.2316L30.5723 51.0527L30.297 54.1185L32.289 54.2973L34.281 54.4762L34.5563 51.4105L32.5643 51.2316ZM32.0137 57.3631L30.0217 57.1842L29.8841 58.7171L31.8761 58.8959L33.8681 59.0748L34.0057 57.5419L32.0137 57.3631ZM31.8761 58.8959L30.0349 58.1149L29.4655 59.4572L31.3067 60.2382L33.1479 61.0193L33.7173 59.677L31.8761 58.8959ZM30.1679 62.9228L28.3267 62.1418L27.188 64.8264L29.0292 65.6074L30.8704 66.3884L32.0091 63.7038L30.1679 62.9228ZM27.8904 68.292L26.0492 67.5109L25.4798 68.8532L27.321 69.6342L29.1622 70.4153L29.7316 69.073L27.8904 68.292ZM27.321 69.6342L25.7546 68.3907L24.9664 69.3836L26.5328 70.6271L28.0993 71.8706L28.8875 70.8777L27.321 69.6342ZM24.9564 72.6129L23.39 71.3694L22.6018 72.3623L24.1682 73.6058L25.7347 74.8493L26.5229 73.8564L24.9564 72.6129ZM24.1682 73.6058L22.1819 73.3727L21.9489 75.3573L23.9353 75.5904L25.9217 75.8236L26.1546 73.839L24.1682 73.6058ZM23.4694 79.5596L21.4831 79.3265L21.0172 83.2957L23.0036 83.5289L24.99 83.762L25.4558 79.7928L23.4694 79.5596ZM22.5377 87.4981L20.5514 87.2649L20.3184 89.2496L22.3048 89.4827L24.2912 89.7158L24.5241 87.7312L22.5377 87.4981ZM22.3048 89.4827L20.3314 89.1578L19.9808 91.2871L21.9542 91.612L23.9277 91.9369L24.2782 89.8076L22.3048 89.4827ZM21.2531 95.8706L19.2796 95.5457L18.9291 97.675L20.9025 97.9999L22.8759 98.3248L23.2265 96.1955L21.2531 95.8706ZM20.9025 97.9999L19.0404 98.7297L19.3604 99.5462L21.2225 98.8163L23.0846 98.0865L22.7646 97.2701L20.9025 97.9999ZM21.8625 100.449L20.0004 101.179L20.3204 101.995L22.1824 101.266L24.0445 100.536L23.7246 99.7194L21.8625 100.449ZM22.1824 101.266L21.9214 103.249L23.0296 103.394L23.2906 101.412L23.5516 99.4286L22.4435 99.2827L22.1824 101.266ZM25.507 101.703L25.246 103.686L26.3542 103.832L26.6152 101.849L26.8762 99.8663L25.768 99.7204L25.507 101.703ZM26.6152 101.849L24.7391 102.542L25.1485 103.65L27.0246 102.957L28.9006 102.264L28.4912 101.156L26.6152 101.849ZM27.8433 105.174L25.9673 105.867L26.3767 106.975L28.2527 106.282L30.1288 105.589L29.7194 104.481L27.8433 105.174ZM28.2527 106.282L27.3583 104.493L26.9489 104.698L27.8433 106.487L28.7378 108.275L29.1472 108.071L28.2527 106.282ZM27.0246 106.896L26.1301 105.107L25.7208 105.312L26.6152 107.101L27.5096 108.89L27.919 108.685L27.0246 106.896ZM26.6152 107.101L27.0912 105.158L25.6607 104.808L25.1847 106.75L24.7086 108.693L26.1391 109.043L26.6152 107.101ZM22.3236 106.049L22.7997 104.106L21.3691 103.756L20.8931 105.698L20.4171 107.641L21.8476 107.991L22.3236 106.049ZM20.8931 105.698L22.0124 104.041L21.0196 103.37L19.9002 105.028L18.7809 106.685L19.7737 107.356L20.8931 105.698ZM17.9144 103.687L19.0338 102.029L18.0409 101.359L16.9215 103.016L15.8022 104.674L16.7951 105.344L17.9144 103.687ZM16.9215 103.016L18.864 102.54L18.4994 101.052L16.5568 101.528L14.6143 102.004L14.979 103.492L16.9215 103.016ZM15.8275 98.5517L17.77 98.0756L17.0406 95.0993L15.0981 95.5753L13.1556 96.0514L13.8849 99.0277L15.8275 98.5517ZM14.3687 92.599L16.3112 92.123L15.9465 90.6348L14.004 91.1108L12.0615 91.5869L12.4262 93.075L14.3687 92.599ZM14.004 91.1108H16.004V88.5133H14.004H12.004V91.1108H14.004ZM14.004 83.3183H16.004V80.7208H14.004H12.004V83.3183H14.004ZM14.004 80.7208L12.979 79.0034L11.1697 80.0834L12.1947 81.8007L13.2197 83.5181L15.0291 82.4381L14.004 80.7208ZM8.57605 83.9606L7.551 82.2433L5.74168 83.3232L6.76673 85.0406L7.79178 86.7579L9.6011 85.678L8.57605 83.9606ZM6.76673 85.0406L6.62798 83.0454L4.9363 83.163L5.07505 85.1582L5.21379 87.1534L6.90548 87.0357L6.76673 85.0406ZM1.69168 85.3935L1.55294 83.3983L-0.138747 83.5159L0 85.5111L0.138747 87.5063L1.83043 87.3887L1.69168 85.3935ZM0 85.5111L1.47233 86.8647L2.14289 86.1353L0.670556 84.7817L-0.801779 83.4281L-1.47233 84.1575L0 85.5111ZM2.01167 83.323L3.484 84.6766L4.15456 83.9472L2.68222 82.5936L1.20989 81.24L0.539332 81.9694L2.01167 83.323ZM2.68222 82.5936L3.77965 84.2656L5.22429 83.3174L4.12686 81.6454L3.02943 79.9734L1.58479 80.9216L2.68222 82.5936ZM7.01613 79.749L8.11356 81.4211L11.0028 79.5247L9.9054 77.8527L8.80797 76.1807L5.9187 78.077L7.01613 79.749ZM12.7947 75.9563L13.8921 77.6283L15.3367 76.6801L14.2393 75.0081L13.1419 73.3361L11.6972 74.2843L12.7947 75.9563ZM14.2393 75.0081L16.2377 74.9291L16.1601 72.9645L14.1617 73.0435L12.1632 73.1225L12.2409 75.0871L14.2393 75.0081ZM14.0064 69.1143L16.0048 69.0353L15.8495 65.1061L13.8511 65.1851L11.8526 65.264L12.0079 69.1933L14.0064 69.1143ZM13.6958 61.2558L15.6942 61.1769L15.539 57.2476L13.5405 57.3266L11.5421 57.4056L11.6974 61.3348L13.6958 61.2558ZM13.3852 53.3974L15.3837 53.3184L15.306 51.3538L13.3076 51.4328L11.3091 51.5118L11.3868 53.4764L13.3852 53.3974ZM13.3076 51.4328L15.2937 51.668L15.5172 49.7811L13.5311 49.5458L11.545 49.3106L11.3215 51.1975L13.3076 51.4328ZM13.9781 45.7719L15.9643 46.0071L16.4113 42.2332L14.4252 41.9979L12.4391 41.7627L11.992 45.5366L13.9781 45.7719ZM14.8722 38.224L16.8583 38.4593L17.3054 34.6853L15.3193 34.4501L13.3331 34.2148L12.8861 37.9888L14.8722 38.224ZM15.7663 30.6761L17.7524 30.9114L17.9759 29.0244L15.9898 28.7892L14.0037 28.5539L13.7802 30.4409L15.7663 30.6761ZM15.9898 28.7892L17.9359 29.2503L18.33 27.5868L16.3839 27.1257L14.4378 26.6647L14.0437 28.3281L15.9898 28.7892ZM17.1721 23.7988L19.1182 24.2599L19.9064 20.933L17.9603 20.4719L16.0142 20.0109L15.226 23.3378L17.1721 23.7988ZM18.7485 17.145L20.6946 17.6061L21.0887 15.9427L19.1426 15.4816L17.1965 15.0205L16.8024 16.684L18.7485 17.145ZM19.1426 15.4816L20.949 16.34L21.7372 14.6812L19.9308 13.8229L18.1244 12.9645L17.3362 14.6232L19.1426 15.4816ZM21.5072 10.5054L23.3136 11.3637L24.1018 9.705L22.2954 8.84663L20.489 7.98825L19.7008 9.64699L21.5072 10.5054ZM22.2954 8.84663L23.2845 10.5849L25.2279 9.47909L24.2388 7.7408L23.2497 6.0025L21.3063 7.10833L22.2954 8.84663ZM28.1257 5.52914L29.1148 7.26744L31.0582 6.16161L30.0691 4.42331L29.08 2.68502L27.1366 3.79085L28.1257 5.52914ZM30.0691 4.42331V6.42331H32.3561V4.42331V2.42331H30.0691V4.42331ZM36.93 4.42331V6.42331H39.2169V4.42331V2.42331H36.93V4.42331ZM39.2169 4.42331L39.9299 6.29189L42.0263 5.49193L41.3133 3.62335L40.6002 1.75478L38.5039 2.55474L39.2169 4.42331ZM45.506 2.02343L46.2191 3.89201L48.3154 3.09205L47.6024 1.22347L46.8893 -0.645107L44.793 0.154854L45.506 2.02343ZM47.6024 1.22347L47.8438 3.20884L50.359 2.90298L50.1176 0.917602L49.8761 -1.06777L47.3609 -0.761904L47.6024 1.22347ZM55.1479 0.305867L55.3893 2.29124L57.9045 1.98537L57.6631 0L57.4216 -1.98537L54.9065 -1.67951L55.1479 0.305867ZM57.6631 0L56.7686 1.78885L58.1403 2.4747L59.0348 0.685849L59.9292 -1.10301L58.5575 -1.78885L57.6631 0ZM61.7782 2.05755L60.8837 3.8464L63.6271 5.2181L64.5216 3.42924L65.416 1.64039L62.6726 0.268692L61.7782 2.05755ZM67.265 4.80094L66.3705 6.5898L67.7422 7.27565L68.6367 5.48679L69.5311 3.69794L68.1594 3.01209L67.265 4.80094ZM68.6367 5.48679L68.3075 7.45952L70.3662 7.80303L70.6954 5.8303L71.0245 3.85758L68.9658 3.51406L68.6367 5.48679ZM74.8128 6.51733L74.4837 8.49006L76.5424 8.83357L76.8715 6.86084L77.2007 4.88812L75.142 4.5446L74.8128 6.51733ZM76.8715 6.86084L76.3541 8.79275L79.0599 9.51742L79.5773 7.58551L80.0947 5.6536L77.389 4.92893L76.8715 6.86084ZM84.9888 9.03485L84.4714 10.9668L87.1771 11.6914L87.6945 9.75952L88.212 7.82761L85.5062 7.10294L84.9888 9.03485ZM87.6945 9.75952V11.7595H89.3721V9.75952V7.75952H87.6945V9.75952ZM92.7272 9.75952V11.7595H94.4048V9.75952V7.75952H92.7272V9.75952ZM94.4048 9.75952L94.9109 11.6944L96.512 11.2756L96.0059 9.34072L95.4998 7.40582L93.8987 7.82462L94.4048 9.75952ZM99.2081 8.50311L99.7142 10.438L102.916 9.60041L102.41 7.66551L101.904 5.73061L98.702 6.56821L99.2081 8.50311ZM105.612 6.8279L106.119 8.7628L107.72 8.344L107.214 6.4091L106.707 4.4742L105.106 4.893L105.612 6.8279ZM107.214 6.4091L107.043 8.40182L109.711 8.63005L109.882 6.63732L110.052 4.6446L107.384 4.41638L107.214 6.4091ZM115.218 7.09377L115.047 9.08649L117.716 9.31472L117.886 7.322L118.056 5.32927L115.388 5.10105L115.218 7.09377ZM117.886 7.322L116.886 9.05402L118.239 9.83515L119.239 8.10313L120.239 6.37111L118.886 5.58998L117.886 7.322ZM121.945 9.66541L120.945 11.3974L123.65 12.9597L124.65 11.2277L125.65 9.49567L122.945 7.93339L121.945 9.66541ZM127.356 12.79L126.356 14.522L127.709 15.3031L128.709 13.5711L129.709 11.8391L128.356 11.0579L127.356 12.79ZM128.709 13.5711L127.159 14.8344L128.416 16.3779L129.967 15.1146L131.517 13.8512L130.26 12.3078L128.709 13.5711ZM132.482 18.2015L130.931 19.4648L133.446 22.5517L134.997 21.2884L136.547 20.0251L134.032 16.9381L132.482 18.2015ZM137.512 24.3753L135.962 25.6386L137.219 27.1821L138.77 25.9187L140.32 24.6554L139.063 23.112L137.512 24.3753ZM138.77 25.9187L136.904 26.638L137.513 28.2191L139.379 27.4998L141.245 26.7806L140.636 25.1995L138.77 25.9187ZM140.598 30.662L138.732 31.3813L139.95 34.5435L141.817 33.8242L143.683 33.105L142.464 29.9428L140.598 30.662ZM143.035 36.9864L141.169 37.7057L141.779 39.2868L143.645 38.5675L145.511 37.8483L144.902 36.2672L143.035 36.9864ZM143.645 38.5675L141.649 38.4394L141.547 40.0276L143.543 40.1557L145.539 40.2838L145.641 38.6957L143.645 38.5675ZM143.339 43.332L141.343 43.2039L141.139 46.3802L143.135 46.5083L145.131 46.6364L145.335 43.4601L143.339 43.332ZM142.931 49.6846L140.935 49.5565L140.731 52.7328L142.727 52.8609L144.723 52.9891L144.927 49.8128L142.931 49.6846ZM142.523 56.0373L140.527 55.9091L140.425 57.4973L142.421 57.6254L144.417 57.7536L144.519 56.1654L142.523 56.0373ZM142.421 57.6254L140.438 57.3681L140.209 59.1335L142.192 59.3908L144.176 59.6481L144.405 57.8827L142.421 57.6254ZM141.734 62.9216L139.751 62.6643L139.293 66.1952L141.276 66.4524L143.26 66.7097L143.718 63.1789L141.734 62.9216ZM140.818 69.9832L138.835 69.726L138.377 73.2568L140.36 73.5141L142.344 73.7713L142.802 70.2405L140.818 69.9832ZM139.902 77.0449L137.919 76.7876L137.69 78.553L139.673 78.8103L141.657 79.0676L141.886 77.3021L139.902 77.0449ZM139.673 78.8103L137.709 79.1847L138.023 80.8328L139.987 80.4584L141.952 80.084L141.638 78.4359L139.673 78.8103ZM140.615 83.7547L138.651 84.1292L139.279 87.4255L141.244 87.051L143.208 86.6766L142.58 83.3803L140.615 83.7547ZM141.872 90.3474L139.907 90.7218L140.535 94.0181L142.5 93.6437L144.465 93.2692L143.837 89.9729L141.872 90.3474ZM143.128 96.94L141.164 97.3144L141.792 100.611L143.757 100.236L145.721 99.8619L145.093 96.5656L143.128 96.94ZM144.385 103.533L142.42 103.907L142.734 105.555L144.699 105.181L146.663 104.806L146.349 103.158L144.385 103.533ZM144.699 105.181L142.832 104.464L142.641 104.96L144.508 105.677L146.375 106.394L146.566 105.898L144.699 105.181ZM144.127 106.67L142.26 105.953L142.069 106.45L143.937 107.167L145.804 107.883L145.994 107.387L144.127 106.67ZM143.937 107.167V105.167H141.593V107.167V109.167H143.937V107.167ZM136.906 107.167V105.167H132.219V107.167V109.167H136.906V107.167ZM127.533 107.167V105.167H125.189V107.167V109.167H127.533V107.167ZM125.189 107.167L127.129 107.652L127.32 106.889L125.38 106.404L123.439 105.919L123.249 106.681L125.189 107.167ZM125.761 104.88L127.701 105.365L127.892 104.602L125.952 104.117L124.011 103.632L123.821 104.395L125.761 104.88ZM125.952 104.117L127.278 105.614L128.268 104.737L126.942 103.24L125.616 101.743L124.625 102.62L125.952 104.117ZM128.923 101.484L130.249 102.981L131.24 102.104L129.914 100.607L128.587 99.1099L127.597 99.9875L128.923 101.484ZM129.914 100.607L131.907 100.774L132.022 99.4027L130.029 99.2352L128.036 99.0676L127.921 100.439L129.914 100.607ZM130.26 96.4918L132.253 96.6593L132.368 95.2876L130.375 95.1201L128.382 94.9526L128.267 96.3243L130.26 96.4918ZM130.375 95.1201L132.363 94.9073L132.211 93.4779L130.222 93.6907L128.233 93.9035L128.386 95.3328L130.375 95.1201ZM129.916 90.832L131.905 90.6193L131.599 87.7606L129.61 87.9734L127.621 88.1861L127.927 91.0448L129.916 90.832ZM129.304 85.1147L131.293 84.9019L131.14 83.4725L129.151 83.6853L127.163 83.8981L127.316 85.3274L129.304 85.1147ZM129.151 83.6853L131.044 83.0401L130.473 81.3626L128.58 82.0078L126.687 82.6529L127.258 84.3305L129.151 83.6853ZM127.436 78.6526L129.329 78.0074L128.757 76.3299L126.864 76.9751L124.971 77.6203L125.543 79.2978L127.436 78.6526ZM126.864 76.9751L127.984 75.3176L126.346 74.2118L125.227 75.8692L124.108 77.5267L125.745 78.6325L126.864 76.9751ZM121.952 73.6576L123.071 72.0001L121.433 70.8943L120.314 72.5517L119.195 74.2092L120.832 75.3151L121.952 73.6576ZM120.314 72.5517L118.315 72.6187L118.391 74.868L120.389 74.8011L122.388 74.7341L122.313 72.4848L120.314 72.5517ZM120.54 79.2997L118.541 79.3666L118.616 81.6159L120.615 81.549L122.614 81.4821L122.539 79.2327L120.54 79.2997ZM120.615 81.549L118.723 82.1958L119.419 84.2334L121.312 83.5865L123.204 82.9396L122.508 80.9021L120.615 81.549ZM122.705 87.6616L120.812 88.3085L121.509 90.346L123.401 89.6991L125.294 89.0523L124.597 87.0147L122.705 87.6616ZM123.401 89.6991L121.486 90.2772L122.27 92.8724L124.185 92.2943L126.099 91.7163L125.316 89.1211L123.401 89.6991ZM125.752 97.4846L123.837 98.0627L124.62 100.658L126.535 100.08L128.45 99.5018L127.666 96.9066L125.752 97.4846ZM126.535 100.08L124.741 99.1965L124.141 100.415L125.935 101.299L127.729 102.182L128.329 100.963L126.535 100.08ZM124.735 103.736L122.941 102.853L122.341 104.072L124.135 104.955L125.929 105.838L126.529 104.619L124.735 103.736Z" fill="#2DFEBB" mask="url(#path-1-inside-1_629_54)"/>
</svg>
