<svg width="122" height="122" viewBox="0 0 122 122" fill="none" xmlns="http://www.w3.org/2000/svg">
<path d="M60.9941 0.5C27.5843 0.5 0.5 27.5843 0.5 60.9941C0.5 94.4038 27.5843 121.488 60.9941 121.488C94.4038 121.488 121.488 94.4038 121.488 60.9941C121.488 27.5843 94.4038 0.5 60.9941 0.5ZM94.9691 59.1036C94.7082 48.5512 92.296 38.5394 88.1389 29.4861C93.1523 27.5541 97.9106 25.106 102.346 22.2004C111.465 31.9172 117.193 44.8403 117.662 59.1036H94.9691ZM63.514 117.643C63.3061 117.652 63.0944 117.652 62.8845 117.66V95.0882C69.1683 95.2526 75.2612 96.1865 81.0422 97.8671C76.4654 105.497 70.5011 112.195 63.514 117.643ZM84.7172 99.0694C89.0331 100.584 93.1523 102.504 97.0485 104.775C89.5038 110.994 80.32 115.291 70.2459 116.945C75.9323 111.773 80.8134 105.745 84.7172 99.0694ZM40.9441 97.8671C46.7269 96.1846 52.8198 95.2526 59.1036 95.0882V117.658C58.8938 117.651 58.6821 117.651 58.4741 117.641C51.4852 112.195 45.5227 105.497 40.9441 97.8671ZM51.7404 116.944C41.6662 115.291 32.4825 110.994 24.9377 104.773C28.8358 102.504 32.9532 100.582 37.2691 99.0694C41.1728 105.745 46.0558 111.773 51.7404 116.944ZM4.32814 59.1036C4.79697 44.8403 10.5231 31.9172 19.6445 22.2004C24.0795 25.1041 28.8358 27.5522 33.8511 29.4861C29.6922 38.5394 27.28 48.5512 27.0191 59.1036H4.32814ZM82.8665 27.3367C76.5429 29.3576 69.8338 30.4937 62.8845 30.6752V4.32814C63.0944 4.3357 63.3061 4.3357 63.514 4.34515C71.469 10.5458 78.0969 18.3703 82.8665 27.3367ZM70.2478 5.04462C81.4846 6.88969 91.606 12.0317 99.5893 19.4536C95.4757 22.0832 91.0899 24.312 86.4621 26.0682C82.3145 18.1302 76.8152 11.0146 70.2478 5.04462ZM59.1036 4.32814V30.6752C52.1525 30.4937 45.4433 29.3595 39.1217 27.3367C43.8913 18.3703 50.5191 10.5458 58.4741 4.34515C58.6821 4.3357 58.8938 4.3357 59.1036 4.32814ZM35.528 26.0682C30.9002 24.312 26.5125 22.0832 22.4007 19.4536C30.3841 12.0317 40.5036 6.88969 51.7423 5.04462C45.173 11.0146 39.6737 18.1302 35.528 26.0682ZM37.4241 30.7641C44.2712 33.0118 51.5494 34.3048 59.1036 34.492V59.1036H30.8056C31.0684 48.9973 33.3993 39.4128 37.4241 30.7641ZM59.1036 62.8845V91.3092C52.1393 91.4831 45.4074 92.5663 39.0366 94.5021C34.0213 85.0253 31.1024 74.282 30.8056 62.8845H59.1036ZM62.8845 91.3092V62.8845H91.1825C90.8876 74.282 87.9669 85.0254 82.9515 94.504C76.5808 92.5663 69.8489 91.4831 62.8845 91.3092ZM62.8845 59.1036V34.4901C70.4387 34.303 77.7169 33.0118 84.5641 30.7622C88.5888 39.4109 90.9197 48.9973 91.1825 59.1017L62.8845 59.1036ZM4.32814 62.8845H27.0191C27.3102 74.7054 30.3085 85.8458 35.4259 95.7196C30.7073 97.4191 26.2175 99.5836 21.9867 102.14C11.5156 92.2109 4.83667 78.3332 4.32814 62.8845ZM100.001 102.141C95.7706 99.5836 91.2808 97.421 86.5623 95.7215C91.6797 85.8458 94.6779 74.7073 94.9691 62.8864H117.66C117.151 78.3332 110.473 92.2109 100.001 102.141Z" fill="#2DFEBB" stroke="#061E2A" stroke-dasharray="2.42 2.42"/>
</svg>
