<svg width="387" height="259" viewBox="0 0 387 259" fill="none" xmlns="http://www.w3.org/2000/svg">
<mask id="mask0_645_17" style="mask-type:alpha" maskUnits="userSpaceOnUse" x="0" y="0" width="387" height="259">
<path d="M0 102.828L50.4367 55.1176L80.8341 51.0278L131.986 0H165.105V15.4633L103.009 60.628L103.257 74.2227L131.862 107.466H161.239L195.259 92.7748L292.672 92.0026L330.558 142.258L345.249 146.124V168.547H308.912L322.826 189.42L366.123 230.395L386.224 237.354L381.586 259L341.383 251.268L296.538 212.615L291.9 236.582L239.742 232.416L215.361 202.562L134.956 201.79L76.1961 255.134L37.538 259L36.7658 241.22L94.7482 194.058L90.8824 185.554L63.6263 185.735L48.8637 195.255L0 200.245V180.916L54.5456 164.681L55.3226 129.502L0 102.828Z" fill="#2DFEBB"/>
</mask>
<g mask="url(#mask0_645_17)">
<line x1="380.5" y1="-57.9819" x2="380.5" y2="417.881" stroke="#F0F0F0" stroke-width="2"/>
<line x1="368.682" y1="-57.9819" x2="368.682" y2="417.881" stroke="#F0F0F0" stroke-width="2"/>
<line x1="356.865" y1="-57.9819" x2="356.865" y2="417.881" stroke="#F0F0F0" stroke-width="2"/>
<line x1="345.047" y1="-57.9819" x2="345.047" y2="417.881" stroke="#F0F0F0" stroke-width="2"/>
<line x1="333.229" y1="-57.9819" x2="333.229" y2="417.881" stroke="#F0F0F0" stroke-width="2"/>
<line x1="321.41" y1="-57.9819" x2="321.41" y2="417.881" stroke="#F0F0F0" stroke-width="2"/>
<line x1="309.594" y1="-57.9819" x2="309.594" y2="417.881" stroke="#F0F0F0" stroke-width="2"/>
<line x1="297.775" y1="-57.9819" x2="297.775" y2="417.881" stroke="#F0F0F0" stroke-width="2"/>
<line x1="285.957" y1="-57.9819" x2="285.957" y2="417.881" stroke="#F0F0F0" stroke-width="2"/>
<line x1="274.141" y1="-57.9819" x2="274.141" y2="417.881" stroke="#F0F0F0" stroke-width="2"/>
<line x1="262.322" y1="-57.9819" x2="262.322" y2="417.881" stroke="#F0F0F0" stroke-width="2"/>
<line x1="250.504" y1="-57.9819" x2="250.504" y2="417.881" stroke="#F0F0F0" stroke-width="2"/>
<line x1="238.686" y1="-57.9819" x2="238.686" y2="417.881" stroke="#F0F0F0" stroke-width="2"/>
<line x1="226.869" y1="-57.9819" x2="226.869" y2="417.881" stroke="#F0F0F0" stroke-width="2"/>
<line x1="215.051" y1="-57.9819" x2="215.051" y2="417.881" stroke="#F0F0F0" stroke-width="2"/>
<line x1="203.232" y1="-57.9819" x2="203.232" y2="417.881" stroke="#F0F0F0" stroke-width="2"/>
<line x1="191.416" y1="-57.9819" x2="191.416" y2="417.881" stroke="#F0F0F0" stroke-width="2"/>
<line x1="179.598" y1="-57.9819" x2="179.598" y2="417.881" stroke="#F0F0F0" stroke-width="2"/>
<line x1="167.779" y1="-57.9819" x2="167.779" y2="417.881" stroke="#F0F0F0" stroke-width="2"/>
<line x1="155.961" y1="-57.9819" x2="155.961" y2="417.881" stroke="#F0F0F0" stroke-width="2"/>
<line x1="144.145" y1="-57.9819" x2="144.145" y2="417.881" stroke="#F0F0F0" stroke-width="2"/>
<line x1="132.326" y1="-57.9819" x2="132.326" y2="417.881" stroke="#F0F0F0" stroke-width="2"/>
<line x1="120.508" y1="-57.9819" x2="120.508" y2="417.881" stroke="#F0F0F0" stroke-width="2"/>
<line x1="108.689" y1="-57.9819" x2="108.689" y2="417.881" stroke="#F0F0F0" stroke-width="2"/>
<line x1="96.873" y1="-57.9819" x2="96.873" y2="417.881" stroke="#F0F0F0" stroke-width="2"/>
<line x1="85.0547" y1="-57.9819" x2="85.0547" y2="417.881" stroke="#F0F0F0" stroke-width="2"/>
<line x1="73.2363" y1="-57.9819" x2="73.2363" y2="417.881" stroke="#F0F0F0" stroke-width="2"/>
<line x1="61.4199" y1="-57.9819" x2="61.4199" y2="417.881" stroke="#F0F0F0" stroke-width="2"/>
<line x1="49.6016" y1="-57.9819" x2="49.6016" y2="417.881" stroke="#F0F0F0" stroke-width="2"/>
<line x1="37.7832" y1="-57.9819" x2="37.7832" y2="417.881" stroke="#F0F0F0" stroke-width="2"/>
<line x1="25.9648" y1="-57.9819" x2="25.9648" y2="417.881" stroke="#F0F0F0" stroke-width="2"/>
<line x1="14.1484" y1="-57.9819" x2="14.1484" y2="417.881" stroke="#F0F0F0" stroke-width="2"/>
<line x1="2.33008" y1="-57.9819" x2="2.33008" y2="417.881" stroke="#F0F0F0" stroke-width="2"/>
</g>
</svg>
