<svg width="19" height="624" viewBox="0 0 19 624" fill="none" xmlns="http://www.w3.org/2000/svg">
<line x1="19" y1="623.459" y2="623.459" stroke="#F0F0F0" stroke-width="0.918388"/>
<line x1="19" y1="595.182" y2="595.182" stroke="#F0F0F0"/>
<line x1="19" y1="566.823" y2="566.823" stroke="#F0F0F0" stroke-width="0.918388"/>
<line x1="19" y1="538.505" y2="538.505" stroke="#F0F0F0" stroke-width="0.918388"/>
<line x1="19" y1="510.186" y2="510.186" stroke="#F0F0F0" stroke-width="0.918388"/>
<line x1="19" y1="481.868" y2="481.868" stroke="#F0F0F0" stroke-width="0.918388"/>
<line x1="19" y1="453.55" y2="453.55" stroke="#F0F0F0" stroke-width="0.918388"/>
<line x1="19" y1="425.232" y2="425.232" stroke="#F0F0F0" stroke-width="0.918388"/>
<line x1="19" y1="396.914" y2="396.914" stroke="#F0F0F0" stroke-width="0.918388"/>
<line x1="19" y1="368.595" y2="368.595" stroke="#F0F0F0" stroke-width="0.918388"/>
<line x1="19" y1="340.278" y2="340.278" stroke="#F0F0F0" stroke-width="0.918388"/>
<line x1="19" y1="311.959" y2="311.959" stroke="#F0F0F0" stroke-width="0.918388"/>
<line x1="19" y1="283.641" y2="283.641" stroke="#F0F0F0" stroke-width="0.918388"/>
<line x1="19" y1="255.323" y2="255.323" stroke="#F0F0F0" stroke-width="0.918388"/>
<line x1="19" y1="227.005" y2="227.005" stroke="#F0F0F0" stroke-width="0.918388"/>
<line x1="19" y1="198.687" y2="198.687" stroke="#F0F0F0" stroke-width="0.918388"/>
<line x1="19" y1="170.368" y2="170.368" stroke="#F0F0F0" stroke-width="0.918388"/>
<line x1="19" y1="142.05" y2="142.05" stroke="#F0F0F0" stroke-width="0.918388"/>
<line x1="19" y1="113.732" y2="113.732" stroke="#F0F0F0" stroke-width="0.918388"/>
<line x1="19" y1="85.4138" y2="85.4138" stroke="#F0F0F0" stroke-width="0.918388"/>
<line x1="19" y1="57.0954" y2="57.0954" stroke="#F0F0F0" stroke-width="0.918388"/>
<line x1="19" y1="28.7776" y2="28.7776" stroke="#F0F0F0" stroke-width="0.918388"/>
<line x1="19" y1="0.459194" y2="0.459194" stroke="#F0F0F0" stroke-width="0.918388"/>
</svg>
